<svg xmlns="http://www.w3.org/2000/svg"><path d="M90.594 62.996C105.22 56.984 119.12 43.62 119.12 37.22c0-1.828-1.023-3.261-2.739-3.832-1.528-.509-7.749-.807-27.56 13.4a8.223 8.223 0 00-2.134-4.752c.064-.201.109-.411.109-.634 0-6.552-7.7-11.955-18.6-13.792.116-3.001 1.897-11.683 17.516-19.491a2.067 2.067 0 10-1.849-3.698C67.08 12.813 64.401 22.732 64.1 27.1a52.042 52.042 0 00-4.169-.165c-2.128 0-4.189.131-6.163.372-.233-4.256-2.724-14.36-19.778-22.886a2.066 2.066 0 10-1.849 3.697c16.358 8.177 17.538 17.311 17.522 19.877-9.827 2.131-16.597 7.264-16.597 13.406 0 .223.044.433.11.634a8.214 8.214 0 00-2.161 5.266C10.644 32.578 4.29 32.87 2.739 33.387 1.023 33.958 0 35.391 0 37.22c0 6.463 14.177 20.03 28.961 25.953C14.177 69.096 0 82.662 0 89.126c0 1.828 1.023 3.26 2.74 3.834.342.113.834.276 1.651.276 2.889 0 9.837-2.054 28.484-15.604.635.772 1.28 1.423 2.152 1.925.479 12.541 10.696 22.719 22.578 23.748v10.425c0 1.143.925 2.067 2.067 2.067a2.065 2.065 0 002.066-2.067v-10.425c12.4-1.029 22.358-11.207 22.837-23.748.896-.516 1.752-1.192 2.396-1.993 18.715 13.613 25.713 15.674 28.609 15.674a4.83 4.83 0 001.673-.28c1.715-.571 2.747-2.004 2.747-3.833 0-6.529-14.46-20.304-29.406-26.129zM4.117 37.286c3.072-.822 17.168 7.817 29.266 16.92a8.222 8.222 0 00-2.361 5.34c-15.5-5.913-27.116-19.16-26.905-22.26zm26.881 35.113c0 .477.05.94.128 1.395C15.758 85.014 6.507 89.587 4.115 89.049c-.194-3.247 12.41-17.471 28.863-22.957.17-.056.324-.139.468-.233.12.12.248.229.375.34a8.233 8.233 0 00-2.823 6.2zm84.007-35.105c.185 3.068-11.06 15.933-26.18 21.97a8.236 8.236 0 00-2.678-5.368c11.92-8.931 25.577-17.316 28.858-16.602zM59.93 31.068c11.67 0 20.256 4.093 22.276 8.389-.526-.105-1.069-.202-1.626-.202H39.281c-.557 0-1.1.097-1.626.202 2.02-4.296 10.606-8.389 22.275-8.389zm0 68.118c-10.697 0-19.52-8.266-20.561-18.599h41.124c-1.04 10.333-9.865 18.599-20.563 18.599zm20.65-22.732H39.281c-2.289 0-4.15-1.855-4.15-4.133 0-2.279 1.861-4.134 4.15-4.134H80.58c2.288 0 4.15 1.855 4.15 4.134 0 2.278-1.862 4.133-4.15 4.133zm0-12.4H39.281c-2.289 0-4.15-1.854-4.15-4.133 0-2.278 1.861-4.133 4.15-4.133H80.58c2.288 0 4.15 1.855 4.15 4.133 0 2.279-1.862 4.133-4.15 4.133zm0-12.399H39.281c-2.289 0-4.15-1.855-4.15-4.133 0-2.279 1.861-4.133 4.15-4.133H80.58c2.288 0 4.15 1.854 4.15 4.133 0 2.278-1.862 4.133-4.15 4.133zm35.311 37.404c-2.212.578-11.569-3.979-27.14-15.362.066-.424.111-.855.111-1.298a8.233 8.233 0 00-2.822-6.2c.149-.13.297-.261.435-.402.167.122.349.227.555.296 16.468 5.49 29.081 19.737 28.861 22.966z"/></svg>