<svg xmlns="http://www.w3.org/2000/svg"><path d="M94.94.628a2.142 2.142 0 00-3.03 0L81.825 10.714H14.816L4.73.628a2.142 2.142 0 10-3.03 3.03l10.087 10.086v95.541c0 1.185.958 2.143 2.143 2.143h34.286a2.141 2.141 0 002.143-2.143 2.142 2.142 0 00-2.143-2.143H16.072V70.195l64.285-18.08v10.028c0 1.184.959 2.143 2.143 2.143a2.142 2.142 0 002.143-2.143V13.956L94.941 3.658a2.142 2.142 0 000-3.03zM80.358 47.662l-64.285 18.08V44.481L80.357 26.4v21.26zm0-25.715l-64.285 18.08V15h64.285v6.947z"/><path d="M110.357 85.714h-60a2.142 2.142 0 00-2.143 2.143c0 17.725 14.419 32.143 32.143 32.143 17.725 0 32.143-14.418 32.143-32.143a2.141 2.141 0 00-2.143-2.143zm-30 30c-14.64 0-26.677-11.35-27.775-25.714h55.551c-1.099 14.364-13.136 25.714-27.776 25.714zm37.107-68.46a2.135 2.135 0 00-2.71 1.354L104.039 80.75a2.142 2.142 0 004.064 1.356l10.715-32.143a2.142 2.142 0 00-1.354-2.71zM63.215 75a4.291 4.291 0 00-4.286 4.286 4.291 4.291 0 004.285 4.286 4.291 4.291 0 004.286-4.286A4.292 4.292 0 0063.215 75zm12.856 0a4.291 4.291 0 00-4.285 4.286 4.291 4.291 0 004.285 4.286 4.291 4.291 0 004.286-4.286A4.291 4.291 0 0076.071 75zm8.572-6.429a4.291 4.291 0 00-4.286 4.286 4.291 4.291 0 004.286 4.286 4.291 4.291 0 004.286-4.286 4.291 4.291 0 00-4.286-4.286zM95.357 75a4.291 4.291 0 00-4.286 4.286 4.291 4.291 0 004.286 4.286 4.291 4.291 0 004.286-4.286A4.292 4.292 0 0095.357 75z"/></svg>