<svg xmlns="http://www.w3.org/2000/svg"><path d="M36.403 9.836c-4.34 0-7.87 3.53-7.87 7.87 0 4.339 3.53 7.868 7.87 7.868 4.338 0 7.869-3.529 7.869-7.869s-3.53-7.869-7.87-7.869zm0 11.804a3.94 3.94 0 01-3.935-3.935 3.94 3.94 0 013.935-3.934 3.94 3.94 0 013.934 3.934 3.939 3.939 0 01-3.934 3.935z"/><path d="M99.275 18.779a1.966 1.966 0 00-2.781 0L70.01 45.225c-.056-.005-.109-.054-.165-.054H55.829V17.705C55.829 7.942 48.009 0 38.246 0c-8.721 0-15.924 6.341-17.374 14.655l-7.53 7.56a1.967 1.967 0 00.015 2.782l6.158 6.274c-1.777 1.444-3.03 3.643-3.03 6.106v6.16c-2.951.877-5.78 3.951-5.78 7.61 0 4.34 3.592 7.87 7.93 7.87 1.48 0 2.768-.419 3.95-1.13 1.07 14.197 10.129 26.677 23.407 31.95v4.59c0 4.749 3.443 8.723 7.87 9.637v6.025h-5.656a1.967 1.967 0 100 3.934h3.12l-2.544 2.581a1.99 1.99 0 000 2.801 1.97 1.97 0 001.39.585c.504 0 .885-.187 1.269-.571l2.42-2.539v1.153a1.967 1.967 0 103.934 0v-13.969c4.919-.914 7.87-4.888 7.87-9.638V92.25c.491-.001.15 0 .165-.002 13.38-1.416 25.009-9.936 30.372-22.276 1.042-.823 2.081-1.707 3.043-2.668 13.378-13.379 13.409-35.147.03-48.525zm-6.974 10.078c7.276 8.691 6.832 21.695-1.33 29.858A21.995 21.995 0 0175.317 65.2c-5.253 0-10.227-1.818-14.203-5.155L63.26 57.9a18.969 18.969 0 0012.056 4.28 19 19 0 0013.52-5.6 18.99 18.99 0 005.6-13.52c0-4.444-1.51-8.657-4.281-12.055l2.146-2.147zM73.749 47.41l2.96-2.961 4.63-4.63c1.39 2.59.994 5.894-1.187 8.076-2.185 2.182-5.49 2.576-8.076 1.187l1.673-1.672zm1.567 6.421a10.7 10.7 0 007.617-3.154c3.724-3.724 4.139-9.517 1.258-13.71l3.165-3.165a15.08 15.08 0 013.145 9.258c0 4.057-1.58 7.868-4.448 10.737a15.085 15.085 0 01-10.737 4.447A15.066 15.066 0 0166.06 55.1l3.161-3.161a10.69 10.69 0 006.095 1.893zM38.37 3.934c7.593 0 13.77 6.179 13.77 13.77 0 7.593-6.177 13.771-13.77 13.771-7.594 0-13.77-6.178-13.77-13.77s6.176-13.77 13.77-13.77zm-6.251 43.631a3.937 3.937 0 012.316 3.583 3.939 3.939 0 01-3.934 3.934 3.937 3.937 0 01-3.582-2.316 7.895 7.895 0 005.2-5.2zM17.545 23.607l3.311-3.311a17.653 17.653 0 004.358 9.244 7.822 7.822 0 00-.615-.032c-.364 0-.72.034-1.071.082l-5.983-5.983zm1.152 31.475a3.94 3.94 0 01-3.934-3.935c0-1.592.953-2.964 2.317-3.582a7.902 7.902 0 005.2 5.2 3.937 3.937 0 01-3.582 2.317zm1.722-9.838v-7.867a3.939 3.939 0 013.934-3.934c2.17 0 3.935 1.773 3.935 3.951v7.867c0 2.161-1.765 3.92-3.935 3.92a3.94 3.94 0 01-3.934-3.937zm45.246 43.047v-1.734a1.967 1.967 0 10-3.935 0v7.87a5.908 5.908 0 01-5.901 5.901 5.908 5.908 0 01-5.902-5.902V84.59a1.967 1.967 0 10-3.934 0v.975c-10.82-4.963-18.348-15.532-19.414-27.53a8.055 8.055 0 003.86.981c4.34 0 7.777-3.529 7.777-7.869 0-3.659-2.55-6.733-5.994-7.61v-6.143c0-1.168-.138-2.275-.596-3.273a17.29 17.29 0 006.56 1.289c5.557 0 10.758-2.576 13.709-6.594v18.397c0 1.087 1.126 1.892 2.213 1.892h11.984L50.75 64.486a2.01 2.01 0 00-.577 1.41c0 .522.208 1.03.577 1.4 6.689 6.689 15.476 10.038 24.262 10.038 4.933 0 9.743-1.052 14.305-3.16-5.408 7.779-13.816 12.992-23.652 14.118zm30.829-23.769C85.112 75.897 66.883 76.345 54.967 65.87l3.188-3.188a25.872 25.872 0 0017.161 6.454c6.965 0 13.512-2.713 18.437-7.638 9.752-9.751 10.142-25.368 1.184-35.598l2.903-2.903c10.48 11.918 10.031 30.15-1.346 41.526z"/></svg>