<svg xmlns="http://www.w3.org/2000/svg"><path d="M49.655 45.517a6.214 6.214 0 00-6.207 6.207 6.214 6.214 0 006.207 6.207 6.214 6.214 0 006.207-6.207 6.214 6.214 0 00-6.207-6.207zm0 8.276a2.072 2.072 0 01-2.069-2.069c0-1.14.928-2.069 2.07-2.069 1.14 0 2.068.928 2.068 2.07a2.07 2.07 0 01-2.069 2.068zm20.69-8.276a6.214 6.214 0 00-6.207 6.207 6.214 6.214 0 006.207 6.207 6.214 6.214 0 006.207-6.207 6.214 6.214 0 00-6.207-6.207zm0 8.276c-1.14 0-2.07-.928-2.07-2.069 0-1.14.929-2.069 2.07-2.069 1.14 0 2.069.928 2.069 2.07 0 1.14-.929 2.068-2.07 2.068zM53.052 78.796c-.962-2.398-2.783-4.112-4.996-4.705-4.41-1.19-9.194 2.34-10.671 7.85-.688 2.566-.574 5.203.32 7.43.962 2.398 2.783 4.112 4.997 4.705a6.68 6.68 0 001.736.228c3.865 0 7.65-3.288 8.935-8.079.688-2.565.573-5.203-.32-7.43zm-3.676 6.358c-.872 3.25-3.449 5.501-5.604 4.925-1.292-.346-1.95-1.558-2.227-2.25-.555-1.38-.614-3.135-.164-4.816.78-2.906 2.913-5.016 4.904-5.016.237 0 .47.03.7.09 1.292.347 1.95 1.559 2.228 2.25.554 1.38.614 3.136.163 4.817zm32.963-3.213c-1.477-5.51-6.263-9.035-10.671-7.85-2.214.593-4.035 2.307-4.997 4.704-.894 2.227-1.008 4.864-.32 7.43 1.284 4.791 5.07 8.078 8.934 8.078a6.68 6.68 0 001.737-.228c2.213-.593 4.035-2.307 4.996-4.704.894-2.227 1.008-4.865.32-7.43zm-4.16 5.888c-.279.692-.936 1.903-2.228 2.25-2.16.576-4.733-1.675-5.604-4.925-.45-1.681-.391-3.437.163-4.817.278-.692.936-1.903 2.228-2.25.23-.061.463-.09.7-.09 1.991 0 4.125 2.11 4.904 5.015.45 1.681.391 3.437-.164 4.817z"/><path d="M119.739 33.092c-9.681-17.426-29.575-14.617-34.386-13.645C77.897 12.517 68.527 8.277 60 8.277c-8.527 0-17.897 4.24-25.352 11.169-4.81-.974-24.704-3.783-34.387 13.646a2.068 2.068 0 00.345 2.468c.217.217 4.233 4.09 13.719 4.09 2.324 0 4.98-.235 7.987-.811-1.039 3.447-1.622 7.07-1.622 10.817 0 10.877 3.807 18.967 11.23 24.157-3.164 3.804-5.023 8.28-5.023 13.084 0 13.69 14.85 24.828 33.103 24.828s33.104-11.138 33.104-24.828c0-4.805-1.86-9.28-5.025-13.086 7.423-5.189 11.232-13.278 11.232-24.155 0-3.747-.584-7.37-1.623-10.817 3.006.576 5.662.811 7.987.811 9.485 0 13.502-3.873 13.719-4.09.654-.653.794-1.66.345-2.468zm-114.896.406c7.41-11.368 20.195-11.276 26.328-10.464-2.89 3.32-5.34 7.091-7.147 11.187-10.8 2.633-16.758.584-19.18-.723zm84.122 53.399c0 11.409-12.993 20.69-28.965 20.69s-28.965-9.281-28.965-20.69S44.028 66.207 60 66.207s28.965 9.281 28.965 20.69zm-3.803-16.091C79.085 65.469 70.068 62.069 60 62.069c-10.067 0-19.082 3.4-25.159 8.734-6.706-4.404-10.014-11.316-10.014-21.148 0-20.056 19.34-37.241 35.173-37.241 15.832 0 35.172 17.185 35.172 37.241 0 9.834-3.305 16.745-10.01 21.15zm10.814-36.584c-1.806-4.096-4.257-7.866-7.146-11.188 6.133-.81 18.916-.902 26.325 10.46-2.436 1.316-8.395 3.355-19.179.728z"/></svg>