<svg xmlns="http://www.w3.org/2000/svg"><path d="M118.959 25.614a2.038 2.038 0 00-2.06.038L98.201 37.08c-11.15-7.464-26.879-11.725-43.417-11.725-23.828 0-45.193 8.75-54.43 22.289a2.04 2.04 0 000 2.296c9.237 13.54 30.602 22.29 54.43 22.29 15.882 0 30.661-3.785 41.795-10.68l20.32 12.419a2.043 2.043 0 002.06.038A2.037 2.037 0 00120 72.228V27.392c0-.738-.398-1.417-1.041-1.777zm-3.035 42.98L97.619 57.408a2.04 2.04 0 00-2.175.032c-10.44 6.808-25.26 10.712-40.66 10.712-8.531 0-16.694-1.169-24.02-3.281 3.78-.863 7.775-2.05 9.156-3.43.782-.783.766-2.018.002-2.818-.762-.8-2.06-.815-2.878-.069-1.057.963-7.66 2.594-13.165 3.512-.201.034-.373.123-.547.208-8.025-3.329-14.586-7.927-18.785-13.483 8.92-11.803 28.417-19.361 50.236-19.361 16.273 0 31.645 4.28 42.174 11.741.667.473 1.548.5 2.24.077l16.727-10.222v37.568z"/><path d="M32.365 39.62a6.12 6.12 0 00-6.114 6.114 6.12 6.12 0 006.114 6.114 6.121 6.121 0 006.114-6.114 6.12 6.12 0 00-6.114-6.114zm0 8.152a2.04 2.04 0 01-2.038-2.038 2.04 2.04 0 012.038-2.038 2.04 2.04 0 012.038 2.038 2.04 2.04 0 01-2.038 2.038zm77.445 34.646H16.06v4.076h93.75v-4.076zM79.238 90.57H46.63v4.077h32.608V90.57z"/></svg>