<svg xmlns="http://www.w3.org/2000/svg"><path d="M118.125 27.392a19.457 19.457 0 00-10.243-17.153l-.261-.14A69.037 69.037 0 0075 1.875a69.045 69.045 0 00-32.625 8.226l-.255.136a19.46 19.46 0 00-10.245 17.155c0 1.764.25 3.491.71 5.167-7.11 1.09-13.989 3.484-20.236 7.127l-1.862 1.086a17.422 17.422 0 00-8.612 14.996c0 9.473 7.63 17.183 17.063 17.342.866 4.28 4.655 7.515 9.187 7.515h1.23L27.082 88.2a64.162 64.162 0 00-2.707 18.448c0 3.068 1.194 5.95 3.362 8.115a11.406 11.406 0 008.115 3.362h10.796c3.064 0 5.946-1.194 8.115-3.362a11.393 11.393 0 003.362-8.115c0-3.455-.306-6.89-.859-10.29a11.472 11.472 0 002.346 3.405 11.406 11.406 0 008.115 3.362h14.546c3.064 0 5.946-1.194 8.115-3.362a11.395 11.395 0 003.362-8.115c0-6.187-.578-12.407-1.718-18.484L88.51 54.375H90c4.536 0 8.327-3.24 9.188-7.528 10.488-.293 18.937-8.897 18.937-19.455zM5.625 55.768a13.65 13.65 0 016.752-11.754l1.862-1.088a53.664 53.664 0 0127.011-7.301 53.628 53.628 0 0127.011 7.305l1.862 1.086a13.647 13.647 0 016.752 11.752c0 7.502-6.105 13.607-13.607 13.607H19.232c-7.502 0-13.607-6.105-13.607-13.607zm17.22 17.357h36.808c-.776 2.177-2.839 3.75-5.28 3.75H28.125c-2.441 0-4.504-1.573-5.28-3.75zm29.267 38.987a7.787 7.787 0 01-5.464 2.263H35.852a7.787 7.787 0 01-5.464-2.263 7.677 7.677 0 01-2.263-5.464c0-5.889.859-11.732 2.55-17.372l2.595-8.651h15.96l2.595 8.651a60.431 60.431 0 012.55 17.372 7.677 7.677 0 01-2.263 5.464zM55.417 88.2l-2.272-7.575h1.23c.883 0 1.72-.161 2.53-.39a100.853 100.853 0 00-.651 11.175c-.263-1.074-.518-2.149-.837-3.21zm32.93-14.344A96.787 96.787 0 0190 91.648a7.674 7.674 0 01-2.263 5.464 7.787 7.787 0 01-5.464 2.263H67.727a7.787 7.787 0 01-5.464-2.263A7.678 7.678 0 0160 91.648c0-4.594.341-9.22.996-13.768a9.367 9.367 0 002.565-4.77c9.435-.16 17.062-7.87 17.062-17.342 0-.469-.054-.93-.094-1.393h4.163l3.654 19.481zM90 50.625H79.808a17.392 17.392 0 00-1.664-3.75H95.28c-.776 2.177-2.839 3.75-5.28 3.75zm8.642-7.5h-23.53c-.939-.883-1.96-1.688-3.097-2.351l-1.862-1.084a57.4 57.4 0 00-28.903-7.815c-1.639 0-3.27.096-4.898.236a15.714 15.714 0 017.549-18.574l.255-.136A65.268 65.268 0 0175 5.625a65.275 65.275 0 0130.842 7.774l.261.14a15.718 15.718 0 018.272 13.853c0 8.676-7.057 15.733-15.733 15.733z"/></svg>