<svg xmlns="http://www.w3.org/2000/svg"><path d="M114.375 86.25l-1.5-1.125c-4.511-3.386-11.241-3.384-15.748 0l-1.504 1.125c-3.22 2.419-8.025 2.42-11.248 0l-1.5-1.123c-.157-.118-.338-.199-.5-.31.39-.108.783-.211 1.184-.27l1.855-.266c2.793-.4 5.43-1.717 7.425-3.71a13.197 13.197 0 003.712-7.424l.266-1.856a9.421 9.421 0 012.65-5.304 9.436 9.436 0 015.302-2.651l1.859-.267a13.2 13.2 0 007.423-3.712 13.193 13.193 0 003.712-7.423l.266-1.856a9.426 9.426 0 00-2.653-7.956 9.42 9.42 0 00-7.953-2.651l-1.857.266a13.2 13.2 0 00-7.425 3.712 13.2 13.2 0 00-3.71 7.424l-.267 1.856a9.43 9.43 0 01-2.65 5.304 9.45 9.45 0 01-5.305 2.653l-1.855.267a13.217 13.217 0 00-7.425 3.71 13.196 13.196 0 00-3.712 7.425l-.264 1.855c-.26 1.816-1.086 3.52-2.303 4.891.38-1.243.6-2.533.6-3.834a13.2 13.2 0 00-2.625-7.875l-.338-.452c1.227-.624 2.365-1.416 3.342-2.392a13.225 13.225 0 003.712-7.425L75.606 55a9.424 9.424 0 012.65-5.304 9.436 9.436 0 015.305-2.651l1.855-.267a13.217 13.217 0 007.425-3.71 13.197 13.197 0 003.712-7.423l.266-1.857a9.42 9.42 0 012.65-5.304 9.437 9.437 0 015.302-2.651l1.858-.267a13.196 13.196 0 007.423-3.712 13.188 13.188 0 003.713-7.423l.266-1.856a9.426 9.426 0 00-2.653-7.956 9.415 9.415 0 00-7.954-2.651l-1.856.266a13.201 13.201 0 00-7.425 3.712 13.2 13.2 0 00-3.71 7.424l-.267 1.856a9.43 9.43 0 01-2.651 5.304 9.45 9.45 0 01-5.304 2.653l-1.855.267a13.217 13.217 0 00-7.425 3.71 13.195 13.195 0 00-3.712 7.425l-.265 1.855c-.256 1.8-1.07 3.49-2.27 4.854-.443-1.494-1.121-2.92-2.059-4.17l-1.125-1.5A9.427 9.427 0 0165.625 30a9.43 9.43 0 011.875-5.625l1.125-1.498A13.21 13.21 0 0071.25 15a13.2 13.2 0 00-2.625-7.875l-1.125-1.5a9.422 9.422 0 00-7.5-3.75 9.422 9.422 0 00-7.5 3.75l-1.125 1.5A13.2 13.2 0 0048.75 15a13.2 13.2 0 002.625 7.875l1.125 1.5A9.427 9.427 0 0154.375 30a9.427 9.427 0 01-1.875 5.625l-1.125 1.5c-.94 1.25-1.616 2.676-2.059 4.17-1.2-1.363-2.014-3.054-2.27-4.852l-.265-1.859a13.202 13.202 0 00-3.712-7.423 13.188 13.188 0 00-7.425-3.71l-1.855-.267a9.439 9.439 0 01-5.304-2.653 9.424 9.424 0 01-2.651-5.304l-.267-1.856a13.206 13.206 0 00-3.71-7.424 13.202 13.202 0 00-7.425-3.712l-1.856-.266A9.409 9.409 0 004.622 4.62a9.425 9.425 0 00-2.653 7.958l.266 1.856c.4 2.792 1.718 5.43 3.712 7.423a13.196 13.196 0 007.426 3.712l1.854.265a9.438 9.438 0 015.304 2.653 9.41 9.41 0 012.65 5.304l.266 1.857c.4 2.791 1.717 5.43 3.712 7.423a13.187 13.187 0 007.425 3.71l1.855.267a9.436 9.436 0 015.304 2.65 9.425 9.425 0 012.651 5.303l.265 1.858a13.244 13.244 0 003.712 7.423c.977.977 2.115 1.769 3.341 2.393l-.337.45A13.2 13.2 0 0048.75 75c0 .866.116 1.725.287 2.573-1.044-1.305-1.755-2.87-1.991-4.525l-.265-1.858a13.202 13.202 0 00-3.712-7.423 13.213 13.213 0 00-7.425-3.713l-1.855-.264a9.427 9.427 0 01-5.304-2.653 9.43 9.43 0 01-2.651-5.304l-.267-1.857a13.206 13.206 0 00-3.71-7.423 13.188 13.188 0 00-7.425-3.71l-1.856-.267a9.371 9.371 0 00-7.954 2.651 9.412 9.412 0 00-2.653 7.954l.266 1.857c.4 2.791 1.718 5.43 3.712 7.423a13.189 13.189 0 007.424 3.71l1.856.267a9.426 9.426 0 015.304 2.653 9.41 9.41 0 012.65 5.304l.266 1.856c.4 2.792 1.717 5.43 3.712 7.423a13.214 13.214 0 007.425 3.713l1.855.266c.727.103 1.427.323 2.107.593-.483.275-.973.541-1.421.879l-1.502 1.125c-3.22 2.419-8.025 2.42-11.248 0l-1.5-1.125c-4.511-3.386-11.24-3.384-15.748 0L5.623 86.25a9.42 9.42 0 00-3.748 7.5c0 2.934 1.4 5.74 3.75 7.5l1.5 1.125c4.511 3.386 11.24 3.384 15.748 0l1.504-1.125c3.22-2.419 8.025-2.42 11.248 0l1.5 1.123A13.197 13.197 0 0045 104.998c2.314 0 4.573-.626 6.572-1.785.298.156.6.302.91.435a10.85 10.85 0 001.235 2.77c-3.281 2.439-6.122 5.368-8.402 8.79a1.878 1.878 0 001.56 2.917h26.25a1.876 1.876 0 001.56-2.914c-2.28-3.422-5.12-6.35-8.402-8.79a10.92 10.92 0 00.874-1.73 13.294 13.294 0 002.117-1.05c4.325 2.07 9.752 1.623 13.601-1.264l1.504-1.125c3.22-2.419 8.025-2.42 11.248 0l1.5 1.123a13.197 13.197 0 007.875 2.625 13.2 13.2 0 007.873-2.625l1.504-1.125a9.425 9.425 0 003.746-7.5 9.418 9.418 0 00-3.75-7.5zM76.667 74.47l.264-1.855a9.43 9.43 0 012.651-5.304 9.436 9.436 0 015.305-2.652l1.854-.266a13.203 13.203 0 007.425-3.712 13.197 13.197 0 003.713-7.423l.266-1.857a9.423 9.423 0 012.649-5.304 9.452 9.452 0 015.305-2.653l1.856-.267a5.667 5.667 0 014.772 1.592 5.66 5.66 0 011.592 4.774l-.267 1.856a9.429 9.429 0 01-2.651 5.305 9.443 9.443 0 01-5.3 2.651l-1.858.266a13.202 13.202 0 00-7.425 3.713 13.2 13.2 0 00-3.711 7.423l-.266 1.856a9.43 9.43 0 01-2.652 5.305 9.436 9.436 0 01-5.304 2.65l-1.854.267c-2.794.4-5.43 1.718-7.425 3.71a13.196 13.196 0 00-3.713 7.427l-.264 1.853a9.435 9.435 0 01-2.651 5.304 9.375 9.375 0 01-1.03.876 10.921 10.921 0 00-1.13-4.313 11.355 11.355 0 01-1.193-5.05c0-1.87.486-3.723 1.37-5.367 2.249-.589 4.302-1.723 5.96-3.379a13.208 13.208 0 003.712-7.427zm-8.042-21.595c1.522-2.029 2.389-4.498 2.556-7.026a13.151 13.151 0 001.772-1.455 13.196 13.196 0 003.712-7.425l.264-1.854a9.43 9.43 0 012.652-5.304 9.436 9.436 0 015.304-2.652l1.854-.266a13.202 13.202 0 007.425-3.712 13.197 13.197 0 003.713-7.424l.266-1.856a9.419 9.419 0 012.65-5.304 9.446 9.446 0 015.304-2.653l1.856-.266a5.655 5.655 0 014.772 1.591 5.66 5.66 0 011.592 4.774l-.266 1.856a9.43 9.43 0 01-2.652 5.305 9.443 9.443 0 01-5.3 2.651l-1.858.266a13.203 13.203 0 00-7.425 3.713 13.2 13.2 0 00-3.711 7.423l-.266 1.856a9.43 9.43 0 01-2.651 5.304 9.436 9.436 0 01-5.305 2.652l-1.854.266c-2.794.4-5.43 1.718-7.425 3.71a13.195 13.195 0 00-3.713 7.427l-.264 1.853a9.436 9.436 0 01-2.651 5.304 9.436 9.436 0 01-2.652 1.842c-.44-1.103-.699-2.278-.699-3.471a9.43 9.43 0 011.875-5.625l1.125-1.5zm-14.25-13.5l1.125-1.498a13.205 13.205 0 002.625-7.875 13.2 13.2 0 00-2.625-7.875l-1.125-1.502A9.427 9.427 0 0152.5 15a9.43 9.43 0 011.875-5.625l1.125-1.5a5.656 5.656 0 014.5-2.25c1.76 0 3.443.842 4.5 2.25l1.125 1.5A9.427 9.427 0 0167.5 15a9.427 9.427 0 01-1.875 5.625l-1.125 1.5A13.2 13.2 0 0061.875 30a13.2 13.2 0 002.625 7.875l1.125 1.5A9.427 9.427 0 0167.5 45a9.427 9.427 0 01-1.875 5.625l-1.125 1.5A13.2 13.2 0 0061.875 60a13.2 13.2 0 002.625 7.875l1.125 1.5A9.427 9.427 0 0167.5 75a9.427 9.427 0 01-1.875 5.625l-.74.986a15.15 15.15 0 00-3.01 9.03c0 2.323.55 4.648 1.588 6.728a7.234 7.234 0 01-.448 7.228l-.268.403h-5.494l-.268-.399a7.234 7.234 0 01-.448-7.23 15.142 15.142 0 001.588-6.73 15.14 15.14 0 00-3.01-9.028l-.74-.988A9.427 9.427 0 0152.5 75a9.43 9.43 0 011.875-5.625l1.125-1.498a13.205 13.205 0 002.625-7.875 13.2 13.2 0 00-2.625-7.875l-1.125-1.502A9.427 9.427 0 0152.5 45a9.43 9.43 0 011.875-5.625zm-6.002 16.954l-.264-1.858a13.208 13.208 0 00-3.713-7.425 13.188 13.188 0 00-7.425-3.711l-1.854-.266a9.436 9.436 0 01-5.304-2.652 9.424 9.424 0 01-2.652-5.304l-.266-1.856a13.207 13.207 0 00-3.71-7.423 13.201 13.201 0 00-7.427-3.713l-1.855-.264a9.433 9.433 0 01-5.302-2.653 9.424 9.424 0 01-2.652-5.305l-.268-1.852a5.653 5.653 0 011.592-4.774 5.663 5.663 0 014.772-1.592l1.856.266a9.427 9.427 0 015.305 2.654 9.41 9.41 0 012.649 5.304l.266 1.856c.4 2.792 1.718 5.43 3.713 7.423a13.215 13.215 0 007.425 3.713l1.854.266a9.436 9.436 0 015.304 2.651 9.425 9.425 0 012.652 5.303l.264 1.858c.4 2.792 1.718 5.43 3.713 7.425a13.176 13.176 0 001.772 1.455c.168 2.528 1.033 4.995 2.555 7.022l1.127 1.498A9.427 9.427 0 0154.375 60c0 1.193-.259 2.368-.7 3.472a9.397 9.397 0 01-2.65-1.84 9.436 9.436 0 01-2.652-5.303zM35.117 79.676a9.438 9.438 0 01-5.304-2.653 9.424 9.424 0 01-2.652-5.304l-.266-1.856a13.206 13.206 0 00-3.71-7.424 13.202 13.202 0 00-7.426-3.712l-1.856-.266a9.436 9.436 0 01-5.302-2.652 9.424 9.424 0 01-2.652-5.304l-.266-1.856a5.653 5.653 0 011.592-4.774 5.66 5.66 0 014.772-1.592l1.856.266a9.436 9.436 0 015.304 2.652 9.41 9.41 0 012.65 5.304l.266 1.856c.4 2.792 1.718 5.43 3.713 7.423a13.214 13.214 0 007.425 3.713l1.854.264a9.427 9.427 0 015.304 2.653 9.43 9.43 0 012.652 5.303l.264 1.858A13.22 13.22 0 0047.047 81c1.48 1.476 3.295 2.548 5.273 3.184 1.314 1.888 2.055 4.157 2.055 6.457 0 1.744-.413 3.491-1.193 5.051a10.929 10.929 0 00-1.038 3.482 9.387 9.387 0 01-1.12-.937 9.436 9.436 0 01-2.65-5.303l-.265-1.858a13.203 13.203 0 00-3.713-7.423 13.188 13.188 0 00-7.425-3.71l-1.854-.267zm4.258 19.699l-1.5-1.125c-4.511-3.386-11.24-3.384-15.748 0l-1.504 1.125c-3.22 2.419-8.025 2.421-11.248 0l-1.5-1.125a5.648 5.648 0 01-2.25-4.5c0-1.76.84-3.444 2.248-4.5l1.504-1.125c3.22-2.419 8.025-2.42 11.248 0l1.5 1.123c4.511 3.386 11.24 3.384 15.748 0l1.504-1.123a9.293 9.293 0 012.728-1.393c1.211 1.367 2.033 3.067 2.29 4.877l.264 1.86c.388 2.692 1.642 5.225 3.515 7.19-2.913 1.017-6.315.582-8.799-1.284zm29.998 15H50.627a31.763 31.763 0 016.225-5.625h6.296a31.763 31.763 0 016.225 5.625zm42.754-16.125l-1.504 1.125c-3.219 2.419-8.025 2.421-11.248 0l-1.5-1.125c-4.511-3.386-11.24-3.384-15.748 0l-1.504 1.125c-2.314 1.738-5.432 2.239-8.205 1.476 1.532-1.855 2.578-4.103 2.921-6.493l.265-1.855a9.424 9.424 0 012.651-5.304c.08-.08.178-.145.263-.223.746.302 1.46.663 2.107 1.149l1.5 1.123c4.511 3.386 11.24 3.384 15.748 0l1.504-1.125c3.219-2.419 8.025-2.42 11.248 0l1.5 1.123a5.648 5.648 0 012.25 4.5 5.66 5.66 0 01-2.248 4.504z"/></svg>