<svg xmlns="http://www.w3.org/2000/svg"><path d="M96.285 4.647h-63.24a2.206 2.206 0 01-2.203-2.203 1.944 1.944 0 10-3.887 0 6.098 6.098 0 006.09 6.09h63.24c10.933 0 19.827 8.895 19.827 19.828 0 9.757-7.086 17.884-16.38 19.52 4.866-5.472 7.827-12.674 7.827-20.557v-4.147a6.097 6.097 0 00-6.09-6.09H45.486c-13.695 0-25.305 5.283-33.575 15.28C4.231 41.65 0 54.587 0 68.793 0 97.304 23.195 120.5 51.706 120.5h24.882a1.944 1.944 0 001.738-2.813l-3.756-7.513 3.822-9.557a1.943 1.943 0 00-2.552-2.516l-24.51 10.213c-13.619-.203-24.634-11.341-24.634-25.006 0-13.491 10.737-24.52 24.114-24.993l8.809 10.57c.33.395.51.896.51 1.41v10.94a1.944 1.944 0 103.888 0v-10.94a6.103 6.103 0 00-1.411-3.9l-6.75-8.098h5.307l8.823 10.588c.33.395.51.896.51 1.41v10.94a1.944 1.944 0 103.888 0v-10.94a6.103 6.103 0 00-1.411-3.9l-6.75-8.098h5.307l8.823 10.588c.33.395.51.896.51 1.41v10.94a1.944 1.944 0 103.889 0v-10.94a6.103 6.103 0 00-1.412-3.9l-6.75-8.098a30.813 30.813 0 0018.598-6.223l.06.003h1.037c13.076 0 23.715-10.639 23.715-23.715S109.361 4.647 96.285 4.647zm7.387 18.531v4.147c0 14.934-12.15 27.084-27.084 27.084H51.693a29.09 29.09 0 00-4.263.317v-33.75h54.039c1.214 0 2.203.987 2.203 2.202zm-60.13-2.16v34.567a28.808 28.808 0 00-8.693 4.265L14.555 35.283c.117-.146.232-.294.351-.437 7.115-8.6 16.985-13.354 28.636-13.829zm-18.225 74.06l-9.65 5.109C8.464 91.928 4.048 81.179 3.896 69.42l19.84 6.613a28.85 28.85 0 00-.927 7.275c0 4.19.898 8.174 2.51 11.771zm45.385 16.053l2.74 5.48H53.65v-5.054l19.414-8.089-2.428 6.072a1.943 1.943 0 00.066 1.591zm-20.94 1.01v4.431c-12.145-.488-23.136-5.53-31.315-13.458l8.695-4.603c4.78 7.695 13.073 12.992 22.62 13.63zM24.97 72.346L3.978 65.35c.525-10.158 3.377-19.444 8.216-26.82l19.66 23.798a29.018 29.018 0 00-6.885 10.02z"/><path d="M78.661 37.563a6.098 6.098 0 006.09-6.09 6.098 6.098 0 00-6.09-6.092 6.098 6.098 0 00-6.09 6.091 6.098 6.098 0 006.09 6.09zm0-8.294c1.215 0 2.203.988 2.203 2.203a2.205 2.205 0 01-2.203 2.203 2.206 2.206 0 01-2.203-2.203c0-1.215.988-2.203 2.203-2.203z"/></svg>