<svg xmlns="http://www.w3.org/2000/svg"><path d="M62.343 47.302c2.772 1.17 8.457 3.144 15.305 3.144 4.369 0 9.21-.804 14.067-3.132 12.873-6.17 21.648-20.99 26.083-44.05a2.443 2.443 0 00-2.23-2.897c-26.228-1.813-43.89 3.097-52.5 14.582-8.201 10.938-5.44 24.201-4.162 28.668-4.259 6.54-7.062 12.769-8.896 18.266-1.82-5.061-4.767-8.856-8.063-11.7.012-3.25-.665-11.053-6.858-16.706-6.514-5.947-16.93-7.566-30.96-4.81a2.442 2.442 0 00-1.85 3.153c4.956 15.205 11.828 24.07 20.425 26.352 1.518.403 2.994.574 4.408.574 5.534 0 10.085-2.621 12.38-4.248 5.003 4.705 7.544 11.104 7.544 19.111 0 .184.024.362.062.534-.66 4.606-.737 8.494-.615 11.39a15.808 15.808 0 00-7.993-2.157 15.916 15.916 0 00-13.496 7.516 14.747 14.747 0 00-2.375-.191c-8.078 0-14.65 6.571-14.65 14.649S14.542 120 22.62 120h70.807c8.078 0 14.649-6.572 14.649-14.65s-6.571-14.65-14.65-14.65c-2.95 0-5.811.906-8.212 2.527-2.594-8.555-10.568-14.735-19.866-14.735a20.669 20.669 0 00-14.013 5.44c-.05-3.532.235-8.37 1.5-14.027 1.382-6.172 4.125-14.061 9.509-22.603zm4.632-29.424C74.238 8.19 89.528 3.89 112.448 5.07c-4.251 19.858-11.915 32.576-22.799 37.819-9.89 4.764-20.06 1.953-24.507.26C69.026 37.74 74 32.147 80.375 26.622a2.442 2.442 0 10-3.198-3.69c-5.865 5.083-10.605 10.233-14.446 15.27-.809-5.235-.906-13.456 4.244-20.324zM22.398 46.741c.061.007 6.238.603 12.408 4.249.198.117.383.244.576.364-2.539 1.524-6.789 3.327-11.427 2.098-6.33-1.68-11.876-8.741-16.12-20.484 10.975-1.739 19.015-.37 23.925 4.083 3.155 2.86 4.446 6.571 4.965 9.477-6.973-3.942-13.745-4.636-13.885-4.65a2.441 2.441 0 10-.442 4.863zm29.507 44.075a15.801 15.801 0 0113.442-7.44c8.355 0 15.312 6.523 15.838 14.852a2.44 2.44 0 004.396 1.303 9.69 9.69 0 017.845-3.947c5.385 0 9.766 4.38 9.766 9.766 0 5.385-4.381 9.767-9.766 9.767H22.619c-5.385 0-9.766-4.382-9.766-9.767s4.38-9.766 9.766-9.766c.995 0 1.975.148 2.912.44a2.44 2.44 0 002.95-1.32 11.018 11.018 0 0110.008-6.445c3.382 0 6.526 1.523 8.626 4.18a2.427 2.427 0 002.155.916 2.45 2.45 0 001.105-.394 2.436 2.436 0 001.53-2.145z"/></svg>