<svg xmlns="http://www.w3.org/2000/svg"><path d="M44.286 82.548c-6.189-5.419-14.165-7.522-23.71-6.25a2.302 2.302 0 00-1.997 2.28c0 .59.082 14.582 7.232 26.498 6.834 11.389 17.298 13.022 26.53 14.465.898.14 1.793.28 2.678.427a2.314 2.314 0 001.866-.513c.516-.439.814-1.08.814-1.757 0-.956-.153-23.54-13.413-35.15zm-14.53 20.159c-4.952-8.254-6.174-17.917-6.477-22.068C30.515 80.1 36.545 81.893 41.242 86c9.186 8.03 11.255 22.882 11.72 28.979-9.003-1.405-17.498-2.76-23.205-12.272zm69.668-26.409c-9.544-1.274-17.52.831-23.71 6.25C62.454 94.158 62.3 116.742 62.3 117.7c0 .676.298 1.317.814 1.756a2.307 2.307 0 001.866.513c.886-.147 1.78-.286 2.678-.427 9.233-1.443 19.697-3.076 26.53-14.465 7.15-11.916 7.232-25.907 7.232-26.497a2.302 2.302 0 00-1.997-2.281zm-9.18 26.409c-5.707 9.512-14.203 10.867-23.206 12.272.466-6.098 2.534-20.948 11.72-28.979 4.15-3.63 9.344-5.456 15.48-5.456.812 0 1.64.033 2.485.097-.296 4.141-1.511 13.784-6.48 22.066zm-2.897-51.84c-6.452-.865-11.845.572-16.051 4.255-8.892 7.785-8.995 22.82-8.995 23.457 0 .676.298 1.318.814 1.756a2.307 2.307 0 001.866.514l1.733-.277c6.176-.964 13.178-2.057 17.814-9.784 4.76-7.936 4.816-17.248 4.816-17.64a2.302 2.302 0 00-1.997-2.281zM80.58 68.419c-3.305 5.51-8.226 6.594-13.508 7.437.43-4.292 1.94-12.619 7.254-17.27 2.547-2.231 5.75-3.355 9.55-3.355.242 0 .487.005.734.014-.285 2.934-1.183 8.431-4.03 13.174zm.435-38.325c-4.83-.642-8.87.44-12.036 3.21-6.601 5.781-6.678 16.86-6.678 17.328a2.303 2.303 0 002.68 2.27l1.24-.199c4.348-.68 9.758-1.525 13.242-7.331 3.509-5.848 3.55-12.708 3.55-12.997a2.303 2.303 0 00-1.998-2.28zm-5.499 12.91c-2.057 3.43-4.987 4.303-8.393 4.892.406-3.143 1.572-8.234 4.898-11.138 1.687-1.473 3.735-2.213 6.22-2.241-.265 2.142-.952 5.532-2.725 8.486zm-24.495-9.7c-3.166-2.773-7.212-3.853-12.036-3.21a2.302 2.302 0 00-1.997 2.28c0 .29.04 7.15 3.55 12.998 3.484 5.805 8.893 6.651 13.24 7.331l1.241.198a2.307 2.307 0 001.866-.514c.516-.437.814-1.08.814-1.756 0-.468-.077-11.546-6.678-17.327zm-6.536 9.7c-1.773-2.956-2.46-6.345-2.727-8.487 2.485.028 4.534.768 6.22 2.241 3.327 2.903 4.493 7.995 4.9 11.137-3.408-.588-6.336-1.462-8.393-4.892zm3.648 12.118c-4.207-3.683-9.61-5.114-16.051-4.255a2.302 2.302 0 00-1.997 2.281c0 .392.055 9.705 4.817 17.64 4.636 7.726 11.636 8.82 17.813 9.784l1.732.277a2.308 2.308 0 001.867-.514c.516-.437.813-1.08.813-1.756 0-.636-.102-15.671-8.995-23.457zM38.847 68.42c-2.846-4.743-3.746-10.24-4.03-13.174 4.136-.15 7.564.966 10.272 3.33 5.302 4.633 6.824 12.979 7.26 17.28-5.28-.844-10.197-1.928-13.502-7.436zM62.002 1.167C61.588.435 60.832.033 59.967 0a2.303 2.303 0 00-2 1.225c-.734 1.386-7.172 13.712-7.172 19.485 0 6.017 6.665 14.336 7.424 15.265a2.295 2.295 0 001.781.844c.61 0 1.195-.242 1.627-.675 5.028-5.028 7.578-10.22 7.578-15.434 0-6.631-6.466-18.24-7.203-19.543zM60.174 30.94c-2.267-3.196-4.776-7.585-4.776-10.23 0-2.67 2.383-8.564 4.652-13.357 2.072 4.212 4.552 10.043 4.552 13.357 0 3.326-1.487 6.759-4.428 10.23z"/></svg>