<svg width="495" height="325" fill="none" xmlns="http://www.w3.org/2000/svg"><path d="M440.698 203.589c4.358-.602 17.3-16.877 21.527-16.877 4.358 0 22.847 4.219 22.847.754 0-3.466 6.207-15.522 4.886-18.987-1.188-3.466-7.396-8.439-6.207-11.905 1.189-3.465 9.905-3.466 9.905-7.685 0-4.219-6.736-6.329-6.736-9.192 0-2.863 8.585-7.685 8.057-13.411-.661-5.576-8.057-6.329-15.98-11.302-8.056-4.973-15.98-2.863-23.508-7.083-7.395-4.219-22.847-1.356-22.847-4.219 0-2.863-9.905-11.904-12.282-16.877-2.509-4.973-10.433-2.11-15.451 1.356-5.019 3.466-9.245 4.973-14.131 1.356-4.887-3.465-9.245-9.192-13.603-7.082-4.358 2.11-12.282.754-10.433-6.329 1.849-7.082-8.056-22.453-12.282-24.562-4.358-2.11-17.3 1.356-20.338-5.576-3.037-7.082-8.584-12.658-6.207-17.63 2.509-4.973-.66-18.234-3.698-23.96-3.037-5.576-18.488-4.973-22.847-2.863-4.358 2.11-14.263-2.11-18.489.753-4.358 2.863-6.735 7.685-12.942 7.685-3.434 0-5.679-.452-7.66-3.616-6.603 3.466-17.828 4.068-17.828 4.068s-16.508 15.07-16.508 20.645c0 5.575-.793 15.069-4.887 10.397-4.094-4.671-21.394-4.671-25.488-1.808-4.094 2.863-10.697-11.302-18.093-6.63-7.395 4.671-17.3-6.63-18.093-1.808-.792 4.67-11.489.904-18.885-2.864-7.395-3.767-20.602 1.809-25.488-4.67-4.887-6.631-36.978-6.631-47.675-6.631-10.698 0-13.207 6.63-18.093 12.205-4.49 5.124-9.64 4.07-14.923 3.768.528 4.671 1.32 8.89 2.377 10.699 2.509 4.219 14.13 24.562 11.093 30.891-3.037 6.33-8.584 6.33-12.282 11.302-3.698 4.973-25.224 26.672-25.884 30.288-.66 3.466 3.697 18.987.66 21.85C9.244 140.903 0 155.67 0 161.246c0 5.575 6.735 13.411 12.282 15.521 2.377.904 3.83 2.109 4.49 3.616 4.358-.603 8.32-1.055 10.697-1.055 4.094 0 22.187 5.726 27.866 5.726 5.81 0 13.999 2.864 16.508 5.576 2.51 2.863 8.188.904 12.282-3.767 4.094-4.672 9.112-1.809 13.999-1.809 4.886 0 13.206-4.671 15.583-9.342 2.509-4.672 27.073-12.206 33.677-13.11 6.603-.904 16.508 14.014 22.186 14.014 5.811 0 16.376 4.671 19.678 16.877 3.301 12.206 13.206 27.275 17.3 31.946 4.094 4.672 6.603 16.878 6.603 20.645 0 3.767-8.98-.904-18.885-3.767-9.905-2.863-10.697 8.438-10.697 14.014 0 5.575-13.999 25.316-16.376 29.083-2.509 3.767 4.887 6.63 10.697 7.534 2.51.452 12.282-7.534 15.584-7.534 1.321 0 5.414 3.616 9.773 7.835-.925-14.616 1.716-13.863 13.206-23.808 11.886-10.247 13.207-29.535 23.772-31.946 10.697-2.411 15.187-7.987 30.77-5.124 15.584 2.863-7.791 14.014 2.906 20.645 10.697 6.63 43.581-1.809 45.298 7.534 1.585 9.343-37.77 18.836-36.978 23.508.792 4.671 20.998 9.342 27.998 14.466 6.999 5.123-2.114 19.74 1.188 24.411 3.302 4.672 13.999.904 22.583-6.178 8.585-7.082 15.584-4.671 26.677-13.11 11.094-8.439 34.073-.904 36.978-6.027 2.905-5.124-6.603-10.247-27.998-8.439-21.394 1.808-22.582-21.096-22.582-25.768 0-4.671 22.186-23.959 34.864-25.315 12.811-1.357 22.98-5.727 35.394-12.207 5.018-2.712 13.734-5.274 22.583-7.233-1.189-6.63-2.906-14.466.792-15.069z" fill="#509741"/><g clip-path="url(#clip0)"><path d="M280.327 15.178h0c16.67.34 31.661 9.237 40.102 23.805 8.63 14.892 8.865 32.777.633 47.848l-34.716 63.541-.001.002a2.404 2.404 0 01-.043.077l-.001.001c-1.47 2.556-4.102 4.081-7.044 4.081-2.942 0-5.574-1.524-7.045-4.081v-.001l-.026-.045a.491.491 0 01-.018-.033l-.001-.001-34.715-63.541c-8.234-15.07-7.998-32.956.632-47.848 8.442-14.568 23.432-23.465 40.102-23.805h0a52.333 52.333 0 012.141 0zm-1.071 62.792c-10.68 0-19.37-8.69-19.37-19.37 0-10.68 8.69-19.37 19.37-19.37 10.681 0 19.37 8.69 19.37 19.37 0 10.68-8.689 19.37-19.37 19.37zM259.251 58.6c0 11.031 8.974 20.005 20.005 20.005 11.032 0 20.005-8.974 20.005-20.005 0-11.031-8.974-20.005-20.005-20.005-11.031 0-20.005 8.974-20.005 20.005z" fill="#D9FFD1" stroke="#509741" stroke-width=".635"/><g clip-path="url(#clip1)" fill-rule="evenodd" clip-rule="evenodd"><path d="M257.88 83.376c-11.521-11.56-11.521-30.354 0-41.914 11.521-11.561 30.249-11.561 41.77 0 11.522 11.56 11.522 30.354 0 41.914-11.521 11.56-30.249 11.56-41.77 0z" fill="#7CA45C"/><path d="M255.104 86.112c-13.054-13.098-13.054-34.34 0-47.439 13.053-13.098 34.222-13.098 47.276 0 13.053 13.099 13.053 34.34 0 47.439-13.054 13.098-34.223 13.098-47.276 0z" fill="#669D5E"/><path d="M278.792 32.012c16.743 0 30.307 13.61 30.307 30.41s-13.564 30.411-30.307 30.411c-16.742 0-30.306-13.61-30.306-30.41s13.564-30.411 30.306-30.411zm0 2.22c-15.493 0-28.093 12.643-28.093 28.19 0 15.548 12.6 28.19 28.093 28.19 15.494 0 28.094-12.642 28.094-28.19 0-15.547-12.6-28.19-28.094-28.19z" fill="#fff"/><path d="M272.829 49.036s1.135-.228 1.476-1.538c.34-1.31.113-2.278-.454-3.132 0 0-1.646 1.538-1.987 2.563-.34 1.025.624 1.936.965 2.107zm-6.659 6.207s.681-.91.057-2.163c-.625-1.253-1.419-1.766-2.441-1.994 0 0-.227 2.278.227 3.246.511.968 1.816 1.025 2.157.911zm-3.725-1.478s.511-.684.057-1.652c-.454-.968-1.135-1.367-1.93-1.594 0 0-.17 1.765.171 2.505.397.74 1.475.798 1.702.74zm19.824-8.655s.908.627 2.044 0c1.191-.626 1.702-1.423 1.872-2.39 0 0-2.213-.115-3.121.34-.851.4-.851 1.71-.795 2.05zm-.423 13.438s.51.968 1.816.968c1.305 0 2.157-.513 2.781-1.31 0 0-1.873-1.14-2.895-1.14-1.021 0-1.589 1.14-1.702 1.482zm1.155 5.638s.227 1.082 1.476 1.424c1.305.341 2.213.114 3.008-.456 0 0-1.533-1.594-2.498-1.88-.908-.341-1.816.627-1.986.912zm3.522-1.426s.227 1.083 1.476 1.425c1.305.341 2.213.114 3.008-.456 0 0-1.533-1.594-2.498-1.88-.964-.34-1.816.57-1.986.912zm-3.51-14.462s1.021.854 2.497.171c1.475-.626 2.156-1.595 2.44-2.734 0 0-2.61-.341-3.746.114-1.135.456-1.248 1.994-1.191 2.45zm7.193 3.018s.511.91 1.759.854c1.249-.057 1.987-.513 2.554-1.31 0 0-1.816-1.025-2.781-.968-.908 0-1.475 1.082-1.532 1.424zm5.911 7.517s.284.797 1.249.911c1.021.114 1.646-.114 2.213-.626 0 0-1.305-1.082-2.043-1.196-.738-.114-1.305.683-1.419.91zm-.111 6.835s-.624.057-.964.798c-.284.74-.227 1.253.056 1.822 0 0 1.022-.797 1.249-1.31.284-.626-.17-1.196-.341-1.31zm-1.324-2.735s-.851.057-1.192 1.025c-.397.912-.283 1.652.114 2.335 0 0 1.362-.968 1.646-1.708.227-.74-.398-1.538-.568-1.652zm-2.032-3.247s.284.797 1.249.911c.965.114 1.646-.114 2.213-.627 0 0-1.305-1.081-2.043-1.195-.738-.114-1.305.683-1.419.91zm-4.38-5.806s.51.91 1.759.854c1.248-.057 1.986-.57 2.554-1.31 0 0-1.816-1.025-2.781-.968-.965 0-1.476 1.139-1.532 1.423zm-3.007 2.335s.511.911 1.76.854c1.248-.056 1.986-.57 2.553-1.31 0 0-1.816-1.025-2.78-.968-.909 0-1.476 1.083-1.533 1.424zm-13.842-10.88s.567-.342.511-1.196c-.057-.854-.398-1.31-.965-1.708 0 0-.625 1.253-.568 1.879.057.683.795 1.025 1.022 1.025zm7.272 9.172s.284-.627-.227-1.31c-.51-.683-1.078-.911-1.702-.968 0 0 .113 1.424.51 1.936.398.57 1.249.456 1.419.342zm-2.911-1.369s.454-.512.114-1.31c-.341-.797-.795-1.139-1.419-1.31 0 0-.227 1.367 0 1.994.284.57 1.135.683 1.305.626zm-14.145 9.169s.057-.683-.681-1.139c-.738-.398-1.362-.398-1.93-.17 0 0 .681 1.253 1.249 1.594.511.285 1.192-.114 1.362-.285zm8.46-5.924s.681-.912.057-2.108c-.624-1.196-1.419-1.708-2.384-1.993 0 0-.17 2.221.227 3.132.454.968 1.76 1.025 2.1.968zm9.709-5.238s-1.192.57-2.441-.455c-1.248-1.025-1.646-2.107-1.646-3.303 0 0 2.611.341 3.576 1.139.965.74.681 2.278.511 2.62zm-11.81 8.032s-.227 1.31-1.759 1.765c-1.532.456-2.668.228-3.689-.455 0 0 1.759-1.994 2.894-2.392 1.192-.399 2.327.683 2.554 1.082zm-4.366-1.939s-.057 1.082-1.248 1.595c-1.192.513-2.157.399-3.008-.057 0 0 1.248-1.765 2.156-2.221.852-.399 1.873.399 2.1.683zm3.309 7.005s-.057 1.082-1.249 1.595c-1.192.512-2.157.399-3.008-.057 0 0 1.249-1.766 2.157-2.221.908-.399 1.873.398 2.1.683zm3.886-.796s.284 1.025-.681 1.937c-.965.91-1.873 1.082-2.894.968 0 0 .624-2.107 1.305-2.79.738-.741 1.986-.285 2.27-.115zm-10.763-8.2s-.114.683-.908.968c-.795.228-1.419.114-1.93-.228 0 0 .908-1.082 1.532-1.253.625-.227 1.192.342 1.306.513zm1.706 9.849s-.17.854-1.191 1.195c-1.022.342-1.76.171-2.441-.284 0 0 1.192-1.367 1.987-1.595.737-.285 1.532.456 1.645.684zm25.136-13.379s-.738-.513-.568-1.595c.17-1.082.681-1.651 1.362-2.107 0 0 .681 1.652.568 2.506-.057.797-1.079 1.139-1.362 1.196zm7.152 5.295s-.341-.797.34-1.652c.681-.854 1.419-1.082 2.214-1.082 0 0-.284 1.766-.795 2.45-.454.626-1.475.398-1.759.284zm-3.012.682s-.341-.798.34-1.652c.681-.854 1.419-1.082 2.214-1.082 0 0-.284 1.765-.795 2.449-.511.57-1.532.398-1.759.285zm5.56-1.482s.114-.912 1.136-1.253c1.021-.399 1.759-.228 2.497.17 0 0-1.135 1.424-1.873 1.71-.795.284-1.589-.4-1.76-.627zm1.073 8.83s.568-.342 1.249.114c.681.456.908.968.965 1.594 0 0-1.362-.056-1.873-.398-.511-.342-.397-1.14-.341-1.31zm-1.347-3.133s.737-.512 1.702-.057c.965.513 1.419 1.139 1.589 1.993 0 0-1.816.114-2.554-.227-.794-.342-.794-1.424-.737-1.709zm-15.722-18.85s-.738.74-1.93.284c-1.192-.455-1.759-1.139-2.1-2.05 0 0 2.043-.398 3.008-.114.908.285 1.078 1.538 1.022 1.88zm.355 3.757s-.794.74-2.043.285c-1.248-.456-1.873-1.196-2.156-2.108 0 0 2.156-.455 3.121-.113.965.284 1.135 1.594 1.078 1.936zm3.221 7.066s-.965-.57-.851-1.88c.056-1.31.624-2.107 1.418-2.676 0 0 1.022 1.936.965 2.961 0 1.025-1.192 1.538-1.532 1.595zm-13.977-6.666s-.341 1.026-1.703 1.196c-1.305.171-2.156-.227-2.894-.91 0 0 1.703-1.368 2.724-1.538.965-.171 1.759.91 1.873 1.252zm1.022 3.19s-.341 1.025-1.703 1.196c-1.305.17-2.156-.228-2.894-.911 0 0 1.702-1.367 2.724-1.538 1.022-.114 1.759.968 1.873 1.253zm4.961 7.518s-.737.797-1.986.456c-1.249-.342-1.93-1.026-2.384-1.937 0 0 2.1-.626 3.065-.398 1.022.284 1.305 1.537 1.305 1.879zm.806 4.441s-1.022.4-1.987-.512c-.965-.911-1.248-1.822-1.192-2.79 0 0 2.157.455 2.895 1.138.794.627.454 1.88.284 2.164z" fill="#fff"/><path d="M260.169 63.217c3.972.91 7.889-2.165 12.145-1.197-1.589-4.1-4.483-2.904-7.435-5.125-1.135-.854-2.781-.512-3.859-1.424-.965-.797-1.703-1.765-2.497-2.733 1.702.683 2.894 1.936 4.597 2.449 1.986.626 3.746 1.366 5.846 1.765 4.483.911 4.994 6.492 7.661 9.567 1.646-3.018 1.646-8.2-.964-10.421-2.271-1.937-3.746-2.107-4.143-5.467-.114-1.082-1.987-6.606-3.065-7.062 2.383 1.025 2.837 3.816 3.632 6.094.965 2.904 2.157 3.018 4.54 4.726 3.406 2.45 3.179-2.392 4.314-4.442 1.305-2.449-.284-5.809.397-8.713-.114 2.848 1.703 5.638.965 8.429-.114.398-3.292 7.859-.965 6.435 2.27-1.424 4.654-2.506 6.697-4.328.908-.798 1.135-1.994 2.043-2.734.341-.285 2.213-1.082 2.384-1.367-.511 1.253-2.327 1.652-2.838 3.019-.681 1.879-2.497 3.417-4.37 4.27-2.667 1.197-6.583 3.987-4.427 7.404.341.513 6.924-2.961 8.173-3.246 3.689-.74 7.037-3.303 10.953-1.082-2.837-1.594-8.399.684-10.783 2.392 1.986 1.139 3.973-.114 5.959 1.538 1.873 1.537 2.724 4.726 2.157 7.004-.397-2.62-.738-5.809-3.519-7.061-1.589-.684-3.008.114-4.597-.513-1.305-.512-2.951.057-4.143.74-2.554 1.481-3.462 2.506-4.767 5.126-1.079 2.107-.454 6.036.113 8.827.057.342.114.626.227.911.568.228 1.135.513 1.703 1.025 2.156 1.766 6.016-.17 6.981 3.702-2.044-1.595-4.257-1.993-6.868-1.765-.624.056-3.745-1.994-2.724.626.624 1.765 3.405.797 3.916 2.904-1.816-.626-5.902-.341-5.902-3.189 0-2.676-6.584 1.196-7.435 1.709-.17-2.62 3.802-3.417 5.562-4.328l.681-.342c.227-2.107.624-4.1.17-6.208-.454-2.05-2.781-7.232-4.71-8.086-4.654-1.937-9.308 2.676-14.132-.399.681.228 1.532.342 2.327.57z" fill="#fff"/></g></g><defs><clipPath id="clip0"><path fill="#fff" transform="translate(208.725 14.85)" d="M0 0h140v140H0z"/></clipPath><clipPath id="clip1"><path fill="#fff" transform="translate(245.123 28.85)" d="M0 0h67.2v67.2H0z"/></clipPath></defs></svg>