<svg width="485" height="401" fill="none" xmlns="http://www.w3.org/2000/svg"><path d="M196.341 1.58l-1.305.66 35.862 70.952 1.305-.66L196.341 1.58z" fill="#0A6A28"/><path d="M231.957 58.825s-1.289-6.743-5.825-5.206c-4.537 1.537-1.091 9.048-1.091 9.048l6.916-3.842z" fill="#F4AE87"/><path d="M138.454 148.661c4.734-10.56 5.676-12.543 4.908-18.641-.471-3.793-2.752-5.999-6.346-7.016-1.711-.471-3.595-1.487-7.016.372-12.047 6.52-4.363 18.022-5.379 22.31-.694 2.876-1.487 5.95-3.495 8.131-5.082 5.553-9.767 12.097-10.189 19.683-.396 6.916 4.388 14.229 11.627 16.237 6.544 1.809 22.657-.769 22.756-15.915.099-14.105-9.172-20.005-6.866-25.161z" fill="#1B1B1B"/><path d="M480.817 123.574L309.102 91.125c-4.115-.768-7.363 3.396-5.627 7.19l10.163 22.061c1.19 2.579.05 5.628-2.528 6.817L2.98 269.26a5.131 5.131 0 00-2.504 6.817l55.9 121.294a5.131 5.131 0 006.817 2.504l308.13-142.067c2.578-1.19 5.627-.05 6.817 2.504l10.163 22.062c1.76 3.793 7.041 4.016 9.123.397l86.861-151.611c1.81-3.025 0-6.916-3.47-7.586z" fill="#509741"/><path d="M64.572 167.361l-9.603 5.224 5.462 10.039 9.602-5.225-5.461-10.038z" fill="#F4AE87"/><path d="M154.715 267.401l2.231 5.33 17.898-7.536s-.323-4.239-6.991-2.702a865.79 865.79 0 01-9.717 2.206l-3.421 2.702z" fill="#1B1B1B"/><path d="M35.032 253.271s1.686 6.47-2.875 7.834c-4.562 1.388-6.123-6.743-6.123-6.743l8.998-1.091z" fill="#F4AE87"/><path d="M142.32 280.168l1.785 5.478 18.468-5.999s.025-4.264-6.718-3.272c-6.767.991-9.866 1.388-9.866 1.388l-3.669 2.405z" fill="#1B1B1B"/><path d="M140.237 226.499l-38.696-16.782-18.32 10.064-14.055-10.857c-1.165 4.734 2.157 16.46 2.182 17.377 0 0-1.091 8.552 5.652 15.815 7.808 8.404 38.15 14.676 38.15 14.676-2.082.173 9.99-11.23 9.99-11.23s-29.326-9.37-28.954-12.94c.199-1.983 2.727-2.776 3.57-2.429l30.937 6.916s2.652 8.998 7.635 14.551c7.982 8.875 16.758 16.51 16.758 16.51l8.725-4.611-23.574-37.06z" fill="#B48854"/><path d="M50.13 184.506c7.313 6.52 15.94 5.652 7.536 17.278-7.065 9.767-18.121 17.749-19.36 20.625-1.24 2.9-4.339 28.16-4.339 28.16l-8.8.496.67-29.127c.222-2.132.644-3.272 1.264-4.512l13.187-18.988 9.842-13.932z" fill="#976F41"/><path d="M36.44 250.431l-12.18.631.257 4.976 12.18-.631-.257-4.976z" fill="#51381B"/><path d="M88.18 187.456c-9.47-2.528-21.963-.892-14.873-13.386 6.643-11.676 12.568-17.179 12.37-20.327-.199-3.149-6.793-22.112-6.793-22.112l7.635-4.413 6.173 14.527c.768 2.008 4.115 9.073 4.115 10.436 0 0-3.198 14.055-4.388 18.765-1.14 4.462-4.239 16.51-4.239 16.51z" fill="#976F41"/><path d="M73.306 170.624l-19.98 10.883c-4.76 2.578-6.247 8.701-3.223 13.187l21.245 31.631 30.168-16.41-15.419-34.928c-2.156-4.908-8.056-6.916-12.79-4.363z" fill="#976F41"/><path d="M64.003 175.787l-1.285.699 22.927 42.141 1.285-.699-22.927-42.141z" fill="#51381B"/><path d="M65.77 177.268l-3.172 1.735 12.543 28.284 5.701 2.901a.835.835 0 001.215-.67l.62-6.346-16.906-25.904z" fill="#fff"/><path d="M68.076 177.714a3.75 3.75 0 01-1.487 5.082 3.75 3.75 0 01-5.082-1.488 3.75 3.75 0 011.488-5.082 3.75 3.75 0 015.081 1.488z" fill="#fff"/><path d="M62.993 176.226s-.793 9.99-1.958 11.007c-1.14.991-7.189-5.9-7.189-5.9l9.147-5.107zm.002 0s8.825 4.76 10.287 4.339c1.463-.422-1.066-9.247-1.066-9.247l-9.221 4.908z" fill="#51381B"/><path d="M63.69 156.023c2.653 4.884 2.504 14.056-2.404 16.708-4.884 2.653-12.668-2.156-15.32-7.065-2.653-4.883-.843-11.031 4.04-13.683 4.884-2.653 11.007-.843 13.684 4.04z" fill="#F9BB9B"/><path d="M55.88 173.227l-2.602-4.809s-5.404-1.587-5.578-4.71c-.173-3.099 4.066-2.206 4.066-2.206s17.154-8.999 17.179-12.469c.024-2.727-20.278-2.256-22.46-.694-2.18 1.561-9.89 14.427-9.122 16.856.744 2.43 11.378 7.016 11.378 7.016l7.14 1.016z" fill="#1B1B1B"/><path d="M85.875 127.416s-1.289-6.742-5.825-5.205c-4.537 1.537-1.09 9.048-1.09 9.048l6.915-3.843z" fill="#F4AE87"/><path d="M86.582 125.533l-10.827 5.613 2.293 4.424 10.827-5.614-2.293-4.423z" fill="#51381B"/><path d="M183.966 240.703c5.727 9.966 7.883 15.146 7.883 15.146l7.437-2.33s-9.643-35.845-14.08-37.927c-.893-.422-2.851-.422-5.429-.174-1.611 4.512.446 18.741 4.189 25.285z" fill="#F9BB9B"/><path d="M213.491 208.775c-1.041-2.95-2.975-5.528-5.503-7.412l-33.515-19.212-14.18 3.471-10.857-13.213c-2.107 4.189-1.512 15.915-1.686 16.757 0 0 20.872 16.708 21.938 11.28.372-1.884 3.173-2.008 3.868-1.513l29.523 11.874s1.29 11.453 4.785 17.749c5.577 10.04 9.42 17.923 9.42 17.923l8.8-.868-12.593-36.836z" fill="#F9BB9B"/><path d="M217.085 245.711l.942 5.478 18.418-3.198s.62-4.065-5.974-4.04c-6.569.024-13.386 1.76-13.386 1.76z" fill="#1B1B1B"/><path d="M90.634 125.656s-1.115-6.494-5.503-5.106-1.19 8.701-1.19 8.701l6.693-3.595z" fill="#F4AE87"/><path d="M191.104 254.312l1.488 6.223 18.418-3.198s.62-4.066-5.974-4.041c-6.569.025-13.932 1.016-13.932 1.016z" fill="#1B1B1B"/><path d="M137.115 174.367c3.074-8.924 9.866-13.287-2.677-19.063-10.536-4.858-23.55-6.346-25.955-8.18-2.404-1.834-16.906-21.591-16.906-21.591l-7.635 3.718 14.279 24.145c1.19 1.685 2.082 2.454 3.173 3.197l20.004 9.718 15.717 8.056z" fill="#509741"/><path d="M92.404 122.692l-10.507 5.205 2.123 4.287 10.507-5.205-2.123-4.287z" fill="#0A6A28"/><path d="M152.433 93.505s-4.685-4.66-1.016-7.437c3.644-2.801 7.808 4.016 7.808 4.016l-6.792 3.42z" fill="#F4AE87"/><path d="M165.646 159.494c-9.073-2.603-16.534.446-14.08-13.138 2.057-11.428 8.329-22.93 8.18-25.955-.124-3.024-7.982-26.227-7.982-26.227l7.437-4.115 11.577 25.558c.694 1.934.818 3.123.793 4.437l-3.52 21.963-2.405 17.477z" fill="#509741"/><path d="M159.259 87.642l-10.291 5.617 2.292 4.2 10.291-5.618-2.292-4.2z" fill="#0A6A28"/><path d="M133.072 139.34l10.709-.124 5.082 9.767-9.346 4.859-6.445-14.502z" fill="#F4AE87"/><path d="M178.067 181.358l-30.317 7.833s1.264 10.139 3.941 16.262c4.586 10.486 13.758 6.396 18.072 9.891 5.577 4.511 1.264 15.518 4.933 14.427 5.9-1.76 30.02-17.972 39.514-23.599 2.628-1.562-2.454-13.362-7.834-14.304-9.667-1.685-12.692-.718-21.343-5.825-4.636-2.727-6.966-4.685-6.966-4.685z" fill="#74D460"/><path d="M151.64 143.059l-19.435 10.114c-4.611 2.404-10.139 8.403-7.313 12.766l21.269 16.113 2.578 14.576 29.326-15.245-10.56-11.081-2.281-24.095c-2.008-4.76-8.998-5.528-13.584-3.148z" fill="#509741"/><path d="M146.257 151.32l-1.303.664 23.381 45.902 1.303-.664-23.381-45.902z" fill="#0A6A28"/><path d="M143.113 128.284c2.479 4.76 4.289 12.99-.471 15.469-4.759 2.478-14.278-1.736-16.757-6.495-2.479-4.76-.62-10.635 4.139-13.089 4.76-2.479 10.61-.62 13.089 4.115z" fill="#F9BB9B"/><path d="M145.272 128.214c2.479 4.76 1.984 13.262-2.602 16.039-4.785 2.9-12.172-2.058-14.626-7.065-2.355-4.809-.62-10.635 4.14-13.089 4.759-2.479 10.609-.619 13.088 4.115z" fill="#F9BB9B"/><path d="M135.305 144.695l-2.429-4.661s-5.157-1.636-5.281-4.635c-.123-3 3.967-2.058 3.967-2.058s16.683-8.354 16.757-11.7c.075-2.628-19.484-2.529-21.591-1.066-2.107 1.462-9.767 13.708-9.098 16.063.669 2.355 10.808 6.966 10.808 6.966l6.867 1.091z" fill="#1B1B1B"/><path d="M125.141 245.562l23.897 31.829-5.9 4.933s-11.379-6.123-19.237-13.064c-7.858-6.916-9.097-13.237-9.097-13.237l-.769-9.246 11.106-1.215z" fill="#B48854"/><path d="M209.654 97.521l-9.602 5.224 5.461 10.039 9.603-5.225-5.462-10.038z" fill="#F4AE87"/><path d="M299.807 197.57l2.231 5.33 17.897-7.536s-.322-4.239-6.99-2.702a872.562 872.562 0 01-9.717 2.206l-3.421 2.702z" fill="#1B1B1B"/><path d="M207.589 171.69s5.181 3.991 1.934 7.189c-3.248 3.198-8.181-2.975-8.181-2.975l6.247-4.214z" fill="#F4AE87"/><path d="M287.412 210.336l1.785 5.479 18.468-5.999s.025-4.264-6.718-3.272c-6.767.991-9.866 1.388-9.866 1.388l-3.669 2.404z" fill="#1B1B1B"/><path d="M285.328 156.693l-38.696-16.783-18.319 10.065-14.056-10.858c-1.14 4.735 2.157 16.46 2.182 17.377 0 0 .347 10.09 6.693 17.7 4.388 5.255 37.109 12.791 37.109 12.791-2.082.174 9.99-11.229 9.99-11.229s-29.325-9.371-28.953-12.94c.198-1.984 2.726-2.777 3.569-2.43l30.937 6.892s2.653 8.998 7.635 14.551c7.982 8.874 16.758 16.509 16.758 16.509l8.725-4.61-23.574-37.035z" fill="#416397"/><path d="M196.757 113.014c8.28-4.388 13.635-4.66 11.701 8.899-1.611 11.403-10.882 20.352-10.659 23.352.248 2.999 8.874 25.706 8.874 25.706l-7.214 4.363-12.419-24.913c-.768-1.884-.917-3.049-.942-4.363.025 0 5.9-30.515 10.659-33.044z" fill="#2B4873"/><path d="M207.823 169.187l-9.988 5.951 2.436 4.089 9.988-5.951-2.436-4.089z" fill="#192E4D"/><path d="M233.272 117.625c-9.469-2.529-21.963-.893-14.874-13.386 6.644-11.676 12.569-17.18 12.37-20.328-.198-3.148-6.792-22.111-6.792-22.111l7.635-4.413 6.173 14.527c.768 1.983 4.115 9.072 4.115 10.436 0 0-3.173 14.055-4.388 18.765-1.14 4.462-4.239 16.51-4.239 16.51z" fill="#2B4873"/><path d="M218.398 100.818l-19.98 10.882c-4.76 2.578-6.247 8.701-3.223 13.188l21.245 31.631 30.168-16.41-15.419-34.928c-2.181-4.934-8.081-6.941-12.791-4.363z" fill="#2B4873"/><path d="M207.582 103.198l-1.285.699 26.939 49.516 1.285-.699-26.939-49.516z" fill="#002245"/><path d="M210.862 107.461l-3.173 1.735 12.544 28.285 5.701 2.925a.835.835 0 001.215-.669l.62-6.346-16.907-25.93z" fill="#fff"/><path d="M213.168 107.883a3.749 3.749 0 01-1.487 5.081 3.75 3.75 0 01-5.082-1.487 3.75 3.75 0 011.487-5.082 3.75 3.75 0 015.082 1.488z" fill="#fff"/><path d="M208.086 106.395s-.794 9.99-1.959 11.007c-1.14 1.016-7.189-5.9-7.189-5.9l9.148-5.107zm0 0s8.825 4.76 10.288 4.338c1.462-.421-1.066-9.246-1.066-9.246l-9.222 4.908z" fill="#192E4D"/><path d="M208.78 86.217c2.652 4.883 2.503 14.055-2.405 16.708-4.883 2.652-12.667-2.157-15.32-7.065-2.652-4.884-.843-11.031 4.041-13.684 4.883-2.677 11.006-.867 13.684 4.04z" fill="#F9BB9B"/><path d="M200.971 103.396l-2.603-4.81s-5.404-1.586-5.578-4.71c-.173-3.098 4.066-2.206 4.066-2.206s17.154-8.998 17.178-12.468c.025-2.727-20.277-2.256-22.459-.695-2.181 1.562-9.89 14.428-9.122 16.857.744 2.43 11.378 7.015 11.378 7.015l7.14 1.017z" fill="#1B1B1B"/><path d="M270.233 175.756l23.896 31.829-5.9 4.933s-11.378-6.123-19.236-13.064c-7.858-6.916-9.098-13.237-9.098-13.237l-.768-9.247 11.106-1.214z" fill="#416397"/><path d="M232.636 56.481l-9.988 5.952 2.436 4.089 9.988-5.952-2.436-4.089z" fill="#192E4D"/><path d="M245.418 7.263c.396-.47.074-1.19-.546-1.19l-46.256.15c-.769-.125-1.364.668-1.017 1.363l14.8 29.796 2.007 4.066a.963.963 0 001.711.024l29.301-34.209z" fill="#509741"/><path d="M197.278 1.71c0 .942-.769 1.71-1.711 1.71-.942 0-1.71-.768-1.71-1.71s.768-1.71 1.71-1.71 1.711.768 1.711 1.71z" fill="#0A6A28"/></svg>