<svg width="485" height="446" fill="none" xmlns="http://www.w3.org/2000/svg"><path d="M377.536 418.625v7.384h-24.784s-1.734-5.172 6.876-6.637c8.61-1.465 12.527-2.212 12.527-2.212l5.381 1.465zm35.786 0v7.384h-24.785s-1.734-5.172 6.877-6.637c8.61-1.465 12.526-2.212 12.526-2.212l5.382 1.465z" fill="#1B1B1B"/><path d="M349.762 352.164l15.576 66.311 12.408 1.734-7.206-67.477-20.778-.568zm35.666.001l16.413 66.011 11.54 2.033-8.281-75.668-19.672 7.624z" fill="#F9BB9B"/><path d="M434.339 301.519s-4.993 8.192 1.136 10.853c6.129 2.661 9.627-8.371 9.627-8.371l-10.763-2.482z" fill="#F4AE87"/><path d="M430.065 203.847c-11.899 6.816-23.469 5.082-15.277 23.409 6.876 15.397 19.701 29.448 20.568 33.783.867 4.305-2.152 39.763-2.152 39.763l11.899 3.229 7.444-40.032c.329-2.96.06-4.664-.419-6.518l-12.586-29.777-9.477-23.857z" fill="#509741"/><path d="M446.058 307.439l-15.636-4.156 1.764-6.726 15.636 4.155-1.764 6.727z" fill="#0A6A28"/><path d="M288.414 242.324s-9.508-2.751-10.494 4.066c-1.017 6.816 10.912 7.325 10.912 7.325l-.418-11.391z" fill="#F4AE87"/><path d="M384.502 211.71c-9.985-9.986-7.832-25.592-23.857-12.497-13.484 11.002-27.595 31.152-31.661 33.155-4.066 2.033-40.151 8.611-40.151 8.611v12.736l41.885-3.409c3.05-.478 4.664-1.196 6.368-2.182l26.25-20.569 21.166-15.845z" fill="#509741"/><path d="M386.372 181.692l-1.712 17.495 16.721 1.636 1.713-17.495-16.722-1.636z" fill="#E8A181"/><path d="M285.664 255.598l-.06-16.682 7.175-.06.06 16.682-7.175.06z" fill="#0A6A28"/><path d="M378.132 192.068l34.8 3.408c8.251.807 20.03 6.398 18.446 14.56l-21.914 36.503 4.843 23.14-52.499-5.142 9.059-22.691-10.942-37.042c.089-8.252 9.985-13.544 18.207-12.736z" fill="#509741"/><path d="M391.282 201.102l-7.325 81.887 1.935.173 7.326-81.887-1.936-.173z" fill="#0A6A28"/><path d="M379.748 164.144c-.867 8.879 5.083 22.243 13.932 23.11 8.879.867 17.28-11.091 18.147-19.941.867-8.879-5.62-16.742-14.47-17.639-8.849-.867-16.742 5.621-17.609 14.47z" fill="#F9BB9B"/><path d="M405.729 195.536l-1.346-19.015s5.98-5.62 3.259-9.806c-2.511-3.857-5.77.957-5.77.957s-38.148.687-40.361-4.425c-1.734-4.006 33.335-21.286 37.491-20.36 4.156.927 23.558 15.098 23.947 19.104.419 4.037-12.347 17.43-12.347 17.43l-4.873 16.115z" fill="#1B1B1B"/><path d="M414.279 269.679l-52.499-5.142-28.312 87.627 95.131 8.073-14.32-90.558z" fill="#74D460"/><path d="M290.945 386.535c13.517-32.63-1.978-70.039-34.609-83.555-32.63-13.517-70.039 1.979-83.556 34.609-13.516 32.63 1.979 70.039 34.61 83.556 32.63 13.516 70.039-1.979 83.555-34.61z" fill="#0A6A28"/><path d="M231.827 85.86L124.965 192.723l106.862 106.862L338.69 192.723 231.827 85.86z" fill="#509741"/><path d="M345.757 41.149H117.914v46.55h227.843v-46.55z" fill="#74D560"/><path d="M78.942 144.572l-5.73 17.156 16.39 5.475 5.73-17.156-16.39-5.475z" fill="#F4AE87"/><path d="M30.556 360.206l.12 9.119-30.465.448s-2.213-6.338 8.34-8.341c10.525-1.973 15.368-2.96 15.368-2.96l6.637 1.734zm54.171-1.016l.12 9.119 29.986-.18s2.033-6.427-8.641-8.072c-10.673-1.674-15.546-2.511-15.546-2.511l-5.92 1.644z" fill="#1B1B1B"/><path d="M113.726 75.859s10.703-1.644 8.551-8.88c-2.153-7.234-14.231-2.242-14.231-2.242l5.68 11.122z" fill="#F4AE87"/><path d="M83.022 236.913l-52.678-8.611-17.22 66.192.956 66.042 16.503-.24s5.65-20.509 6.1-43.709c.119-5.381-1.107-20.06-1.107-20.06l17.31-37.042a3.739 3.739 0 013.319-2.153h.06a3.673 3.673 0 013.378 2.063l37.79 33.454s-8.282 8.222-10.734 27.266c-2.391 18.716-1.883 39.404-1.883 39.404l16.503-.239 19.014-73.965-37.311-48.402z" fill="#416397"/><path d="M98.332 164.144l-34.083-11.391c-8.102-2.72-16.772 2.153-18.715 10.464l-13.693 58.628 51.452 17.19 23.768-55.428c3.349-7.803-.687-16.802-8.73-19.463z" fill="#002245"/><path d="M40.93 181.604c14.53 5.321 14.978-8.82 18.924-16.294 8.91-16.862 15.008-56.983 18.118-60.87 3.109-3.856 35.965-27.056 35.965-27.056l-5.889-12.647L67.986 87.46c-2.81 1.883-4.096 3.348-5.321 5.112 0 0-14.052 23.768-16.593 32.558-3.917 13.603-5.142 56.475-5.142 56.475z" fill="#2B4873"/><path d="M110.341 61.414l-7.11 3.357 8.219 17.41 7.111-3.356-8.22-17.41z" fill="#192E4C"/><path d="M143.205 98.401s-4.844-9.686 2.302-12.108c7.145-2.422 10.045 10.344 10.045 10.344l-12.347 1.764z" fill="#F4AE87"/><path d="M94.894 199.422c-7.295-13.662-19.403-18.984-.569-31.601 15.846-10.613 33.903-18.057 37.312-21.645 3.408-3.617 12.736-45.204 12.736-45.204l14.38-1.913-6.428 52.08c-1.495 3.02-2.75 4.515-4.335 5.979l-29.747 25.203-23.35 17.101z" fill="#2B4873"/><path d="M158.479 93.733l-18.809 4.116 1.681 7.681 18.809-4.116-1.681-7.681z" fill="#192E4C"/><path d="M98.33 164.144l-34.082-11.391c-8.102-2.72-16.772 2.153-18.716 10.464l-15.994 66.192 55.13 9.477 22.422-55.279c3.318-7.803-.718-16.802-8.76-19.463z" fill="#2B4873"/><path d="M80.268 158.255l-24.899 74.649 1.843.615 24.9-74.649-1.844-.615z" fill="#2B4873"/><path d="M84.278 162.589l-5.411-1.793-19.164 44.964 2.78 9.717a1.338 1.338 0 002.093.687l8.013-6.129 11.69-47.446z" fill="#fff"/><path d="M86.253 165.699a5.924 5.924 0 01-7.474 3.737 5.923 5.923 0 01-3.737-7.474c1.016-3.08 4.395-4.754 7.474-3.737 3.08 1.046 4.754 4.394 3.737 7.474z" fill="#fff"/><path d="M82.515 158.225s-12.407 9.836-14.83 9.596c-2.39-.239-.896-14.649-.896-14.649l15.726 5.053z" fill="#192E4C"/><path d="M82.484 158.224s4.007 15.307 6.07 16.563c2.062 1.256 9.536-11.181 9.536-11.181l-15.606-5.382z" fill="#192E4C"/><path d="M107.447 136.819c-2.78 8.341-13.543 18.027-21.884 15.217-8.341-2.78-11.151-16.981-8.341-25.323 2.78-8.341 11.809-12.855 20.18-10.075 8.341 2.811 12.856 11.839 10.045 20.181z" fill="#E8A181"/><path d="M90.199 130.092a7067.5 7067.5 0 0118.027 6.039c3.11 1.046 14.68-3.588 10.075-12.826-4.634-9.268-25.113-8.969-29.747-6.667-4.604 2.272-3.199 11.81 1.645 13.454z" fill="#1B1B1B"/><path d="M107.45 136.819c-2.78 8.341-13.543 18.027-21.884 15.217-8.341-2.78-11.152-16.981-8.341-25.323 2.78-8.341 11.809-12.855 20.18-10.075 8.341 2.811 12.856 11.839 10.045 20.181z" fill="#F9BB9B"/><path d="M79.197 146.325l2.75-8.191s-3.975-7.953-.567-11.511c3.408-3.557 6.966 2.332 6.966 2.332l5.56-4.215s6.548.239 8.88-3.378c2.332-3.648-.748-11.839-4.873-12.677-4.156-.837-27.326 4.126-29.33 7.594-2.002 3.468 4.127 20.719 4.127 20.719l6.487 9.327z" fill="#1B1B1B"/><path d="M114.923 368.01H0v6.009h114.923v-6.009z" fill="#0A6A28"/><path d="M2.63 369.773H.03v56.685h2.6v-56.685zm112.294 0h-2.601v56.685h2.601v-56.685z" fill="#0A6A28"/><path d="M398.881 148.867c-2.451-7.205.658-21.795 16.085-22.901 18.476-1.316 17.399 11.002 26.428 17.161 5.053 3.468 25.98-4.186 39.643 13.423 11.66 15.068-3.767 42.035-28.611 32.588-23.768-9.029-10.553-24.665-23.768-28.402-8.102-2.272-23.17 7.504-29.777-11.869z" fill="#1B1B1B"/><path d="M369.016 15.318a4.792 4.792 0 016.757.598 4.792 4.792 0 01-.598 6.757c-2.033 1.704-24.306 14.051-24.306 14.051s16.114-19.701 18.147-21.406zM233.015 4.496A4.794 4.794 0 01238.127.01a4.794 4.794 0 014.484 5.113c-.179 2.66-6.607 27.295-6.607 27.295s-3.169-25.292-2.989-27.923zm142.668 102.785a4.766 4.766 0 01.658 6.756 4.767 4.767 0 01-6.757.658c-2.063-1.674-18.356-21.256-18.356-21.256s22.392 12.138 24.455 13.842zM92.8 15.857a4.792 4.792 0 00-6.756.597 4.792 4.792 0 00.598 6.757c2.032 1.704 24.306 14.052 24.306 14.052S94.833 17.56 92.8 15.857zm-8.072 88.972a4.767 4.767 0 00-.658 6.757 4.766 4.766 0 006.757.657c2.062-1.674 18.356-21.256 18.356-21.256s-22.393 12.168-24.455 13.842z" fill="#74D460"/></svg>