<svg width="485" height="381" fill="none" xmlns="http://www.w3.org/2000/svg"><path d="M102.423 300.933l131.266-131.266c5-5 13.091-5 18.091 0L392.394 310.28c9.372 9.373-7.564 45.004-18.921 51.813l-264.341-27.917c-13.469-5.477-17.011-22.966-6.709-33.243z" fill="#F3BA18"/><path d="M102.422 300.933l131.266-131.266c5.001-5 13.092-5 18.092 0l118.074 118.074c9.372 9.372 14.976 67.543 3.618 74.352l-264.341-27.917c-13.468-5.477-17.01-22.966-6.709-33.243z" fill="#509741"/><path d="M241.753 357.294V154.163l165.314 115.562-2.89 54.677-123.778 33.721-38.646-.829z" fill="#49933A"/><path d="M325.229 146.826h-15.302v15.981h15.302v-15.981z" fill="#E8A181"/><path d="M342.114 332.166v8.066h27.138s1.884-5.653-7.539-7.262c-9.422-1.608-13.719-2.412-13.719-2.412l-5.88 1.608zm-47.34 0v8.066h-27.138s-1.884-5.653 7.539-7.262c9.422-1.608 13.719-2.412 13.719-2.412l5.88 1.608z" fill="#C77F67"/><path d="M368.348 93.355s-2.915-9.147 3.669-10.277c6.583-1.156 7.387 10.402 7.387 10.402l-11.056-.125z" fill="#F4AE87"/><path d="M293.04 223.766h47.969l14.599 50.054v58.422h-14.599s-5.252-18.067-5.956-38.596c-.15-4.774.729-17.765.729-17.765l-15.78-32.565a3.315 3.315 0 00-2.965-1.86h-.05a3.315 3.315 0 00-2.965 1.86l-15.78 32.565s1.709 9.397 1.709 19.85c0 16.685-6.911 36.511-6.911 36.511h-14.599V273.82l14.599-50.054z" fill="#416397"/><path d="M301.384 156.676h31.811c7.564 0 13.469 6.508 12.765 14.021l-4.95 53.044h-48.019l-4.422-53.169c-.603-7.488 5.302-13.896 12.815-13.896z" fill="#002245"/><path d="M341.11 187.256c-9.95-9.423-21.609-10.503-9.322-26.359 10.328-13.342 26.108-23.971 27.967-27.966 1.859-3.996 7.312-39.149 7.312-39.149l12.338-.301-2.237 40.681c-.402 2.965-1.055 4.548-1.96 6.231l-19.272 25.957-14.826 20.906z" fill="#2B4873"/><path d="M381.117 90.306l-17.034.34.139 6.958 17.033-.339-.138-6.959z" fill="#192E4C"/><path d="M267.135 93.355s2.915-9.147-3.668-10.277c-6.584-1.156-7.388 10.402-7.388 10.402l11.056-.125z" fill="#F4AE87"/><path d="M294.373 187.256c9.951-9.423 21.61-10.503 9.323-26.359-10.328-13.342-26.108-23.971-27.967-27.966-1.86-3.996-7.312-39.149-7.312-39.149l-12.338-.301 2.236 40.681c.403 2.965 1.056 4.548 1.96 6.231l19.273 25.957 14.825 20.906z" fill="#2B4873"/><path d="M254.405 90.368l-.139 6.958 17.033.34.139-6.96-17.033-.338z" fill="#192E4C"/><path d="M301.384 156.676h31.812c7.563 0 13.468 6.508 12.764 14.021l-4.95 53.044h-48.018l-4.423-53.17c-.603-7.488 5.302-13.895 12.815-13.895z" fill="#2B4873"/><path d="M318.095 157h-1.634v65h1.634v-65z" fill="#192E4C"/><path d="M315.077 159.817h5.051l3.468 43.119-5.051 7.387c-.477.679-1.483.679-1.935 0l-5-7.387 3.467-43.119z" fill="#fff"/><path d="M312.564 161.877a5.223 5.223 0 005.227 5.227 5.222 5.222 0 005.226-5.227 5.222 5.222 0 00-5.226-5.226 5.223 5.223 0 00-5.227 5.226z" fill="#fff"/><path d="M317.791 156.651s7.664 11.734 9.749 12.187c2.086.452 4.875-12.061 4.875-12.061l-14.624-.126zm-.001 0s-7.664 11.734-9.749 12.187c-2.086.452-4.875-12.061-4.875-12.061l14.624-.126z" fill="#192E4C"/><path d="M309.652 123.784c-5.855 5.151-10.026 17.238-4.875 23.092 5.151 5.855 17.665 3.242 23.519-1.909 5.855-5.151 6.408-14.072 1.282-19.901-5.176-5.88-14.072-6.433-19.926-1.282z" fill="#F9BB9B"/><path d="M322 153.5s3.205-7.955 4.939-11.951c1.733-3.995-4.297-4.874-4.297-4.874s-23.871-27.239-21.71-30.405c2.161-3.141 32.866 12.539 34.977 15.63 2.111 3.09 6.031 23.695 3.895 26.534C337.643 151.249 329.5 152 329.5 152l-7.5 1.5z" fill="#1B1B1B"/><path d="M159.766 157.178h-15.303v15.982h15.303v-15.982z" fill="#F4AE87"/><path d="M175.544 344.981v8.066h27.138s1.884-5.654-7.539-7.262c-9.422-1.608-13.719-2.412-13.719-2.412l-5.88 1.608zm-47.313 0v8.066h-27.138s-1.884-5.654 7.539-7.262c9.422-1.608 13.719-2.412 13.719-2.412l5.88 1.608z" fill="#C77F67"/><path d="M202.885 106.17s-2.915-9.147 3.668-10.278c6.584-1.155 7.388 10.403 7.388 10.403l-11.056-.125z" fill="#F4AE87"/><path d="M127.577 236.556h47.968l14.6 50.054v58.421h-14.6s-5.251-18.066-5.955-38.595c-.151-4.775.729-17.766.729-17.766l-15.78-32.565a3.317 3.317 0 00-2.965-1.859h-.05a3.315 3.315 0 00-2.965 1.859l-15.781 32.565s1.709 9.398 1.709 19.851c0 16.685-6.91 36.51-6.91 36.51h-14.599v-58.396l14.599-50.079z" fill="#B48854"/><path d="M135.918 169.491h31.811c7.564 0 13.469 6.508 12.765 14.021l-4.95 53.044h-48.019l-4.422-53.17c-.603-7.488 5.302-13.895 12.815-13.895z" fill="#002245"/><path d="M175.645 200.071c-9.951-9.423-21.61-10.503-9.323-26.359 10.328-13.342 26.108-23.971 27.967-27.966 1.86-3.996 7.312-39.149 7.312-39.149l12.338-.302-2.236 40.682c-.403 2.965-1.056 4.548-1.96 6.231l-19.273 25.957-14.825 20.906z" fill="#976F41"/><path d="M215.651 103.183l-17.033.339.138 6.959 17.033-.339-.138-6.959z" fill="#51381B"/><path d="M101.118 265.93s2.914 9.146-3.669 10.277c-6.583 1.156-7.388-10.403-7.388-10.403l11.057.126z" fill="#F4AE87"/><path d="M128.356 172.004c9.95 9.423 21.609 10.503 9.322 26.359-10.327 13.342-26.107 23.971-27.967 27.966-1.859 3.996-7.312 39.149-7.312 39.149l-12.338.302 2.237-40.682c.402-2.965 1.055-4.548 1.96-6.231l19.273-25.957 14.825-20.906z" fill="#976F41"/><path d="M105.244 261.583l-17.033.339.139 6.959 17.033-.339-.139-6.959z" fill="#51381B"/><path d="M135.918 169.491h31.812c7.563 0 13.468 6.508 12.765 14.021l-4.951 53.044h-48.018l-4.423-53.17c-.603-7.488 5.302-13.895 12.815-13.895z" fill="#976F41"/><path d="M152.629 169h-1.633v68h1.633v-68z" fill="#51381B"/><path d="M149.614 172.607h5.051l3.467 43.119-5.05 7.387c-.478.679-1.483.679-1.935 0l-5.001-7.387 3.468-43.119z" fill="#fff"/><path d="M147.101 174.692a5.223 5.223 0 005.227 5.227 5.223 5.223 0 005.226-5.227 5.222 5.222 0 00-5.226-5.226 5.223 5.223 0 00-5.227 5.226z" fill="#fff"/><path d="M152.328 169.466s7.664 11.734 9.749 12.187c2.086.452 4.875-12.062 4.875-12.062l-14.624-.125z" fill="#51381B"/><path d="M152.352 169.466s-7.664 11.734-9.75 12.187c-2.085.452-4.874-12.062-4.874-12.062l14.624-.125z" fill="#51381B"/><path d="M158.232 134.74c5.88 5.101 10.151 17.162 5.05 23.067-5.1 5.905-17.639 3.367-23.544-1.734-5.88-5.101-6.508-14.021-1.407-19.901 5.101-5.905 13.996-6.533 19.901-1.432z" fill="#F9BB9B"/><path d="M145.317 161s-2.488-4.374-4.246-8.344c-1.759-3.971 4.246-4.9 4.246-4.9l-1.583-5.955s2.412-5.277.226-8.393c-2.186-3.141-9.925-3.392-12.011-.302-2.085 3.116-5.88 23.746-3.694 26.56 2.161 2.814 18.318 3.619 18.318 3.619L145.317 161z" fill="#1B1B1B"/><path d="M10.432 264.322l235.595 80.91-2.462 34.953H92.599a7.88 7.88 0 01-6.006-2.79L1.89 276.81c-5.126-6.081 1.005-15.051 8.543-12.488z" fill="#49933A"/><path d="M474.284 264.573s-232.378 78.75-232.378 79.428v34.601c0 .879.703 1.583 1.583 1.583h149.257a8.02 8.02 0 006.156-2.865l84.152-99.907c5.277-6.256-1.03-15.478-8.77-12.84z" fill="#448F35"/><path d="M146.873 146.575a6916.776 6916.776 0 0011.031-12.715c1.91-2.211 2.036-13.217-7.086-12.564-9.121.654-15.83 17.514-15.503 22.062.301 4.574 8.593 6.634 11.558 3.217z" fill="#1B1B1B"/><path d="M244.445 2.393l5.503 15.931a3.547 3.547 0 003.292 2.387l16.861.302c3.367.05 4.774 4.347 2.085 6.382l-13.443 10.152a3.576 3.576 0 00-1.256 3.87l4.925 16.131c.98 3.216-2.664 5.88-5.428 3.945l-13.82-9.649a3.554 3.554 0 00-4.071 0l-13.82 9.65c-2.764 1.934-6.407-.73-5.427-3.946l4.925-16.132a3.578 3.578 0 00-1.257-3.87l-13.443-10.15c-2.689-2.036-1.306-6.308 2.086-6.383l16.86-.302a3.545 3.545 0 003.292-2.387l5.503-15.93c1.005-3.192 5.528-3.192 6.633 0z" fill="#0A6A28"/></svg>