<svg width="200" height="200" fill="none" xmlns="http://www.w3.org/2000/svg"><g clip-path="url(#clip0_1853_10691)" fill="#509741"><path d="M199.474 194.132L129.689 73.948V39.063h46.875a3.906 3.906 0 003.906-3.907V3.906A3.906 3.906 0 00176.564 0h-50.781a3.906 3.906 0 00-3.906 3.906v34.682l-8.374 11.677a3.907 3.907 0 006.349 4.553l2.025-2.823V73.88L91.02 123.306l-26.133-20.149a3.909 3.909 0 00-5.657.96L.636 193.961A3.905 3.905 0 003.908 200h192.187a3.906 3.906 0 003.379-5.868zM129.689 7.812h42.969V31.25h-42.969V7.812zM11.119 192.189l52.346-80.263 23.494 18.114-12.293 21.539a3.875 3.875 0 00-.38 2.965 3.88 3.88 0 001.833 2.363c.59.336 1.258.516 1.933.516a3.906 3.906 0 003.395-1.973l13.841-24.241c.025-.037 30.231-48.409 30.231-48.409.087.006.175.013.264.013h.019l63.508 109.376H11.12z"/><path d="M72.243 163.691a3.914 3.914 0 00-1.934-.515 3.92 3.92 0 00-3.394 1.969 3.916 3.916 0 001.457 5.332 3.91 3.91 0 005.328-1.457 3.877 3.877 0 00.375-2.965 3.871 3.871 0 00-1.832-2.364zm8.964-63.443a3.905 3.905 0 003.028 1.44l.12-.002a3.904 3.904 0 003.055-1.628l5.125-7.147a3.907 3.907 0 00-6.35-4.553l-2.147 2.995-6.02-7.392a3.906 3.906 0 10-6.058 4.933l9.247 11.354zm14.982-19.136a3.902 3.902 0 005.45-.898l9.106-12.698a3.907 3.907 0 00-6.349-4.553L95.29 75.661a3.907 3.907 0 00.899 5.45zm-42.09 2.864a3.903 3.903 0 005.406-1.138l3.443-5.28a3.908 3.908 0 005.203-5.713l-2.621-3.219a3.906 3.906 0 00-6.3.333l-6.27 9.611a3.906 3.906 0 001.138 5.406zm-17.072 26.176a3.904 3.904 0 005.406-1.138l8.535-13.088a3.906 3.906 0 00-6.543-4.267l-8.536 13.087a3.907 3.907 0 001.138 5.406zM1.773 164.209a3.902 3.902 0 005.406-1.138l5.38-8.25a3.906 3.906 0 00-6.543-4.268l-5.381 8.25a3.906 3.906 0 001.138 5.406zm13.916-21.338a3.901 3.901 0 005.406-1.138l8.535-13.087a3.906 3.906 0 00-6.544-4.268l-8.535 13.088a3.905 3.905 0 001.138 5.405z"/></g><defs><clipPath id="clip0_1853_10691"><path fill="#fff" d="M0 0h200v200H0z"/></clipPath></defs></svg>