<svg width="150" height="150" fill="none" xmlns="http://www.w3.org/2000/svg"><circle cx="75" cy="75" r="75" fill="#EBFFE7"/><path d="M48.513 121.003H31.04a1.354 1.354 0 01-1.351-1.352v-28.76a1.351 1.351 0 011.351-1.352h17.474a1.352 1.352 0 011.352 1.352v28.76a1.352 1.352 0 01-1.352 1.352zm-16.13-2.703h14.78V92.242H32.39l-.006 26.058zm48.251 2.703H63.153a1.353 1.353 0 01-1.352-1.352V68.324a1.352 1.352 0 011.352-1.351h17.48a1.352 1.352 0 011.352 1.351v51.327a1.35 1.35 0 01-1.351 1.352zm-16.13-2.703h14.779V69.676H64.504V118.3zm48.24 2.701H95.27a1.352 1.352 0 01-1.351-1.351V54.11h-4.865a1.351 1.351 0 01-1.124-2.102l14.954-22.413a1.398 1.398 0 011.124-.563 1.406 1.406 0 011.124.563l14.953 22.413a1.35 1.35 0 01-1.124 2.101h-4.865v65.541a1.352 1.352 0 01-1.352 1.351zm-16.121-2.702h14.77v-65.54a1.354 1.354 0 011.351-1.352h3.69l-12.426-18.623-12.432 18.623h3.694a1.351 1.351 0 011.352 1.351V118.3z" fill="#509741"/></svg>