<svg width="448" height="448" fill="none" xmlns="http://www.w3.org/2000/svg"><path d="M105.099 182.298v201.378l189.014-119V81.616l-140.549 88.479-4.844-15.26-43.621 27.463z" fill="#0A6A28"/><path opacity=".5" d="M105.099 182.298v201.378l189.014-119V81.616l-140.549 88.479-4.844-15.26-43.621 27.463z" fill="#000"/><path d="M105.099 383.676l9.688-183.073L303.801 81.616l-9.688 183.06-189.014 119z" fill="#E0E0E0"/><path d="M105.099 383.676l14.532-180.016 189.014-119-14.532 180.016-189.014 119z" fill="#0A6A28"/><path d="M105.099 383.676l14.532-180.016 189.014-119-14.532 180.016-189.014 119z" fill="#0E672A"/><path d="M265.036 447.749c-33.92-21.362-65.407-44.572-79.772-71.827l43.62-27.464 36.152 99.291z" fill="#E0E0E0"/><path d="M139.019 203.66v201.365l189.014-118.987v-183.06l-140.55 88.479-4.844-15.26-43.62 27.463z" fill="#27DEBF"/><path d="M139.019 203.66v201.365l189.014-118.987v-183.06l-140.55 88.479-4.844-15.26-43.62 27.463z" fill="#509741"/><path d="M193.473 263.193c-.477 0-.549-.599-.549-.963V90.476c0-1.21.811-2.732 1.766-3.344L331.111 1.255c.227-.143.442-.221.621-.221.477 0 .548.598.548.963V173.75c0 1.21-.811 2.732-1.765 3.343l-136.422 85.878c-.226.143-.441.221-.62.221z" fill="#fff"/><path d="M331.66 1.71c.012.065.036.157.036.3v171.754c0 .963-.704 2.29-1.468 2.771l-136.421 85.877a.925.925 0 01-.25.117 1.59 1.59 0 01-.024-.299V90.476c0-.963.704-2.29 1.467-2.771L331.421 1.828a.547.547 0 01.239-.118zm.072-1.314c-.275 0-.597.105-.919.313L194.392 86.586c-1.146.715-2.064 2.472-2.064 3.903v171.754c0 1.015.465 1.613 1.145 1.613.274 0 .597-.104.919-.312l136.421-85.877c1.145-.716 2.064-2.472 2.064-3.903V1.997c0-1.015-.465-1.614-1.145-1.6z" fill="#509741"/><path opacity=".7" d="M331.66 1.71c.012.065.036.157.036.3v171.754c0 .963-.704 2.29-1.468 2.771l-136.421 85.877a.925.925 0 01-.25.117 1.59 1.59 0 01-.024-.299V90.476c0-.963.704-2.29 1.467-2.771L331.421 1.828a.547.547 0 01.239-.118zm.072-1.314c-.275 0-.597.105-.919.313L194.392 86.586c-1.146.715-2.064 2.472-2.064 3.903v171.754c0 1.015.465 1.613 1.145 1.613.274 0 .597-.104.919-.312l136.421-85.877c1.145-.716 2.064-2.472 2.064-3.903V1.997c0-1.015-.465-1.614-1.145-1.6z" fill="#fff"/><path d="M206.872 97.032l48.464-30.507v61.015l-48.464 30.508V97.032z" fill="#509741"/><path d="M206.872 97.032l48.464-30.507v61.015l-48.464 30.508V97.032z" fill="#509741"/><path d="M248.07 81.772v18.305l-1.515.924v-5.608c0-3.096-2.315-4.15-5.166-2.354l-20.558 12.944c-2.851 1.796-5.166 5.764-5.166 8.86v5.607l-1.515.989v-18.305l33.92-21.362z" fill="#fff"/><path d="M238.716 128.438c-2.482 1.561-4.498-.078-4.498-3.668V95.394l-6.228 3.694v29.584c0 3.591-2.017 7.78-4.498 9.341l-4.498 2.837v1.938l24.232-15.26v-1.939c-.012.013-2.016 1.275-4.51 2.849z" fill="#fff"/><path d="M265.025 63.467c0 1.692 1.384 2.173 3.102 1.106l47.117-29.662c1.706-1.08 3.102-3.318 3.102-5.009 0-1.678-1.384-2.172-3.102-1.106L268.127 58.46c-1.706 1.08-3.102 3.33-3.102 5.008zm0 18.305c0 1.691 1.384 2.173 3.102 1.106l47.116-29.662c1.706-1.08 3.102-3.318 3.102-5.009 0-1.678-1.384-2.173-3.102-1.106l-47.116 29.662c-1.706 1.093-3.102 3.33-3.102 5.009zm0 18.304c0 1.692 1.384 2.173 3.102 1.106l47.116-29.662c1.706-1.08 3.102-3.317 3.102-5.009 0-1.678-1.384-2.172-3.102-1.105l-47.116 29.662c-1.706 1.093-3.102 3.33-3.102 5.008zm0 18.305c0 1.691 1.384 2.173 3.102 1.106l47.116-29.662c1.706-1.08 3.102-3.318 3.102-5.009 0-1.678-1.384-2.172-3.102-1.106l-47.116 29.662c-1.706 1.093-3.102 3.331-3.102 5.009zm-58.153 54.927c0 1.692 1.384 2.173 3.102 1.106l105.269-66.271c1.706-1.08 3.102-3.318 3.102-5.009 0-1.678-1.384-2.173-3.102-1.106L209.974 168.3c-1.718 1.092-3.102 3.33-3.102 5.008zm0 18.305c0 1.678 1.384 2.173 3.102 1.106l105.269-66.272c1.706-1.079 3.102-3.317 3.102-5.008 0-1.692-1.384-2.173-3.102-1.106l-105.269 66.271c-1.718 1.093-3.102 3.331-3.102 5.009zm0 18.317c0 1.679 1.384 2.173 3.102 1.106l105.269-66.271c1.706-1.08 3.102-3.318 3.102-5.009 0-1.691-1.384-2.173-3.102-1.106l-105.269 66.272c-1.718 1.08-3.102 3.317-3.102 5.008z" fill="#1B1B1B"/><path d="M139.019 405.025l33.932-161.698 189.002-119-33.92 161.711-189.014 118.987z" fill="#63B751"/><path d="M185.264 255.986v119.936l43.62-27.463V228.535l-43.62 27.451z" fill="#D9FFD1"/><path opacity=".2" d="M185.264 255.986v119.936l43.62-27.463V228.535l-43.62 27.451z" fill="#1B1B1B"/><path d="M265.072 446.968c-3.711-3.005-39.469-32.823-57.652-75.404-19.352-45.326-19.34-98.198-19.328-118.089v-.625l129.668-81.623c-.012 20.087.024 73.024 19.448 118.506 17.765 41.592 52.163 71.059 57.615 75.56l-129.751 81.675z" fill="#fff"/><path d="M317.152 172.346c0 20.92.369 72.867 19.495 117.66 17.169 40.187 49.813 69.107 57.079 75.209l-128.618 80.972c-5.023-4.137-39.457-33.435-57.163-74.91-19.304-45.195-19.28-97.95-19.28-117.816v-.247l128.487-80.868zm1.193-2.251l-130.862 82.378c0 18.721-.358 73.114 19.389 119.364 19.388 45.391 58.152 75.912 58.152 75.912l130.861-82.378s-38.776-30.508-58.164-75.912c-19.746-46.249-19.376-100.643-19.376-119.364z" fill="#509741"/><path opacity=".7" d="M317.152 172.346c0 20.92.369 72.867 19.495 117.66 17.169 40.187 49.813 69.107 57.079 75.209l-128.618 80.972c-5.023-4.137-39.457-33.435-57.163-74.91-19.304-45.195-19.28-97.95-19.28-117.816v-.247l128.487-80.868zm1.193-2.251l-130.862 82.378c0 18.721-.358 73.114 19.389 119.364 19.388 45.391 58.152 75.912 58.152 75.912l130.861-82.378s-38.776-30.508-58.164-75.912c-19.746-46.249-19.376-100.643-19.376-119.364z" fill="#fff"/><path d="M303.539 197.715l-41.39 26.058c-1.718 1.08-3.066 3.292-3.006 4.931.059 1.652 1.503 2.108 3.221 1.028l41.39-26.059c1.706-1.08 3.042-3.291 2.982-4.93-.059-1.64-1.479-2.108-3.197-1.028zm.882 17.758l-41.389 26.058c-1.718 1.08-3.007 3.253-2.887 4.866.131 1.6 1.634 2.03 3.34.95l41.39-26.059c1.706-1.079 2.982-3.252 2.851-4.852-.107-1.614-1.587-2.043-3.305-.963zm1.659 17.264l-41.39 26.058c-1.718 1.08-2.947 3.214-2.744 4.775.203 1.561 1.766 1.951 3.484.871l41.389-26.058c1.707-1.08 2.924-3.213 2.721-4.775-.215-1.561-1.754-1.951-3.46-.871zm2.482 16.743l-41.39 26.059c-1.718 1.08-2.887 3.174-2.601 4.683.287 1.509 1.909 1.848 3.627.781l41.39-26.059c1.706-1.079 2.863-3.174 2.577-4.683-.287-1.509-1.897-1.86-3.603-.781zm3.364 16.185l-41.389 26.058c-1.706 1.08-2.816 3.135-2.446 4.593.37 1.457 2.064 1.756 3.782.676l41.39-26.058c1.718-1.08 2.792-3.123 2.422-4.58-.382-1.457-2.052-1.769-3.759-.689zm4.307 15.598l-100.866 63.501c-1.706 1.08-2.744 3.083-2.279 4.488.465 1.392 2.243 1.639 3.949.573l100.867-63.501c1.706-1.08 2.708-3.083 2.243-4.475-.454-1.405-2.208-1.665-3.914-.586zm5.37 14.896L220.736 359.66c-1.706 1.08-2.648 3.031-2.088 4.358.561 1.327 2.422 1.522 4.129.455l100.866-63.5c1.718-1.08 2.637-3.018 2.064-4.358-.549-1.327-2.386-1.536-4.104-.456zm6.585 14.194l-100.866 63.5c-1.706 1.08-2.565 2.98-1.885 4.242.68 1.262 2.637 1.392 4.343.312l100.866-63.501c1.718-1.079 2.529-2.966 1.849-4.215-.68-1.262-2.601-1.418-4.307-.338zm7.756 13.426l-100.867 63.5c-1.706 1.08-2.481 2.928-1.694 4.125.788 1.196 2.816 1.274 4.522.195l100.866-63.501c1.707-1.08 2.458-2.914 1.671-4.098-.776-1.197-2.78-1.301-4.498-.221zm8.805 12.762l-100.867 63.501c-1.706 1.08-2.41 2.888-1.539 4.02.871 1.132 2.971 1.171 4.689.091l100.866-63.501c1.707-1.079 2.387-2.862 1.516-3.994-.871-1.144-2.947-1.197-4.665-.117zm9.748 12.152l-100.867 63.5c-1.718 1.08-2.338 2.836-1.384 3.929.955 1.08 3.126 1.08 4.832 0l100.867-63.5c1.706-1.08 2.314-2.824 1.36-3.903-.943-1.08-3.09-1.093-4.808-.026zm10.666 11.617l-100.866 63.501c-1.706 1.08-2.267 2.797-1.229 3.838 1.038 1.027 3.269.988 4.988-.091l100.866-63.514c1.706-1.08 2.255-2.771 1.217-3.812-1.05-1.028-3.257-1.001-4.976.078z" fill="#1B1B1B"/><path d="M247.162 233.218l-47.581 29.962c.525 18.786 2.493 45.911 9.712 73.218l47.581-29.961c-7.218-27.307-9.187-54.433-9.712-73.219z" fill="#EBFFE7"/><path d="M218.982 259.004c0-2.915-.871-5.152-2.327-6.596l-17.085 10.759c.143 4.969.382 10.525.799 16.496 1.873.338 4.081-.039 6.467-1.236 6.717-3.408 12.146-12.112 12.146-19.423z" fill="#D9FFD1"/><path d="M252.83 288.484c-3.173-4.372-9.628-17.824-12.384-23.691-.489-1.041-1.885-.898-2.207.221-4.761 16.679-5.167 34.151-5.167 34.151-3.83-3.305-6.574-6.583-10.105-12.256-.513-.819-1.671-.598-1.897.365-5.202 21.843-2.59 43.335-2.59 43.335l38.383-24.159a267.752 267.752 0 01-4.033-17.966z" fill="#509741"/></svg>