<svg width="200" height="200" fill="none" xmlns="http://www.w3.org/2000/svg"><path d="M188.918 20.333a3.904 3.904 0 00-3.378-1.946h-18.822l-9.436-16.413a3.906 3.906 0 00-3.386-1.96h-21.102a3.904 3.904 0 00-3.382 1.954l-8.673 15.024-6.818-3.582a11.76 11.76 0 00.122-1.678c0-6.461-5.256-11.717-11.717-11.717-6.46 0-11.717 5.256-11.717 11.717 0 6.46 5.257 11.716 11.717 11.716a11.67 11.67 0 007.957-3.126l9.155 4.81 9.984 17.082a3.908 3.908 0 003.372 1.934h18.803l8.264 14.674-7.86 11.836c-.9-.222-1.84-.342-2.807-.342-6.461 0-11.717 5.256-11.717 11.717 0 6.46 5.256 11.717 11.717 11.717 1.778 0 3.495-.394 5.053-1.14l7.805 7.804a11.67 11.67 0 00-1.141 5.053c0 6.461 5.256 11.717 11.717 11.717s11.717-5.256 11.717-11.717c0-6.46-5.256-11.717-11.717-11.717-1.778 0-3.495.394-5.053 1.14l-7.805-7.804a11.669 11.669 0 001.141-5.053c0-2.657-.891-5.11-2.387-7.078l8.008-12.06h19.008a3.909 3.909 0 003.393-1.97l10.553-18.501a3.906 3.906 0 00-.014-3.895l-10.554-18.196zm-86.592-4.696a3.91 3.91 0 01-3.905-3.905 3.91 3.91 0 013.905-3.906 3.91 3.91 0 013.906 3.906 3.91 3.91 0 01-3.906 3.905zm24.436 6.546l8.287-14.357h16.588l8.294 14.427-8.27 14.084h-16.626l-8.273-14.154zm18.526 59.85a3.91 3.91 0 013.906-3.906 3.91 3.91 0 013.906 3.906 3.907 3.907 0 01-3.906 3.906 3.91 3.91 0 01-3.906-3.906zm31.245 23.434a3.91 3.91 0 01-3.905 3.906 3.91 3.91 0 01-3.906-3.906 3.908 3.908 0 013.906-3.906 3.91 3.91 0 013.905 3.906zm6.738-50.383h-16.55l-8.328-14.786 8.28-14.116h16.617l8.297 14.323-8.316 14.58zM75.379 80.47c-1.283 0-2.484.63-3.214 1.686-2.556 3.701-8.503 12.848-8.503 17.843 0 6.46 5.256 11.717 11.717 11.717 6.46 0 11.717-5.257 11.717-11.717 0-4.995-5.947-14.142-8.503-17.843a3.906 3.906 0 00-3.214-1.686zm0 23.434a3.909 3.909 0 01-3.906-3.901c.032-1.194 1.657-4.598 3.907-8.389 2.248 3.787 3.871 7.19 3.905 8.388a3.91 3.91 0 01-3.906 3.902zm.001 96.08a3.906 3.906 0 100-7.812 3.906 3.906 0 000 7.812z" fill="#509741"/><path d="M103.89 91.225V57.037h3.906a3.905 3.905 0 003.905-3.905V37.509a3.905 3.905 0 00-3.905-3.906H42.962a3.906 3.906 0 00-3.906 3.906v15.623a3.906 3.906 0 003.906 3.905h3.906v34.188l-45.013 85.75A15.658 15.658 0 000 184.361c0 8.614 7.008 15.623 15.623 15.623h42.18a3.906 3.906 0 000-7.812h-42.18c-4.308 0-7.812-3.504-7.812-7.811 0-1.31.313-2.555.93-3.7.008-.013 23.891-45.511 23.891-45.511h85.493l23.891 45.511c.617 1.145.93 2.39.93 3.7 0 4.307-3.504 7.811-7.811 7.811h-42.18a3.906 3.906 0 000 7.812h42.18c8.614 0 15.623-7.009 15.623-15.623 0-2.573-.642-5.127-1.855-7.386l-45.013-85.75zm-57.022-49.81h57.022v7.811H46.868v-7.811zm-10.136 85.924l17.5-33.336c.293-.56.447-1.183.447-1.815v-35.15h41.4v35.15c0 .632.153 1.255.447 1.815l17.499 33.336H36.732z" fill="#509741"/></svg>