<svg width="200" height="200" fill="none" xmlns="http://www.w3.org/2000/svg"><path d="M139.407 48.644c-10.544-10.47-24.508-16.223-39.359-16.223-.135 0-.27 0-.406.002-16.063.113-31.338 7.205-41.907 19.457a3.906 3.906 0 005.916 5.103c9.097-10.546 22.236-16.65 36.046-16.748l.35-.002c12.774 0 24.786 4.949 33.856 13.955 9.155 9.09 14.197 21.201 14.197 34.102 0 12.32-4.657 24.035-13.113 32.988-8.878 9.399-14.089 21.296-14.871 33.801H112.5v-41.405h2.474c5.672 0 10.286-4.615 10.286-10.286v-.521c0-5.672-4.614-10.286-10.286-10.286-5.673 0-10.286 4.614-10.286 10.286v2.995h-9.375v-2.995c0-5.672-4.614-10.286-10.286-10.286h-.662c-5.672 0-10.285 4.614-10.285 10.286v.521c0 5.672 4.614 10.286 10.285 10.286h3.136v41.405h-7.523c-.758-12.645-5.865-24.431-14.573-33.484-8.993-9.35-13.751-21.655-13.398-34.648a3.906 3.906 0 00-3.799-4.011c-2.166-.074-3.952 1.642-4.01 3.799-.411 15.102 5.12 29.405 15.576 40.275 8.054 8.374 12.49 19.513 12.49 31.368v11.303c0 8.355 6.336 15.255 14.455 16.154v.884c0 7.323 5.957 13.281 13.28 13.281 7.323 0 13.281-5.958 13.281-13.281v-.872c8.162-.858 14.544-7.78 14.544-16.165v-11.303c0-11.699 4.561-22.97 12.841-31.737 9.832-10.408 15.246-24.029 15.246-38.353.001-14.998-5.861-29.077-16.504-39.645zM112.5 102.867a2.477 2.477 0 012.474-2.474 2.477 2.477 0 012.474 2.474v.521a2.477 2.477 0 01-2.474 2.474H112.5v-2.995zm-17.187 10.807h9.374v41.405h-9.374v-41.405zm-10.948-7.812a2.477 2.477 0 01-2.474-2.474v-.521a2.477 2.477 0 012.474-2.474h.661a2.477 2.477 0 012.474 2.474v2.995h-3.135zm21.104 80.857a5.475 5.475 0 01-5.47 5.469 5.475 5.475 0 01-5.468-5.469v-.781h10.938v.781zm14.543-17.037c0 4.656-3.788 8.444-8.444 8.444H88.52c-4.656 0-8.444-3.788-8.444-8.444v-6.791h39.936v6.791zM100 0a3.907 3.907 0 00-3.906 3.906v14.588a3.906 3.906 0 007.812 0V3.906A3.906 3.906 0 00100 0zm84.383 84.383h-14.587a3.906 3.906 0 000 7.813h14.587a3.907 3.907 0 000-7.813zm-154.178 0H15.617a3.907 3.907 0 000 7.813h14.588a3.907 3.907 0 000-7.813zm23.204-48.209L43.094 25.86a3.908 3.908 0 00-5.524 5.525L47.884 41.7a3.897 3.897 0 002.763 1.144 3.907 3.907 0 002.762-6.669zM162.43 25.859a3.907 3.907 0 00-5.524 0l-10.315 10.315a3.908 3.908 0 005.525 5.524l10.314-10.314a3.908 3.908 0 000-5.525z" fill="#509741"/><path d="M136.568 73.54a39.448 39.448 0 00-14.394-17.881c-6.575-4.49-14.26-6.859-22.246-6.859h-.285a3.907 3.907 0 00.027 7.813h.259c13.006 0 24.528 7.77 29.393 19.846a3.907 3.907 0 107.246-2.92zm1.704 11.988a3.934 3.934 0 00-2.761-1.145c-1.032 0-2.04.418-2.766 1.145a3.933 3.933 0 00-1.141 2.761c0 1.027.415 2.035 1.141 2.762a3.937 3.937 0 002.766 1.144 3.932 3.932 0 002.761-1.144 3.93 3.93 0 001.141-2.762 3.929 3.929 0 00-1.141-2.761zM54.91 65.403a3.93 3.93 0 00-2.76-1.14 3.93 3.93 0 00-2.762 1.14 3.945 3.945 0 00-1.145 2.766 3.94 3.94 0 001.145 2.761 3.938 3.938 0 002.761 1.145 3.934 3.934 0 002.762-1.145 3.943 3.943 0 001.145-2.761 3.944 3.944 0 00-1.145-2.766z" fill="#509741"/></svg>