<svg width="200" height="200" fill="none" xmlns="http://www.w3.org/2000/svg"><path d="M100 174.219a3.907 3.907 0 10-.001-7.813 3.907 3.907 0 00.001 7.813zM164.066 52.28l-62.5-27.343a3.907 3.907 0 00-3.132 0L35.962 52.268c-.039.034-2.368.948-2.368 3.591v24.11c-4.547 1.612-7.813 5.954-7.813 11.047v15.625a3.907 3.907 0 003.907 3.906h15.625a3.907 3.907 0 003.906-3.906V91.016c0-5.093-3.266-9.435-7.813-11.047V61.832l23.438 10.254v26.742c0 1.545.91 2.944 2.322 3.571.75.332 18.526 8.148 32.834 8.148 14.308 0 32.085-7.816 32.834-8.148a3.907 3.907 0 002.322-3.57V72.085l28.91-12.648a3.905 3.905 0 000-7.158zm-122.66 50.454h-7.812V91.016a3.91 3.91 0 013.906-3.907 3.91 3.91 0 013.906 3.907v11.718zm85.938-6.514c-5.072 2.019-17.471 6.514-27.344 6.514-9.851 0-22.268-4.497-27.344-6.516V75.504l25.778 11.278a3.908 3.908 0 003.132 0l25.778-11.278v20.715zM100 78.94c-7.471-3.27-45.277-19.81-52.754-23.08L100 32.78l52.754 23.08L100 78.94z" fill="#509741"/><path d="M180.469 79.297h-33.594a3.906 3.906 0 000 7.812h33.594a3.906 3.906 0 000-7.812zm0 15.625h-33.594a3.906 3.906 0 000 7.812h33.594a3.906 3.906 0 100-7.812zM100 7.813A3.906 3.906 0 10100 0a3.906 3.906 0 000 7.813z" fill="#509741"/><path d="M196.094 0h-78.516a3.906 3.906 0 000 7.813h74.61v119.531H7.813V7.813h74.609a3.906 3.906 0 000-7.813H3.906A3.906 3.906 0 000 3.906v150.782a3.906 3.906 0 003.906 3.906h75.757l-6.338 33.594H60.937a3.906 3.906 0 100 7.812h78.125a3.907 3.907 0 100-7.812h-12.387l-6.338-33.594h75.757a3.906 3.906 0 003.906-3.906V3.906A3.906 3.906 0 00196.094 0zM81.274 192.188l6.339-33.594h24.774l6.338 33.594h-37.45zm110.914-41.407H7.813v-15.625h184.375v15.625z" fill="#509741"/></svg>