<svg width="200" height="200" fill="none" xmlns="http://www.w3.org/2000/svg"><path d="M193.446 101.604H81.297a6.39 6.39 0 01-4.579-1.954 6.77 6.77 0 01-1.899-4.712V71.657c0-.78.301-1.526.837-2.077a2.815 2.815 0 012.018-.86c.757 0 1.484.309 2.02.86.534.55.835 1.298.835 2.077V94.94a.8.8 0 00.223.562.756.756 0 00.545.229h112.149a.74.74 0 00.546-.23.788.788 0 00.222-.56V7.937a.782.782 0 00-.217-.567.739.739 0 00-.551-.223H81.297a.723.723 0 00-.55.223.766.766 0 00-.218.567V52.43c0 .779-.3 1.526-.836 2.077a2.815 2.815 0 01-2.019.86 2.82 2.82 0 01-2.019-.86 2.981 2.981 0 01-.836-2.077V7.938a6.77 6.77 0 011.9-4.712 6.393 6.393 0 014.578-1.954h112.149a6.393 6.393 0 014.579 1.954 6.766 6.766 0 011.899 4.712V94.94a6.772 6.772 0 01-1.9 4.71 6.39 6.39 0 01-4.578 1.953zM39.783 45.173a20.91 20.91 0 01-11.852-3.701c-3.509-2.413-6.243-5.842-7.857-9.853a22.544 22.544 0 01-1.213-12.684 22.155 22.155 0 015.84-11.24 21.151 21.151 0 0110.924-6.007 20.777 20.777 0 0112.326 1.25c3.898 1.661 7.23 4.475 9.575 8.085A22.409 22.409 0 0161.12 23.22c-.007 5.82-2.257 11.4-6.257 15.517-4 4.115-9.424 6.43-15.081 6.436zm0-38.034c-3.09 0-6.11.944-8.68 2.71a15.988 15.988 0 00-5.754 7.216 16.511 16.511 0 00-.888 9.29 16.227 16.227 0 004.276 8.23 15.493 15.493 0 008 4.4c3.03.621 6.172.303 9.027-.913a15.731 15.731 0 007.013-5.92 16.412 16.412 0 002.634-8.932c-.004-4.264-1.651-8.352-4.581-11.367-2.93-3.015-6.903-4.71-11.047-4.714zM29.342 198.734c-3.558.005-6.974-1.443-9.498-4.025-2.524-2.582-3.95-6.088-3.966-9.75v-68.27c0-.779.301-1.526.837-2.077a2.815 2.815 0 012.018-.861c.758 0 1.484.31 2.02.861.535.551.835 1.298.835 2.077v68.27a8.166 8.166 0 00.66 3.139 7.974 7.974 0 001.81 2.616 7.712 7.712 0 002.666 1.668 7.55 7.55 0 003.09.45 7.287 7.287 0 003.106-.973 7.509 7.509 0 002.41-2.241 8.525 8.525 0 001.355-4.195c.169-1.883.255-3.79.255-5.661v-51.56c0-.779.3-1.526.836-2.077a2.815 2.815 0 012.018-.861c.758 0 1.484.31 2.02.861.535.551.836 1.298.836 2.077v51.572c0 2.056-.092 4.139-.286 6.201a14.387 14.387 0 01-2.427 7.113 13.28 13.28 0 01-4.275 3.935 12.856 12.856 0 01-5.497 1.684c-.277.018-.549.027-.823.027z" fill="#509741"/><path d="M50.246 198.734a12.4 12.4 0 01-.819-.027 12.848 12.848 0 01-5.51-1.683 13.264 13.264 0 01-4.282-3.942 14.367 14.367 0 01-2.427-7.107 71.25 71.25 0 01-.286-6.204v-51.569c0-.779.301-1.526.837-2.077a2.815 2.815 0 012.018-.861c.758 0 1.484.31 2.02.861.535.551.835 1.298.835 2.077v51.572c0 1.895.083 3.801.252 5.664a8.538 8.538 0 001.356 4.192 7.516 7.516 0 002.42 2.239 7.283 7.283 0 003.118.963 7.52 7.52 0 003.09-.453 7.694 7.694 0 002.665-1.672 7.965 7.965 0 001.806-2.619 8.16 8.16 0 00.653-3.141V77.673a9.084 9.084 0 012.549-6.318 8.577 8.577 0 016.142-2.621H96.72a6.474 6.474 0 005.992-4.12 6.756 6.756 0 00.477-2.543 6.786 6.786 0 00-1.891-4.723 6.406 6.406 0 00-4.581-1.969h-74.23c-4.425.004-8.668 1.813-11.799 5.032-3.13 3.218-4.894 7.582-4.902 12.136v45.323a5.29 5.29 0 001.507 3.672 4.992 4.992 0 003.586 1.504 4.728 4.728 0 001.891-.331 4.833 4.833 0 001.619-1.06 4.998 4.998 0 001.093-1.622c.255-.61.39-1.266.396-1.931V77.891c0-.78.301-1.527.837-2.078a2.815 2.815 0 012.018-.86c.758 0 1.484.31 2.02.86.535.551.835 1.299.835 2.078v40.208a10.993 10.993 0 01-3.085 7.648c-1.971 2.028-4.644 3.169-7.432 3.172a10.553 10.553 0 01-4.175-.789 10.804 10.804 0 01-3.558-2.38 11.159 11.159 0 01-2.396-3.604 11.422 11.422 0 01-.866-4.276V72.547c.007-6.113 2.37-11.973 6.571-16.296 4.201-4.322 9.897-6.753 15.838-6.76h74.229a11.905 11.905 0 014.725.9c1.502.62 2.869 1.54 4.022 2.708a12.573 12.573 0 012.692 4.096 12.869 12.869 0 010 9.696 12.572 12.572 0 01-2.692 4.096 12.176 12.176 0 01-4.022 2.708c-1.501.62-3.107.925-4.725.9H66.683c-.393 0-.781.08-1.143.235a2.98 2.98 0 00-.968.668 3.078 3.078 0 00-.646.998 3.15 3.15 0 00-.224 1.177V184.96c-.016 3.66-1.44 7.165-3.963 9.747-2.522 2.582-5.935 4.03-9.492 4.028zm95.192-123.271c-2.623.017-5.223-.5-7.651-1.522a19.84 19.84 0 01-6.495-4.433c-7.226-7.438-13.624-38.543-14.332-42.065a3.022 3.022 0 01.178-1.763 2.916 2.916 0 011.13-1.336 2.794 2.794 0 013.277.217 46.79 46.79 0 0015.602 7.762c2.536.708 5.893 1.26 9.136 1.795 7.74 1.277 12.608 2.22 14.92 4.6a20.455 20.455 0 014.408 6.906 20.908 20.908 0 011.385 8.138c-.168 5.786-2.509 11.28-6.532 15.326-4.022 4.047-9.412 6.332-15.037 6.375h.011zM124.055 33.16c2.892 12.476 7.491 28.29 11.274 32.186 2.901 2.817 6.768 4.337 10.755 4.227 3.988-.11 7.77-1.842 10.52-4.815 2.906-2.948 4.588-6.94 4.694-11.137a14.949 14.949 0 00-.981-5.811 14.612 14.612 0 00-3.139-4.935c-1.171-1.205-7.814-2.297-11.785-2.938-3.398-.56-6.909-1.14-9.736-1.927a53.146 53.146 0 01-11.602-4.83v-.02z" fill="#509741"/><path d="M170.993 74.864c-.211 0-.422-.023-.628-.07-16.727-3.858-33.586-24.246-34.294-25.112a2.992 2.992 0 01-.637-2.133c.068-.77.429-1.48 1.003-1.978a2.802 2.802 0 012.064-.683c.749.06 1.444.422 1.935 1.007.163.197 16.334 19.744 31.176 23.167a2.85 2.85 0 011.701 1.158c.409.589.593 1.312.516 2.031a2.971 2.971 0 01-.934 1.866 2.807 2.807 0 01-1.905.75l.003-.003z" fill="#509741"/></svg>