<svg width="200" height="200" fill="none" xmlns="http://www.w3.org/2000/svg"><path d="M162.162 154.9a8.947 8.947 0 01-4.975-1.508 8.955 8.955 0 1113.927-7.446 8.964 8.964 0 01-8.952 8.954zm0-12.5a3.55 3.55 0 10-.004 7.099 3.55 3.55 0 00.004-7.099z" fill="#509741"/><path d="M191.892 148.649h-12.946a2.7 2.7 0 01-2.703-2.703 2.702 2.702 0 012.703-2.703h10.243V93.808l-22.146-28.943h-31.908v78.378h10.243a2.702 2.702 0 010 5.406h-12.946a2.702 2.702 0 01-2.703-2.703V62.162a2.702 2.702 0 012.703-2.703h35.946a2.703 2.703 0 012.146 1.06l23.514 30.73c.361.471.556 1.049.556 1.643v53.054a2.701 2.701 0 01-2.702 2.703z" fill="#509741"/><path d="M132.432 148.649H66a2.702 2.702 0 010-5.406h63.73V45.919H10.81v97.324h21.622a2.703 2.703 0 010 5.406H8.108a2.702 2.702 0 01-2.703-2.703V43.216a2.703 2.703 0 012.703-2.703h124.324a2.7 2.7 0 012.703 2.703v102.73a2.702 2.702 0 01-2.703 2.703z" fill="#509741"/><path d="M132.432 118.919H8.108a2.702 2.702 0 010-5.406h124.324a2.7 2.7 0 012.703 2.703 2.702 2.702 0 01-2.703 2.703zM49.21 165.427a19.481 19.481 0 1119.484-19.481 19.503 19.503 0 01-19.483 19.481zm0-33.559a14.07 14.07 0 00-13.001 8.69 14.075 14.075 0 1027.08 5.388 14.092 14.092 0 00-14.078-14.076v-.002z" fill="#509741"/><path d="M49.211 154.616a8.666 8.666 0 01-8.008-5.354 8.67 8.67 0 1116.681-3.316 8.683 8.683 0 01-8.673 8.67zm0-11.938a3.269 3.269 0 00-3.2 3.903 3.268 3.268 0 002.565 2.564 3.264 3.264 0 10.635-6.464v-.003zm112.951 22.749a19.486 19.486 0 01-17.998-12.026 19.484 19.484 0 0125.453-25.453 19.476 19.476 0 0112.026 17.998 19.5 19.5 0 01-19.481 19.481zm0-33.559a14.073 14.073 0 00-13.805 16.82 14.072 14.072 0 0019.19 10.26 14.071 14.071 0 008.691-13.002 14.091 14.091 0 00-14.076-14.076v-.002zm13.973-21.057h-30.189a2.702 2.702 0 01-2.703-2.703V77.919a2.703 2.703 0 012.703-2.703h18.676a2.7 2.7 0 012.148 1.065l11.514 15.095c.359.47.553 1.046.554 1.638v15.094a2.702 2.702 0 01-2.703 2.703zm-27.486-5.406h24.783V93.927l-10.148-13.305h-14.635v24.783zm-79.837-1.338a18.835 18.835 0 01-13.392-5.479c-6.84-6.843-12.897-35.46-13.568-38.7a2.702 2.702 0 014.34-2.651 44.815 44.815 0 0014.771 7.14c2.4.652 5.579 1.16 8.649 1.652 7.327 1.175 11.935 2.043 14.124 4.232a18.768 18.768 0 015.484 13.84 20.581 20.581 0 01-20.419 19.966h.01zm-20.243-38.92c2.737 11.479 7.091 26.028 10.673 29.611a14.276 14.276 0 0020.14-.54 14.927 14.927 0 004.443-10.246 13.401 13.401 0 00-3.9-9.886c-1.108-1.109-7.397-2.114-11.156-2.703-3.217-.516-6.54-1.049-9.217-1.773a51.14 51.14 0 01-10.983-4.443v-.02z" fill="#509741"/><path d="M93.004 103.515c-.2.001-.4-.021-.595-.065-15.835-3.548-31.795-22.305-32.465-23.102a2.703 2.703 0 014.132-3.484c.155.181 15.463 18.165 29.514 21.313a2.703 2.703 0 01-.59 5.341l.004-.003z" fill="#509741"/></svg>