<svg width="200" height="200" fill="none" xmlns="http://www.w3.org/2000/svg"><path d="M70.508 198.742a8.508 8.508 0 01-6.058-2.51L3.767 135.547a8.554 8.554 0 01-2.509-6.057 8.571 8.571 0 012.51-6.056l99.572-99.57a8.591 8.591 0 016.584-2.493l17.732 1.097a53.339 53.339 0 0149.876 49.876l1.096 17.732a8.555 8.555 0 01-2.492 6.584l-99.573 99.572a8.511 8.511 0 01-6.055 2.51zm38.89-171.678a2.856 2.856 0 00-2.021.837L7.804 127.473a2.857 2.857 0 000 4.037l60.686 60.686a2.923 2.923 0 004.037 0l99.572-99.573a2.86 2.86 0 00.831-2.195l-1.096-17.733a47.62 47.62 0 00-44.538-44.537l-17.732-1.097-.166.003z" fill="#509741"/><path d="M139.97 75.413a15.393 15.393 0 1110.889-4.505 15.362 15.362 0 01-10.889 4.505zm0-25.09a9.685 9.685 0 00-8.537 14.257 9.686 9.686 0 0018.181-5.522 9.685 9.685 0 00-9.644-8.734z" fill="#509741"/><path d="M145.896 63.962a9.731 9.731 0 01-7.203-2.655c-2.149-2.15-4.097-6.458-1.17-14.778a2.854 2.854 0 015.268-.286c.328.683.37 1.468.119 2.182-1.49 4.24-1.556 7.466-.177 8.85 1.379 1.385 4.605 1.314 8.85-.176a56.574 56.574 0 0014.878-8.634 92.429 92.429 0 008.91-7.877 75.981 75.981 0 0015.357-20.944c2.512-5.515 3.02-9.992 1.325-11.688-1.696-1.696-6.173-1.188-11.689 1.325a75.979 75.979 0 00-20.952 15.348 92.147 92.147 0 00-7.871 8.913 2.86 2.86 0 01-4.007.518 2.846 2.846 0 01-1.089-1.896 2.858 2.858 0 01.571-2.11 98.161 98.161 0 018.37-9.453 81.758 81.758 0 0122.603-16.528c8.088-3.688 14.515-3.743 18.092-.165 3.577 3.577 3.517 9.992-.166 18.092a81.741 81.741 0 01-16.516 22.614 98.256 98.256 0 01-9.452 8.37 62.331 62.331 0 01-16.462 9.496 23.066 23.066 0 01-7.589 1.482zm-68.499 84.001a23.661 23.661 0 01-23.64-23.636c0-11.957 19.05-42.585 21.222-46.036a2.855 2.855 0 015.256 1.23 58.66 58.66 0 006.546 19.7c1.496 2.735 3.772 6.021 5.97 9.201 5.139 7.446 8.279 12.234 8.279 15.922a23.66 23.66 0 01-23.633 23.619zM76.04 87.541c-6.675 11.306-16.559 29.614-16.559 36.786A17.926 17.926 0 0077.41 142.03a17.928 17.928 0 0017.928-17.703c0-2.173-4.2-8.242-7.266-12.673-2.284-3.3-4.642-6.712-6.281-9.707a65.33 65.33 0 01-5.75-14.403v-.003z" fill="#509741"/><path d="M83.364 162.509a2.848 2.848 0 01-2.444-1.376c-10.326-17.03-7.957-47.626-7.85-48.92a2.811 2.811 0 013.077-2.615 2.87 2.87 0 011.945.997 2.857 2.857 0 01.67 2.081c-.023.285-2.313 30.054 7.043 45.497a2.852 2.852 0 01-1 3.942 2.855 2.855 0 01-1.438.392l-.003.002z" fill="#509741"/></svg>