<svg width="198" height="200" fill="none" xmlns="http://www.w3.org/2000/svg"><path d="M100.083 70.9H25.09a2.93 2.93 0 000 5.86h74.994a2.93 2.93 0 10-.001-5.86zm0 20.585H25.09a2.93 2.93 0 000 5.859h74.994a2.93 2.93 0 10-.001-5.859zm0 20.584H25.09a2.93 2.93 0 000 5.859h74.994a2.93 2.93 0 10-.001-5.859zm2.93 23.514a2.929 2.929 0 00-2.929-2.929H25.089a2.93 2.93 0 000 5.859h74.995a2.93 2.93 0 002.929-2.93zM25.09 162.821a2.929 2.929 0 100 5.858h37.592a2.929 2.929 0 100-5.858H25.09zM133.842 36.27v-9.505a6.575 6.575 0 00-6.567-6.567H67.131a6.574 6.574 0 00-6.566 6.567v9.506a6.574 6.574 0 006.566 6.566h5.08a2.93 2.93 0 000-5.858h-5.08a.709.709 0 01-.708-.708v-9.506a.71.71 0 01.708-.708h60.144a.71.71 0 01.708.708v9.506c0 .39-.318.707-.708.707h-41.37a2.93 2.93 0 000 5.86h41.37a6.574 6.574 0 006.567-6.567z" fill="#509741"/><path d="M155.746 178.631a2.93 2.93 0 00-2.93 2.93v3.944c0 4.762-3.873 8.636-8.636 8.636H14.586c-4.761 0-8.636-3.874-8.636-8.636V44.698c0-.633.075-1.255.207-1.86H32.83c5.569 0 10.1-4.531 10.1-10.1V6.066a8.69 8.69 0 011.86-.207h99.39c4.762 0 8.636 3.874 8.636 8.636v39a2.929 2.929 0 105.859 0v-39C158.675 6.501 152.173 0 144.18 0H44.79a14.4 14.4 0 00-10.249 4.245L4.337 34.45A14.4 14.4 0 00.092 44.699v140.807C.092 193.498 6.594 200 14.586 200H144.18c7.993 0 14.495-6.502 14.495-14.494v-3.945a2.93 2.93 0 00-2.929-2.93zM37.071 10.001v22.737a4.245 4.245 0 01-4.24 4.24H10.092L37.07 10.002z" fill="#509741"/><path d="M195.869 104.687a11.637 11.637 0 001.46-10.215 11.635 11.635 0 00-7.186-7.405 5.82 5.82 0 01-3.874-5.334 11.637 11.637 0 00-4.824-9.122 11.635 11.635 0 00-10.165-1.768 5.82 5.82 0 01-6.27-2.037 11.635 11.635 0 00-9.264-4.545 11.635 11.635 0 00-9.264 4.545 5.821 5.821 0 01-6.269 2.037 11.637 11.637 0 00-10.167 1.768 11.638 11.638 0 00-4.823 9.122 5.82 5.82 0 01-3.875 5.333 11.633 11.633 0 00-7.184 7.406 11.635 11.635 0 001.459 10.215 5.818 5.818 0 010 6.592 11.635 11.635 0 00-1.459 10.215 11.632 11.632 0 007.184 7.406 5.82 5.82 0 013.875 5.334 11.714 11.714 0 0010.115 11.25v26.671c0 2.25 1.221 4.33 3.185 5.427a6.222 6.222 0 006.292-.133l10.744-6.614c.175-.108.279-.059.376 0l10.743 6.614a6.222 6.222 0 006.292.133 6.223 6.223 0 003.185-5.428v-26.671a11.71 11.71 0 0010.115-11.25 5.82 5.82 0 013.875-5.333 11.636 11.636 0 007.185-7.406 11.638 11.638 0 00-1.46-10.215 5.816 5.816 0 01-.001-6.592zm-26.12 67.773l-10.744-6.614a6.218 6.218 0 00-6.518 0l-10.744 6.614a.357.357 0 01-.547-.306v-27.227a5.814 5.814 0 015.286 2.234 11.638 11.638 0 009.264 4.545c3.652 0 7.029-1.657 9.264-4.545a5.812 5.812 0 015.286-2.234v27.227a.357.357 0 01-.547.306zm21.278-57.881a5.814 5.814 0 01.73 5.105 5.817 5.817 0 01-3.592 3.702 11.644 11.644 0 00-7.752 10.671 5.774 5.774 0 01-2.109 4.324 5.832 5.832 0 01-5.383 1.119 11.648 11.648 0 00-12.545 4.076 5.817 5.817 0 01-4.63 2.271 5.817 5.817 0 01-4.631-2.271c-2.265-2.928-5.672-4.553-9.227-4.553-1.101 0-2.217.156-3.317.477a5.83 5.83 0 01-5.384-1.12 5.768 5.768 0 01-2.108-4.323 11.649 11.649 0 00-7.753-10.672 5.814 5.814 0 01-3.591-3.701 5.813 5.813 0 01.729-5.105 11.647 11.647 0 000-13.191 5.814 5.814 0 01-.729-5.106 5.814 5.814 0 013.591-3.7 11.648 11.648 0 007.753-10.672 5.815 5.815 0 012.41-4.56 5.817 5.817 0 015.082-.883 11.647 11.647 0 0012.544-4.076 5.816 5.816 0 014.631-2.272c1.825 0 3.513.828 4.63 2.272a11.647 11.647 0 0012.545 4.076 5.814 5.814 0 015.081.883 5.813 5.813 0 012.41 4.56 11.648 11.648 0 007.753 10.67 5.815 5.815 0 013.592 3.702 5.816 5.816 0 01-.73 5.106 11.647 11.647 0 000 13.191z" fill="#509741"/><path d="M155.746 83.43c-13.539 0-24.553 11.015-24.553 24.553s11.014 24.553 24.553 24.553c13.538 0 24.552-11.015 24.552-24.553s-11.014-24.552-24.552-24.552zm0 43.247c-10.308 0-18.694-8.386-18.694-18.693 0-10.308 8.386-18.694 18.694-18.694s18.693 8.386 18.693 18.694c0 10.307-8.386 18.693-18.693 18.693z" fill="#509741"/></svg>