<svg width="122" height="50" fill="none" xmlns="http://www.w3.org/2000/svg"><path d="M19.986 14.97l-9.687-9.71L15.559 0l9.71 9.687-5.283 5.284z" fill="#3EB5F1"/><path d="M26.394 12.06L36.448 2.03l5.26 5.26-10.055 10.029-5.259-5.26z" fill="#CC4E6F"/><path d="M33.44 19.252l7.044-7.021 5.26 5.284-7.02 6.996-5.284-5.26z" fill="#002143"/><path d="M29.624 19.594L47.31 37.255l-5.284 5.26-17.662-17.662 5.26-5.26z" fill="#8EA6C8"/><path d="M23.997 39.653L34.54 50l5.26-5.26-10.544-10.346-5.259 5.259z" fill="#3EB5F1"/><path d="M27.324 32.094l-14.75 14.848-5.26-5.284 14.75-14.824 5.26 5.26z" fill="#CC4E6F"/><path d="M8.22 7.167l-5.26 5.26 7.485 7.534 5.26-5.26-7.486-7.534z" fill="#8EA6C8"/><path d="M0 34.613l5.26 5.26L23.115 22.04l-5.283-5.26L0 34.614z" fill="#002143"/><path d="M119.985 7.192a5.53 5.53 0 01-.733.196c-.367.049-.661.097-.93.097v.294c.391 0 .636.073.734.22.098.147.147.49.147 1.052v5.284c0 .611 0 1.003-.025 1.125a.484.484 0 01-.196.293c-.122.074-.293.098-.562.098h-.171v.294h2.862v-.294h-.147c-.269 0-.465-.049-.587-.122a.537.537 0 01-.196-.342c-.024-.147-.024-.514-.024-1.077V7.192h-.172zm-3.914 7.828a6.466 6.466 0 01-.905.611 1.482 1.482 0 01-.709.196c-.245 0-.416-.073-.563-.245-.146-.17-.22-.391-.22-.66 0-.685.563-1.272 1.688-1.713l.709-.293v2.104zm1.37.807c-.171 0-.293-.073-.342-.22-.049-.147-.074-.465-.074-.979v-2.152c0-.465-.048-.808-.146-1.028-.098-.22-.294-.416-.612-.587-.293-.171-.734-.269-1.296-.269-.734 0-1.297.147-1.639.416-.343.294-.538.563-.538.807 0 .245.122.392.391.392.294 0 .489-.22.538-.66.074-.441.44-.661 1.101-.661.318 0 .587.073.783.195.195.123.318.27.367.44.049.172.073.441.073.808v.269l-1.027.416c-.783.318-1.37.636-1.811.978-.44.343-.66.734-.66 1.174 0 .343.122.612.391.832.269.22.587.318.93.318.293 0 .611-.073.954-.244.367-.147.758-.392 1.199-.71.048.318.171.538.342.71.171.146.416.244.709.244.685 0 1.052-.367 1.101-1.125h-.244c-.025.416-.221.636-.49.636zm-11.839-4.941v.293c.318 0 .538.025.636.098.122.073.196.171.196.294.024.122.048.513.048 1.125v1.59c0 .66-.024 1.052-.048 1.174a.353.353 0 01-.221.27c-.122.048-.318.097-.636.097v.293h2.716v-.293c-.318 0-.539-.024-.636-.098-.123-.073-.196-.171-.196-.293-.025-.123-.025-.514-.025-1.126v-2.177a3.11 3.11 0 01.832-.856 1.59 1.59 0 01.905-.293c.269 0 .514.073.685.22.171.146.294.293.343.489.049.171.073.49.073.905v1.737c0 .587 0 .954-.024 1.076a.588.588 0 01-.172.318c-.098.098-.293.147-.611.147h-.123v.293h2.74v-.293c-.318 0-.514-.025-.636-.098-.122-.073-.196-.171-.196-.293-.024-.123-.024-.514-.024-1.126v-1.663c0-.49-.049-.88-.122-1.125-.074-.27-.245-.49-.514-.66-.269-.172-.612-.27-1.052-.27-.367 0-.734.098-1.076.27-.343.17-.661.464-.979.83-.024-.464-.073-.83-.171-1.1h-.171c-.563.098-1.052.196-1.541.245zm-4.77.611c.293-.391.734-.587 1.321-.587s1.003.196 1.321.612c.293.391.44 1.076.44 2.005 0 .955-.147 1.615-.465 2.006-.293.392-.734.563-1.321.563-.562 0-1.003-.196-1.296-.563-.318-.391-.465-1.051-.465-2.005.024-.955.171-1.64.465-2.03zm-.71 4.085c.563.538 1.223.783 2.006.783.783 0 1.468-.244 2.031-.783.562-.513.831-1.223.831-2.128 0-.807-.269-1.492-.831-2.055-.539-.562-1.224-.831-2.031-.831-.807 0-1.467.269-2.03.831a2.884 2.884 0 00-.832 2.055c.025.905.318 1.615.856 2.128zm-2.397-4.99c-.416.147-1.027.27-1.81.343v.318h.171c.245 0 .416.024.514.049.098.024.171.122.245.269.048.146.097.513.097 1.15v1.614c0 .587 0 .954-.024 1.076a.584.584 0 01-.171.318c-.098.098-.294.147-.612.147h-.22v.293h2.91v-.293h-.146c-.269 0-.465-.05-.587-.122a.536.536 0 01-.196-.343c-.024-.147-.024-.514-.024-1.076v-3.743h-.147zm-.905-2.226c.122.147.294.196.49.196a.626.626 0 00.464-.196.683.683 0 00.196-.49c0-.195-.074-.342-.196-.488a.578.578 0 00-.465-.196.725.725 0 00-.489.196.726.726 0 00-.196.489c0 .171.074.342.196.49zm-1.052 2.446h-1.614V9.15h-.22c-.074.538-.27.93-.539 1.223-.293.293-.611.44-.954.44v.294h.783v3.033c0 .612.025 1.052.098 1.296.049.245.196.465.44.661.245.196.514.27.832.27.27 0 .538-.074.807-.221.27-.147.465-.367.587-.66l-.22-.123c-.22.367-.514.538-.807.538a.805.805 0 01-.465-.146.6.6 0 01-.269-.416c-.049-.171-.073-.514-.073-1.003v-3.23h1.614v-.293zm-5.553 4.208a6.466 6.466 0 01-.905.611 1.484 1.484 0 01-.71.196c-.244 0-.415-.073-.562-.245-.147-.17-.22-.391-.22-.66 0-.685.563-1.272 1.688-1.713l.71-.293v2.104zm1.37.807c-.171 0-.293-.073-.342-.22-.05-.147-.074-.465-.074-.979v-2.152c0-.465-.049-.808-.147-1.028-.097-.22-.293-.416-.611-.587-.293-.171-.734-.269-1.296-.269-.734 0-1.297.147-1.64.416-.342.294-.538.563-.538.807 0 .245.123.392.392.392.293 0 .489-.22.538-.66.073-.441.44-.661 1.1-.661.319 0 .588.073.784.195.195.123.317.27.367.44.048.172.073.441.073.808v.269l-1.003.416c-.783.318-1.37.636-1.81.978-.44.343-.66.734-.66 1.174 0 .343.122.612.39.832.27.22.588.318.93.318.294 0 .612-.073.954-.244.367-.147.758-.392 1.199-.71.049.318.171.538.342.71.171.146.416.244.71.244.685 0 1.052-.367 1.1-1.125H92.1c-.05.416-.245.636-.514.636zm-11.84-4.941v.293c.319 0 .539.025.637.098.122.073.195.171.195.294.025.122.05.513.05 1.125v1.59c0 .66-.025 1.052-.05 1.174a.352.352 0 01-.22.27c-.122.048-.318.097-.636.097v.293h2.715v-.293c-.318 0-.538-.024-.636-.098-.122-.073-.195-.171-.195-.293-.025-.123-.05-.514-.05-1.126v-2.177c.245-.367.539-.66.832-.856.294-.196.588-.293.906-.293.269 0 .513.073.684.22.172.146.294.293.343.489.049.171.073.49.073.905v1.737c0 .587 0 .954-.024 1.076 0 .122-.073.22-.171.318-.098.098-.294.147-.612.147h-.122v.293h2.74v-.293c-.318 0-.514-.025-.636-.098a.402.402 0 01-.196-.293c-.025-.123-.025-.514-.025-1.126v-1.663c0-.49-.048-.88-.122-1.125-.073-.27-.244-.49-.514-.66-.269-.172-.611-.27-1.052-.27-.366 0-.733.098-1.076.27-.342.17-.66.464-.978.83-.025-.464-.074-.83-.172-1.1h-.22c-.489.098-.978.196-1.467.245zm-3.326-.294c-.66.22-1.199.343-1.59.391v.294h.147c.269 0 .464.049.587.122a.536.536 0 01.195.343c.025.147.025.513.025 1.076v1.517c0 .611 0 1.003-.025 1.125a.487.487 0 01-.195.293c-.123.074-.294.098-.563.098h-.147v.294h2.838v-.294h-.196c-.293 0-.49-.049-.587-.122a.535.535 0 01-.196-.342c-.024-.147-.024-.514-.024-1.077v-.954c0-.489.049-.856.098-1.125.073-.269.244-.538.513-.783.27-.244.49-.391.685-.391.147 0 .27.098.343.318.122.318.269.49.49.49a.43.43 0 00.317-.148.515.515 0 00.122-.318c0-.195-.073-.367-.244-.538a.92.92 0 00-.685-.269c-.318 0-.636.122-.979.391-.342.27-.587.588-.733.979 0-.563-.074-1.027-.196-1.37zm-5.969 1.761c.147-.978.636-1.467 1.419-1.467.318 0 .612.098.832.318.22.22.342.513.342.88 0 .074 0 .171-.024.27H70.45zm3.082-1.1c-.391-.44-.93-.636-1.639-.636-.758 0-1.37.269-1.859.831-.489.563-.758 1.272-.758 2.104 0 .587.122 1.1.391 1.517.27.415.587.733 1.003.978a2.636 2.636 0 002.642-.024 1.79 1.79 0 00.832-1.052h-.318c-.343.71-.905 1.076-1.688 1.076-.587 0-1.027-.245-1.32-.71-.294-.464-.441-1.173-.441-2.103 0-.122 0-.318.024-.563h3.743a2.136 2.136 0 00-.612-1.418zm-4.696-.44H67.22V9.148h-.196c-.073.538-.244.93-.538 1.223-.269.293-.611.44-.954.44v.294h.783v3.033c0 .612.025 1.052.098 1.296.049.245.196.465.44.661.245.196.514.27.832.27.269 0 .538-.074.807-.221.27-.147.465-.367.587-.66l-.22-.123c-.22.367-.514.538-.807.538a.805.805 0 01-.465-.146.6.6 0 01-.269-.416c-.049-.171-.073-.514-.073-1.003v-3.23h1.614v-.293h-.024zm-10.127.073v.293c.317 0 .538.025.635.098.123.073.196.171.196.294.025.122.05.513.05 1.125v1.59c0 .66-.025 1.052-.05 1.174a.353.353 0 01-.22.27c-.122.048-.318.097-.636.097v.293h2.715v-.293c-.318 0-.538-.024-.636-.098a.437.437 0 01-.22-.293c-.024-.123-.024-.514-.024-1.126v-2.177c.244-.367.538-.66.831-.856a1.59 1.59 0 01.905-.293c.27 0 .514.073.685.22.172.146.294.293.343.489.049.171.073.49.073.905v1.737c0 .587 0 .954-.024 1.076 0 .122-.074.22-.172.318-.097.098-.293.147-.611.147h-.122v.293h2.74v-.293c-.319 0-.514-.025-.637-.098a.402.402 0 01-.195-.293c-.025-.123-.025-.514-.025-1.126v-1.663c0-.49-.049-.88-.122-1.125-.073-.27-.245-.49-.538-.66-.27-.172-.612-.27-1.052-.27-.367 0-.734.098-1.076.27-.343.17-.685.464-.979.83-.024-.464-.073-.83-.171-1.1h-.196c-.514.098-1.003.196-1.468.245zm-4.306-3.278c.44 0 .734.049.88.122.123.073.221.22.27.416.049.196.049.66.049 1.37v4.354c0 .734-.025 1.223-.05 1.419-.048.196-.121.342-.268.44-.147.098-.416.147-.783.147h-.27v.293h4.062v-.293h-.27c-.39 0-.684-.05-.807-.147-.147-.098-.22-.269-.269-.49-.024-.22-.049-.66-.049-1.369V9.516c0-.734.025-1.199.074-1.395a.599.599 0 01.269-.39c.122-.074.416-.099.856-.099h.196V7.34h-4.061v.293h.171v-.024zm26.492 18.248c.147-.978.636-1.467 1.42-1.467.317 0 .61.098.83.318.221.22.343.513.343.88 0 .074 0 .172-.024.27h-2.569zm3.107-1.125c-.391-.416-.93-.636-1.639-.636-.758 0-1.37.27-1.859.832-.49.562-.734 1.272-.734 2.104 0 .587.123 1.1.392 1.516.269.416.587.734 1.002.979.392.22.832.342 1.297.342.49 0 .93-.122 1.345-.367a1.79 1.79 0 00.832-1.052h-.318c-.318.71-.905 1.077-1.688 1.077-.587 0-1.027-.245-1.32-.71-.294-.465-.441-1.174-.441-2.128 0-.122 0-.318.024-.563h3.743c-.049-.489-.245-.954-.636-1.394zm-6.409 3.816a2.986 2.986 0 01-.783.71c-.293.146-.587.244-.93.244-.489 0-.929-.196-1.247-.611-.342-.416-.513-1.052-.513-1.933 0-.856.17-1.468.489-1.859.342-.367.734-.563 1.223-.563.293 0 .587.074.88.196.294.122.587.318.881.563v3.253zm-.905-4.256a2.844 2.844 0 00-1.027-.196c-.71 0-1.321.27-1.835.807-.514.538-.783 1.248-.783 2.104 0 .783.245 1.468.758 2.03.514.563 1.101.832 1.81.832.368 0 .71-.073 1.052-.245a3.391 3.391 0 001.003-.733c0 .44.025.758.074.978.489-.098 1.052-.147 1.688-.171v-.294c-.318 0-.538-.024-.636-.098-.123-.073-.196-.17-.196-.293-.025-.122-.025-.514-.025-1.125V20.67h-.146c-.636.172-1.199.27-1.737.27v.293h.147c.269 0 .465.049.587.122.122.074.171.196.196.343.024.147.024.514.024 1.076v2.08c-.343-.245-.636-.44-.954-.563zm-6.115 4.232a6.57 6.57 0 01-.906.611c-.269.122-.513.196-.709.196-.245 0-.416-.073-.563-.245-.146-.17-.22-.391-.22-.66 0-.685.563-1.272 1.688-1.713l.71-.293v2.104zm1.345.807c-.171 0-.294-.073-.343-.22-.049-.147-.073-.465-.073-.979V25.98c0-.465-.049-.808-.147-1.028-.098-.22-.293-.416-.611-.587-.294-.171-.734-.269-1.297-.269-.734 0-1.296.147-1.639.416-.342.294-.538.563-.538.807 0 .245.123.367.392.367.293 0 .489-.22.562-.66.073-.44.44-.66 1.1-.66.319 0 .588.073.784.195.195.122.318.269.367.44.049.171.073.44.073.807v.27l-1.003.415c-.783.318-1.37.636-1.81.979-.44.342-.66.734-.66 1.174 0 .342.122.611.39.832.27.22.588.318.93.318.294 0 .612-.074.954-.245.367-.147.759-.391 1.199-.685.049.318.171.538.343.685.17.147.39.245.709.245.685 0 1.052-.367 1.1-1.126h-.244c-.073.44-.245.66-.538.66zm-7.95-5.235c-.66.22-1.199.343-1.59.392v.293h.147c.269 0 .464.049.587.122a.535.535 0 01.195.343c.025.146.025.514.025 1.076v1.517c0 .611 0 1.003-.025 1.125a.486.486 0 01-.195.293c-.123.074-.294.098-.563.098h-.147v.294h2.838v-.294h-.196c-.269 0-.465-.049-.587-.122-.122-.073-.171-.196-.196-.342-.024-.147-.024-.514-.024-1.077v-.954c0-.489.024-.856.122-1.125.074-.27.245-.538.514-.783.269-.244.49-.391.685-.391.147 0 .269.098.342.318.123.318.27.49.49.49a.43.43 0 00.317-.148.405.405 0 00.123-.318c0-.195-.074-.367-.245-.538a.92.92 0 00-.685-.269c-.318 0-.636.122-.978.392-.343.269-.563.587-.734.978-.025-.563-.098-1.027-.22-1.37zm-9.076-2.422c.172-.269.367-.44.563-.489.196-.049.587-.073 1.15-.073h1.32v6.262c0 .734-.024 1.223-.048 1.419a.8.8 0 01-.27.44c-.146.098-.415.147-.782.147h-.465v.293h4.428v-.318h-.44c-.392 0-.661-.049-.808-.146-.147-.098-.244-.27-.269-.49-.024-.22-.049-.685-.049-1.37v-6.237h1.419c.49 0 .832.024 1.027.098.196.049.392.22.563.464.171.27.318.685.416 1.272h.269l-.049-2.152h-8.61l-.05 2.128h.294c.098-.563.22-.979.391-1.248zM85.054 38.6c.147-.977.636-1.467 1.419-1.467.318 0 .611.098.831.318.22.22.343.514.343.905 0 .074 0 .172-.025.27h-2.568V38.6zm3.107-1.1c-.392-.44-.93-.636-1.64-.636-.758 0-1.37.27-1.859.832-.489.563-.733 1.272-.733 2.104 0 .587.122 1.1.391 1.516.245.416.587.734.979.979.415.22.831.342 1.296.342.49 0 .93-.122 1.345-.367a1.79 1.79 0 00.832-1.052h-.318c-.342.71-.905 1.077-1.688 1.077-.587 0-1.027-.245-1.32-.71-.294-.465-.441-1.174-.441-2.128 0-.122 0-.318.024-.587h3.743c-.024-.49-.22-.954-.611-1.37zm-7.217-.66c-.66.22-1.198.342-1.614.391v.294h.147c.269 0 .464.049.587.122a.536.536 0 01.195.342c.025.147.025.514.025 1.077v1.516c0 .612 0 1.003-.025 1.126a.487.487 0 01-.195.293c-.123.074-.294.098-.563.098h-.147v.294h2.838v-.294h-.171c-.294 0-.49-.049-.588-.122-.122-.074-.17-.196-.195-.343-.025-.147-.025-.514-.025-1.076v-.93c0-.464.05-.856.123-1.125s.244-.538.513-.783c.27-.244.49-.391.66-.391.148 0 .27.098.343.318.123.318.27.49.49.49a.43.43 0 00.318-.148.515.515 0 00.122-.318c0-.195-.073-.367-.245-.538a.92.92 0 00-.685-.269c-.318 0-.636.123-.978.392a2.157 2.157 0 00-.71.978c-.024-.587-.097-1.052-.22-1.394zm-1.957.22h-1.614v-1.688h-.22c-.074.538-.245.93-.538 1.223-.294.294-.612.44-.954.44v.294h.782v3.033c0 .612.025 1.052.098 1.297.05.244.196.465.44.66.245.196.514.27.832.27.27 0 .538-.074.807-.22.27-.148.465-.368.612-.661l-.22-.123c-.245.367-.514.538-.807.538a.806.806 0 01-.465-.146.6.6 0 01-.27-.416c-.048-.171-.073-.514-.073-1.003v-3.23h1.615v-.268h-.025zm-10.151.073v.294c.318 0 .538.024.636.098a.437.437 0 01.22.293c.024.123.024.514.024 1.125v1.59c0 .66 0 1.052-.049 1.175a.353.353 0 01-.22.269c-.122.049-.318.098-.636.098v.293h2.715v-.294c-.317 0-.538-.024-.635-.097a.437.437 0 01-.22-.294c-.025-.122-.025-.514-.025-1.125v-2.153c.269-.391.538-.66.832-.856a1.59 1.59 0 01.905-.294c.269 0 .513.074.685.22.17.148.293.294.342.49.049.171.049.49.049.905v1.712c0 .587 0 .954-.025 1.077a.584.584 0 01-.17.318c-.099.098-.294.147-.612.147h-.123v.293h2.74v-.294c-.318 0-.514-.024-.636-.097-.122-.074-.195-.172-.195-.294-.025-.122-.025-.514-.025-1.125v-1.712c0-.49-.049-.881-.122-1.126-.074-.269-.245-.489-.514-.66-.27-.172-.612-.27-1.052-.27-.367 0-.734.099-1.076.27-.343.171-.66.465-.979.831a3.24 3.24 0 00-.17-1.1h-.172a8.454 8.454 0 01-1.492.293zm-4.33 1.468c.147-.978.636-1.468 1.419-1.468.318 0 .611.098.831.318.22.22.343.514.343.905 0 .074 0 .172-.025.27h-2.568V38.6zm3.107-1.1c-.392-.441-.93-.637-1.64-.637-.758 0-1.37.27-1.858.832-.49.563-.759 1.272-.759 2.104 0 .587.123 1.1.392 1.516.269.416.587.734 1.003.979.415.22.831.342 1.296.342.49 0 .954-.122 1.346-.367a1.79 1.79 0 00.831-1.052h-.318c-.342.71-.905 1.077-1.688 1.077-.587 0-1.027-.245-1.32-.71-.294-.465-.441-1.174-.441-2.128 0-.122 0-.318.025-.587h3.742c-.024-.49-.22-.954-.611-1.37zm-6.14 3.18c-.294.537-.685.929-1.175 1.173-.489.22-.978.343-1.467.343-.88 0-1.64-.367-2.226-1.052-.587-.71-.905-1.737-.905-3.058 0-1.394.269-2.47.831-3.229.539-.758 1.272-1.125 2.202-1.125.758 0 1.443.245 2.03.71.612.464 1.003 1.296 1.199 2.495h.269l-.073-3.352h-.27a3.276 3.276 0 01-.342 1.15c-.269-.318-.66-.636-1.199-.905a4.022 4.022 0 00-1.81-.416c-.807 0-1.54.196-2.201.563-.685.367-1.199.954-1.566 1.712a5.711 5.711 0 00-.563 2.47c0 1.322.416 2.398 1.224 3.205.807.807 1.859 1.223 3.13 1.223 1.224 0 2.202-.44 2.985-1.32.196.268.343.586.416.929h.269V39.09h-.27c-.048.514-.22 1.052-.488 1.59z" fill="#fff"/></svg>