<svg width="53" height="50" fill="none" xmlns="http://www.w3.org/2000/svg"><g clip-path="url(#clip0)"><path d="M52.141.38H.485v36.19h51.656V.38z" fill="#163D73"/><path d="M26.301 4.326l.482 1.593h1.613l-1.3.987.482 1.593-1.277-.986-1.3.986.505-1.593-1.3-.987h1.59l.505-1.593zm0 24.126l.482 1.593h1.613l-1.3.986.482 1.619-1.277-1.012-1.3 1.012.505-1.619-1.3-.986h1.59l.505-1.593zM20.57 5.92l.505 1.618 1.59-.025-1.3.986.505 1.593-1.3-.986-1.277.986.482-1.593-1.276-.986 1.589.025.482-1.619zm-4.19 4.425l.481 1.618 1.614-.025-1.325.986.506 1.619-1.276-1.012-1.301 1.012.506-1.619-1.325-.986 1.614.025.505-1.618zm-1.566 6.019l.482 1.618 1.613-.025-1.3.986.505 1.619-1.3-1.012-1.3 1.012.505-1.619-1.3-.986 1.613.025.482-1.618zm1.541 6.018l.482 1.619h1.614l-1.3.986.505 1.593-1.3-1.011-1.301 1.011.506-1.593-1.3-.986h1.589l.505-1.619zm4.215 4.426l.505 1.619h1.59l-1.3.986.505 1.593-1.3-1.012-1.277 1.012.482-1.593-1.276-.986h1.589l.482-1.619zM32.009 5.92l-.482 1.618-1.613-.025 1.3.986-.482 1.593 1.277-.986 1.3.986-.506-1.593 1.3-.986-1.589.025-.505-1.619zm4.214 4.425l-.482 1.618-1.613-.025 1.3.986-.505 1.619 1.3-1.012 1.3 1.012-.505-1.619 1.3-.986-1.613.025-.482-1.618zm1.565 6.019l-.505 1.618-1.59-.025 1.3.986-.505 1.619 1.3-1.012 1.277 1.012-.482-1.619 1.277-.986-1.59.025-.482-1.618zm-1.541 6.018l-.506 1.619h-1.59l1.301.986-.505 1.593 1.3-1.011 1.3 1.011-.505-1.593 1.3-.986H36.73l-.482-1.619zm-4.238 4.426l-.482 1.619h-1.613l1.3.986-.482 1.593 1.277-1.012 1.3 1.012-.506-1.593 1.3-.986h-1.589l-.505-1.619z" fill="#FAEE3C"/><path d="M.485 42.411v6.879h4.142v-1.088H1.665V46.13H3.81v-1.037H1.665V43.5h3.01v-1.09H.486zm5.13 0H6.77v4.653c0 .38.096.658.313.91.216.228.505.355.89.355.41 0 .747-.101.988-.329s.361-.531.361-.936v-4.628h1.156v4.73c0 .708-.216 1.264-.674 1.669-.458.404-1.06.606-1.806.606-.77 0-1.349-.202-1.758-.581-.41-.38-.626-.961-.626-1.67v-4.779zm8.741 2.049l-1.685 2.073h1.685V44.46zm1.132 3.01v1.795H14.38v-1.796h-3.01v-.708l3.588-4.4h.506v4.147h.65v.961h-.626zm2.818-1.493v2.276c.24.025.433.025.578.025.53 0 .891-.1 1.132-.278.24-.177.361-.48.361-.91 0-.38-.096-.683-.313-.86-.217-.177-.602-.278-1.132-.278-.168.025-.361.025-.626.025zm0-2.605v1.644c.169 0 .361.025.554.025.746 0 1.132-.303 1.132-.885 0-.53-.337-.784-1.036-.784h-.65zm.819 5.918h-1.999v-6.88c.891-.05 1.493-.076 1.854-.076.675 0 1.204.152 1.59.456.385.303.578.733.578 1.315 0 .556-.265.986-.82 1.29.82.303 1.23.91 1.23 1.846 0 .632-.218 1.112-.675 1.492-.458.354-1.036.556-1.758.556zm6.478 0v-.43c-.169.152-.385.253-.65.354-.29.101-.53.152-.77.152-1.109 0-1.663-.633-1.663-1.846v-3.263h1.108v3.161c0 .633.265.961.82.961.264 0 .48-.075.697-.202a1.01 1.01 0 00.434-.48v-3.465h1.108v5.032h-1.084v.026zm2.071-.329l.41-.935c.336.278.722.43 1.131.43.434 0 .65-.152.65-.481a.664.664 0 00-.192-.48c-.12-.127-.386-.279-.771-.43-.819-.354-1.228-.86-1.228-1.518 0-.43.168-.784.482-1.011.313-.253.722-.354 1.204-.354.505 0 .963.126 1.396.354l-.313.91c-.24-.227-.578-.329-1.011-.329-.385 0-.578.152-.578.48 0 .127.072.254.193.355.12.101.409.253.818.404.41.177.723.38.915.633.193.253.29.556.29.885 0 .455-.17.834-.506 1.113-.337.278-.771.404-1.349.404-.313 0-.578-.025-.77-.076-.217-.075-.458-.202-.771-.354zm5.057-6.651c.169 0 .337.076.458.202.12.127.193.304.193.48a.708.708 0 01-.193.481.643.643 0 01-.458.203.643.643 0 01-.457-.203.709.709 0 01-.193-.48c0-.177.072-.354.193-.48.12-.152.265-.203.457-.203zm-.578 6.98v-4.072h-.602v-.96h1.734v5.032h-1.132zm5.443 0v-2.908c0-.43-.073-.734-.241-.936-.145-.202-.41-.303-.77-.303-.17 0-.338.05-.53.151a1.304 1.304 0 00-.434.354v3.642h-1.108v-5.032h.795l.217.48c.313-.38.746-.556 1.348-.556.578 0 1.012.177 1.349.53.337.355.505.86.505 1.493v3.085h-1.131zm3.227-3.06h2.36c-.072-.733-.458-1.113-1.156-1.113-.65.025-1.036.38-1.204 1.113zm3.395.885h-3.42c.025.405.145.708.386.936.24.227.578.328.963.328.506 0 .891-.151 1.156-.43l.434.886c-.386.328-.988.505-1.758.505-.723 0-1.3-.227-1.734-.682-.434-.456-.626-1.088-.626-1.872s.24-1.441.698-1.922a2.274 2.274 0 011.686-.733c.698 0 1.252.227 1.661.657.41.43.627.987.627 1.67.024.151-.024.379-.073.657zm.723 1.846l.385-.935c.337.278.723.43 1.132.43.434 0 .65-.152.65-.481a.664.664 0 00-.192-.48c-.12-.127-.385-.279-.77-.43-.82-.354-1.229-.86-1.229-1.518 0-.43.169-.784.482-1.011.313-.253.722-.354 1.204-.354.505 0 .963.126 1.396.354l-.313.91c-.24-.227-.578-.329-1.011-.329-.385 0-.578.152-.578.48 0 .127.072.254.193.355.12.101.41.253.819.404.409.177.722.38.915.633.192.253.264.556.264.885 0 .455-.168.834-.481 1.113-.337.278-.77.404-1.349.404-.313 0-.578-.025-.77-.076-.193-.075-.434-.202-.747-.354zm3.901 0l.385-.935c.337.278.723.43 1.132.43.434 0 .65-.152.65-.481a.664.664 0 00-.192-.48c-.12-.127-.386-.279-.77-.43-.82-.354-1.23-.86-1.23-1.518 0-.43.17-.784.483-1.011.313-.253.722-.354 1.204-.354.505 0 .963.126 1.396.354l-.313.91c-.24-.227-.578-.329-1.011-.329-.386 0-.578.152-.578.48 0 .127.072.254.193.355.12.101.409.253.818.404.41.177.723.38.916.633.192.253.264.556.264.885 0 .455-.168.834-.481 1.113-.337.278-.77.404-1.349.404-.313 0-.578-.025-.77-.076-.217-.075-.458-.202-.747-.354z" fill="#000"/></g><defs><clipPath id="clip0"><path fill="#fff" d="M0 0h52.326v50H0z"/></clipPath></defs></svg>