<svg width="228" height="90" fill="none" xmlns="http://www.w3.org/2000/svg"><path fill-rule="evenodd" clip-rule="evenodd" d="M123.531 30.732c0 1.796-.216 3.338-.649 4.626-.433 1.288-1.039 2.343-1.818 3.166a7.129 7.129 0 01-2.776 1.818c-1.072.39-2.246.584-3.523.584-1.277 0-2.451-.195-3.523-.584a7.125 7.125 0 01-2.775-1.818c-.78-.823-1.391-1.878-1.835-3.166-.443-1.288-.665-2.83-.665-4.626v-4.189c0-1.796.222-3.338.665-4.626.444-1.288 1.055-2.343 1.835-3.166a7.123 7.123 0 012.775-1.818c1.072-.39 2.246-.584 3.523-.584 1.277 0 2.451.195 3.523.584a7.127 7.127 0 012.776 1.818c.779.823 1.385 1.878 1.818 3.166.433 1.288.649 2.83.649 4.626v4.189zm-2.987-4.189c0-1.363-.135-2.521-.406-3.474-.27-.952-.654-1.731-1.152-2.337a4.287 4.287 0 00-1.818-1.315c-.714-.27-1.515-.406-2.403-.406-.887 0-1.688.135-2.402.406a4.4 4.4 0 00-1.835 1.315c-.508.606-.898 1.385-1.169 2.337-.27.953-.405 2.11-.405 3.474v4.189c0 1.363.135 2.521.405 3.474.271.952.655 1.731 1.153 2.337a4.268 4.268 0 001.834 1.315c.726.27 1.532.406 2.419.406.888 0 1.689-.135 2.403-.406a4.287 4.287 0 001.818-1.315c.498-.606.882-1.385 1.152-2.337.271-.953.406-2.11.406-3.474v-4.189zm15.162-2.013c0 .368-.227.552-.681.552-.758 0-1.489.103-2.192.309-.703.205-1.466.557-2.289 1.055V40.05a.623.623 0 01-.195.454.62.62 0 01-.454.195h-1.591a.571.571 0 01-.438-.195.653.653 0 01-.179-.454V23.49c0-.173.06-.324.179-.454a.571.571 0 01.438-.195h1.526c.173 0 .319.065.438.195s.179.281.179.454v.682c.822-.563 1.607-.963 2.354-1.2a7.293 7.293 0 012.224-.358c.454 0 .681.195.681.584v1.331zm17.078-.13c0 .217-.054.363-.162.439a1.265 1.265 0 01-.422.178l-1.169.228c.303.303.563.714.779 1.233.217.52.325 1.223.325 2.11v.26c0 1.797-.574 3.172-1.721 4.124-1.147.952-2.976 1.428-5.487 1.428-.865 0-1.591-.06-2.175-.178a8.864 8.864 0 01-1.591-.471c-.541.26-.812.628-.812 1.104 0 .281.076.498.228.65.151.15.411.28.779.389l4.837 1.234a34.4 34.4 0 012.322.649 9.15 9.15 0 011.997.893 4.416 4.416 0 011.396 1.315c.346.52.519 1.158.519 1.915v.26c0 1.558-.568 2.787-1.704 3.685-1.137.898-3.036 1.347-5.698 1.347-2.576 0-4.465-.46-5.666-1.38-1.201-.92-1.802-2.18-1.802-3.782v-.292c0-.91.206-1.72.617-2.435.411-.714.888-1.277 1.429-1.688l-.228-.098c-.519-.238-.898-.595-1.136-1.071a3.234 3.234 0 01-.357-1.461v-.033c0-.433.108-.865.325-1.298.216-.433.551-.78 1.006-1.04a4.705 4.705 0 01-1.12-1.623c-.249-.606-.373-1.32-.373-2.142v-.26c0-.714.113-1.418.34-2.11a4.565 4.565 0 011.169-1.851c.552-.541 1.288-.974 2.208-1.299.92-.325 2.083-.487 3.49-.487h7.111a.74.74 0 01.519.211.666.666 0 01.227.503v.845zm-3.474 4.189a4.72 4.72 0 00-.195-1.364 2.44 2.44 0 00-.681-1.104c-.325-.303-.774-.546-1.348-.73-.573-.184-1.293-.276-2.159-.276-.909 0-1.65.097-2.224.292-.574.195-1.017.45-1.331.763-.314.314-.53.682-.649 1.104a4.82 4.82 0 00-.179 1.315v.26c0 .368.054.746.163 1.136.108.39.319.747.633 1.071.314.325.757.59 1.331.796.574.205 1.326.308 2.256.308.866 0 1.586-.08 2.159-.243.574-.163 1.023-.39 1.348-.682.324-.292.552-.639.681-1.04.13-.4.195-.849.195-1.346v-.26zm.26 13.311c0-.627-.298-1.114-.893-1.46-.595-.347-1.618-.704-3.068-1.072l-3.669-.942c-.476.411-.86.855-1.152 1.331-.293.477-.439 1.137-.439 1.98v.293c0 .455.076.866.228 1.234.151.368.406.676.763.925s.833.444 1.428.584c.595.141 1.348.212 2.257.212.93 0 1.688-.065 2.272-.195.585-.13 1.045-.314 1.38-.552a1.87 1.87 0 00.698-.877c.13-.346.195-.746.195-1.201v-.26zm19.026-1.85a.623.623 0 01-.195.454.624.624 0 01-.455.195h-1.493a.624.624 0 01-.455-.195.623.623 0 01-.195-.454v-.715a15.14 15.14 0 01-2.402 1.137 7.456 7.456 0 01-2.597.454 8.063 8.063 0 01-1.997-.243 4.165 4.165 0 01-1.688-.86c-.487-.412-.877-.953-1.169-1.624-.292-.671-.439-1.515-.439-2.532v-.39c0-.866.136-1.629.406-2.289a3.793 3.793 0 011.331-1.656c.617-.444 1.424-.774 2.419-.99.996-.216 2.219-.325 3.669-.325h2.403V28.72c0-1.364-.26-2.316-.78-2.857-.519-.541-1.417-.812-2.694-.812-1.061 0-1.992.027-2.793.081-.8.054-1.526.114-2.175.179h-.162a.833.833 0 01-.406-.098c-.119-.065-.179-.205-.179-.422v-1.136c0-.346.228-.552.682-.617a43.494 43.494 0 012.192-.292 26.6 26.6 0 012.841-.13c2.251 0 3.869.541 4.853 1.623.985 1.083 1.478 2.576 1.478 4.48V40.05zm-2.857-7.987h-2.403c-.974 0-1.786.06-2.435.178-.649.12-1.158.303-1.526.552a2.012 2.012 0 00-.779.974c-.152.4-.227.893-.227 1.478v.39c0 1.168.259 1.953.779 2.353.519.4 1.255.6 2.207.6.758 0 1.483-.108 2.176-.324a11.944 11.944 0 002.208-.974v-5.227zm20.94 7.987a.626.626 0 01-.194.454.623.623 0 01-.455.195h-1.558a.624.624 0 01-.455-.195.623.623 0 01-.195-.454V29.368c0-.822-.07-1.51-.21-2.062-.141-.552-.358-.99-.65-1.315a2.447 2.447 0 00-1.12-.698c-.455-.14-.985-.21-1.591-.21-.692 0-1.407.118-2.143.357-.736.238-1.482.54-2.24.909v13.7a.623.623 0 01-.195.455.622.622 0 01-.454.195h-1.591a.571.571 0 01-.438-.195.653.653 0 01-.179-.454V23.49c0-.173.06-.324.179-.454a.571.571 0 01.438-.195h1.623c.173 0 .319.065.439.195.118.13.178.281.178.454v.617c.909-.498 1.753-.87 2.532-1.12.78-.249 1.656-.373 2.63-.373 1.97 0 3.404.584 4.302 1.753.898 1.169 1.347 2.836 1.347 5V40.05zm7.695-20.714a.623.623 0 01-.195.454.622.622 0 01-.454.195h-1.656a.624.624 0 01-.455-.195.626.626 0 01-.194-.454v-2.598c0-.173.065-.324.194-.454a.624.624 0 01.455-.195h1.656c.173 0 .324.065.454.195s.195.281.195.454v2.598zm-.065 20.714a.623.623 0 01-.195.454.62.62 0 01-.454.195h-1.559a.622.622 0 01-.454-.195.623.623 0 01-.195-.454V23.49c0-.173.065-.324.195-.454a.622.622 0 01.454-.195h1.559a.62.62 0 01.454.195c.13.13.195.281.195.454v16.56zm15.844-.195c0 .216-.043.379-.13.487-.087.108-.26.184-.519.227a18.09 18.09 0 01-1.867.26 23.84 23.84 0 01-2.192.097c-1.104 0-2.083-.19-2.938-.568a6.156 6.156 0 01-2.175-1.59c-.596-.683-1.045-1.51-1.348-2.485-.302-.974-.454-2.056-.454-3.246v-2.533c0-1.19.152-2.272.454-3.246.303-.974.747-1.802 1.332-2.484a5.966 5.966 0 012.175-1.59c.866-.38 1.85-.569 2.954-.569.758 0 1.488.032 2.192.097.703.065 1.325.152 1.867.26.259.043.432.114.519.211.087.098.13.265.13.503v1.17c0 .172-.054.297-.162.372a.661.661 0 01-.39.114h-.13a30.445 30.445 0 00-1.948-.178 38.315 38.315 0 00-2.078-.05c-1.298 0-2.3.44-3.003 1.316-.703.877-1.055 2.235-1.055 4.074v2.533c0 1.84.346 3.198 1.039 4.075.692.876 1.699 1.314 3.019 1.314.801 0 1.494-.016 2.078-.048a30.153 30.153 0 001.948-.179h.13a.66.66 0 01.39.114c.108.075.162.2.162.373v1.169zm-89.901 26.162c0 .779-.119 1.558-.357 2.337a5.158 5.158 0 01-1.25 2.094c-.595.617-1.412 1.115-2.451 1.494-1.039.379-2.36.568-3.961.568a27.48 27.48 0 01-3.02-.146c-.866-.097-1.655-.2-2.37-.308-.281-.044-.454-.108-.519-.195-.065-.087-.097-.217-.097-.39v-1.298c0-.174.054-.303.162-.39a.604.604 0 01.389-.13h.098c.368.043.784.076 1.25.098.465.021.941.038 1.428.048l1.429.033c.465.01.882.016 1.25.016.974 0 1.78-.092 2.418-.276.639-.184 1.142-.444 1.51-.78.368-.335.628-.74.78-1.217a5.13 5.13 0 00.227-1.558c0-.411-.065-.785-.195-1.12a3.119 3.119 0 00-.649-.99 8.131 8.131 0 00-1.202-1.023 32.56 32.56 0 00-1.85-1.218l-3.149-1.915c-1.494-.91-2.614-1.824-3.361-2.744-.747-.92-1.12-2.029-1.12-3.328 0-1.97.671-3.42 2.013-4.35 1.342-.931 3.257-1.396 5.747-1.396.476 0 .979.01 1.509.032.531.022 1.05.049 1.559.081.508.033.99.076 1.445.13.454.054.833.103 1.136.146.368.065.552.25.552.552v1.396c0 .347-.184.52-.552.52h-.065c-.714-.044-1.586-.087-2.614-.13a70.476 70.476 0 00-2.97-.065c-1.689 0-2.906.217-3.653.65-.747.432-1.12 1.244-1.12 2.434 0 .758.281 1.418.844 1.98.563.564 1.461 1.213 2.695 1.949l2.987 1.786a22.128 22.128 0 012.37 1.623c.649.52 1.179 1.039 1.591 1.558.411.52.703 1.061.876 1.624a6.16 6.16 0 01.26 1.818zm12.045 5.779c0 .303-.194.487-.584.552-.325.043-.682.081-1.071.114-.39.032-.736.048-1.039.048-.758 0-1.412-.06-1.964-.178-.552-.12-1.007-.341-1.364-.666-.357-.325-.628-.768-.812-1.331-.184-.563-.276-1.288-.276-2.175V56.829l-3.149-.357c-.411-.044-.617-.239-.617-.585v-.876c0-.39.206-.585.617-.585h3.149v-3.182c0-.368.195-.584.585-.649l1.688-.26h.097c.13 0 .244.05.341.146.098.098.146.233.146.406v3.54h3.507c.173 0 .324.064.454.194s.195.281.195.454v1.104a.623.623 0 01-.195.455.622.622 0 01-.454.195h-3.507v11.33c0 .888.13 1.451.39 1.689s.714.357 1.364.357h1.818c.454 0 .681.151.681.455v1.136zm15.455-.162a.622.622 0 01-.195.454.622.622 0 01-.455.195h-1.493a.624.624 0 01-.455-.195.622.622 0 01-.195-.454v-.715a15.14 15.14 0 01-2.402 1.137 7.452 7.452 0 01-2.597.454 8.063 8.063 0 01-1.997-.243 4.167 4.167 0 01-1.688-.86c-.487-.412-.877-.953-1.169-1.624-.292-.671-.439-1.515-.439-2.532v-.39c0-.866.136-1.629.407-2.289.27-.66.714-1.212 1.331-1.656.617-.444 1.423-.773 2.418-.99.996-.216 2.219-.325 3.669-.325h2.403v-1.298c0-1.364-.26-2.316-.78-2.857-.519-.541-1.417-.812-2.694-.812-1.061 0-1.992.027-2.793.081-.8.054-1.526.114-2.175.179h-.162a.836.836 0 01-.406-.098c-.119-.065-.179-.206-.179-.422v-1.136c0-.346.228-.552.682-.617a43.494 43.494 0 012.192-.292 26.6 26.6 0 012.841-.13c2.251 0 3.869.541 4.854 1.623.984 1.082 1.477 2.576 1.477 4.48v11.332zm-2.857-7.987h-2.403c-.974 0-1.786.06-2.435.178-.649.12-1.158.303-1.526.552a2.017 2.017 0 00-.779.974c-.151.4-.227.893-.227 1.478v.39c0 1.168.259 1.953.779 2.353.519.4 1.255.6 2.208.6.757 0 1.482-.108 2.175-.324.693-.216 1.428-.541 2.208-.974v-5.227zm20.941 7.987a.622.622 0 01-.195.454.622.622 0 01-.455.195h-1.558a.624.624 0 01-.455-.195.621.621 0 01-.194-.454V60.952c0-.822-.071-1.51-.211-2.062-.141-.552-.357-.99-.65-1.315a2.442 2.442 0 00-1.12-.698c-.454-.14-.984-.21-1.591-.21-.692 0-1.406.118-2.143.357-.736.238-1.482.54-2.24.909v13.7a.622.622 0 01-.195.455.62.62 0 01-.454.195h-1.591a.57.57 0 01-.438-.195.652.652 0 01-.179-.454V55.075c0-.173.06-.324.179-.454a.571.571 0 01.438-.195h1.623c.173 0 .32.065.439.195s.178.281.178.454v.617c.909-.498 1.753-.87 2.533-1.12.779-.249 1.655-.373 2.629-.373 1.97 0 3.404.584 4.302 1.753.898 1.169 1.348 2.836 1.348 5v10.682zm17.564-.422c0 .216-.038.384-.113.503-.076.119-.266.2-.569.243a29.808 29.808 0 01-3.003.422 33.74 33.74 0 01-2.97.13c-1.212 0-2.262-.19-3.15-.568a5.832 5.832 0 01-2.207-1.607c-.585-.693-1.018-1.537-1.299-2.532-.282-.996-.422-2.1-.422-3.312v-2.338c0-2.554.584-4.518 1.753-5.892 1.169-1.375 2.944-2.062 5.325-2.062.497 0 1.098.027 1.802.081a21.12 21.12 0 011.996.244v-6.04a.6.6 0 01.179-.438.595.595 0 01.438-.178h1.656c.173 0 .314.06.422.178.108.12.162.266.162.439v22.727zm-2.857-14.286a11.677 11.677 0 00-1.915-.195 66.016 66.016 0 00-1.883-.032c-.801 0-1.472.12-2.013.357a3.04 3.04 0 00-1.299 1.055c-.325.465-.557 1.04-.698 1.72-.141.683-.211 1.456-.211 2.322v2.338c0 1.775.303 3.138.909 4.09.606.953 1.71 1.43 3.312 1.43.562 0 1.195-.022 1.899-.066.703-.043 1.337-.086 1.899-.13V56.927zm19.708 14.708a.622.622 0 01-.195.454.622.622 0 01-.455.195h-1.493a.624.624 0 01-.455-.195.622.622 0 01-.195-.454v-.715a15.14 15.14 0 01-2.402 1.137 7.452 7.452 0 01-2.597.454 8.063 8.063 0 01-1.997-.243 4.167 4.167 0 01-1.688-.86c-.487-.412-.877-.953-1.169-1.624-.292-.671-.439-1.515-.439-2.532v-.39c0-.866.136-1.629.407-2.289.27-.66.714-1.212 1.331-1.656.617-.444 1.423-.773 2.418-.99.996-.216 2.219-.325 3.669-.325h2.403v-1.298c0-1.364-.26-2.316-.78-2.857-.519-.541-1.417-.812-2.694-.812-1.061 0-1.992.027-2.793.081-.8.054-1.525.114-2.175.179h-.162a.836.836 0 01-.406-.098c-.119-.065-.179-.206-.179-.422v-1.136c0-.346.228-.552.682-.617a43.494 43.494 0 012.192-.292 26.6 26.6 0 012.841-.13c2.251 0 3.869.541 4.854 1.623.984 1.082 1.477 2.576 1.477 4.48v11.332zm-2.857-7.987h-2.403c-.974 0-1.786.06-2.435.178-.649.12-1.158.303-1.526.552a2.012 2.012 0 00-.779.974c-.151.4-.227.893-.227 1.478v.39c0 1.168.259 1.953.779 2.353.519.4 1.255.6 2.207.6.758 0 1.483-.108 2.176-.324.693-.216 1.428-.541 2.208-.974v-5.227zm15.291-7.533c0 .369-.227.552-.681.552-.758 0-1.488.103-2.192.309-.703.205-1.466.557-2.289 1.055v13.604a.622.622 0 01-.195.454.62.62 0 01-.454.195h-1.591a.57.57 0 01-.438-.195.652.652 0 01-.179-.454V55.075c0-.173.06-.324.179-.454a.571.571 0 01.438-.195h1.526c.173 0 .319.065.438.195s.179.281.179.454v.682c.822-.563 1.607-.963 2.354-1.201a7.296 7.296 0 012.224-.357c.454 0 .681.195.681.584v1.331zm15.292 15.098c0 .216-.038.384-.113.503-.076.119-.266.2-.568.243a29.867 29.867 0 01-3.004.422 33.74 33.74 0 01-2.97.13c-1.212 0-2.262-.19-3.15-.568a5.832 5.832 0 01-2.207-1.607c-.585-.693-1.018-1.537-1.299-2.532-.282-.996-.422-2.1-.422-3.312v-2.338c0-2.554.584-4.518 1.753-5.892 1.169-1.375 2.944-2.062 5.325-2.062.497 0 1.098.027 1.802.081a21.12 21.12 0 011.996.244v-6.04a.6.6 0 01.179-.438.595.595 0 01.438-.178h1.656c.173 0 .314.06.422.178.108.12.162.266.162.439v22.727zm-2.857-14.286a11.677 11.677 0 00-1.915-.195 66.016 66.016 0 00-1.883-.032c-.801 0-1.472.12-2.013.357a3.04 3.04 0 00-1.299 1.055c-.325.465-.557 1.04-.698 1.72-.141.683-.211 1.456-.211 2.322v2.338c0 1.775.303 3.138.909 4.09.606.953 1.71 1.43 3.312 1.43.562 0 1.196-.022 1.899-.066.703-.043 1.337-.086 1.899-.13V56.927zM13.179 76.821c-17.572-17.571-17.572-46.071 0-63.643 17.571-17.57 46.07-17.57 63.643 0 17.571 17.572 17.571 46.072 0 63.643-17.572 17.572-46.072 17.572-63.643 0z" fill="#509741"/><path fill-rule="evenodd" clip-rule="evenodd" d="M45 4.183c22.537 0 40.816 18.28 40.816 40.816 0 22.54-18.28 40.817-40.815 40.817-22.54 0-40.817-18.278-40.817-40.817C4.184 22.462 22.46 4.183 45 4.183zm0 2.99c20.886 0 37.826 16.94 37.826 37.826 0 20.888-16.94 37.827-37.825 37.827C24.11 82.826 7.173 65.887 7.173 45c0-20.886 16.939-37.826 37.828-37.826z" fill="#fff"/><path fill-rule="evenodd" clip-rule="evenodd" d="M36.988 27.073s1.493-.29 1.988-2.07c.493-1.779.169-3.06-.63-4.205 0 0-2.241 2.095-2.659 3.442-.418 1.35.876 2.605 1.301 2.833zm-8.912 8.317s.918-1.213.102-2.868c-.819-1.657-1.921-2.39-3.28-2.712 0 0-.27 3.056.32 4.342.589 1.284 2.385 1.351 2.858 1.239zm-5.034-2.042s.724-.953.08-2.249c-.642-1.296-1.5-1.868-2.563-2.122 0 0-.216 2.39.247 3.396.462 1.008 1.868 1.062 2.236.975zm26.673-11.589s1.2.856 2.771.02c1.578-.836 2.26-1.916 2.533-3.235 0 0-2.955-.179-4.182.42-1.222.605-1.247 2.34-1.122 2.795zm-.54 18.078s.684 1.304 2.465 1.272c1.785-.038 2.88-.695 3.715-1.747 0 0-2.555-1.5-3.918-1.505-1.361-.02-2.163 1.523-2.262 1.98zm1.525 7.539s.286 1.443 2.01 1.911c1.72.465 2.953.14 4.054-.642 0 0-2.038-2.147-3.345-2.54-1.301-.396-2.5.858-2.719 1.271zm4.688-1.941s.29 1.444 2.01 1.909c1.724.465 2.956.142 4.053-.64 0 0-2.035-2.15-3.342-2.543-1.3-.393-2.502.861-2.721 1.274zm-4.705-19.419s1.373 1.137 3.346.261c1.97-.876 2.886-2.122 3.324-3.69 0 0-3.55-.465-5.076.162-1.527.622-1.699 2.717-1.594 3.267zm9.708 4.065s.68 1.21 2.359 1.133c1.681-.08 2.697-.725 3.461-1.745 0 0-2.446-1.338-3.735-1.318-1.289.025-2.002 1.495-2.085 1.93zm7.927 10.127s.356 1.058 1.69 1.247c1.34.189 2.234-.172 2.99-.859 0 0-1.731-1.423-2.752-1.597-1.012-.177-1.796.878-1.928 1.209zm-.164 9.154s-.866.064-1.264 1.044c-.388.976-.286 1.715.094 2.412 0 0 1.399-1.038 1.72-1.772.326-.739-.326-1.527-.55-1.684zm-1.769-3.688s-1.113.085-1.62 1.339c-.507 1.249-.373 2.21.12 3.105 0 0 1.796-1.334 2.21-2.282.412-.945-.421-1.963-.71-2.162zM63.7 41.323s.351 1.057 1.695 1.246c1.333.19 2.234-.172 2.983-.858 0 0-1.727-1.423-2.747-1.6-1.015-.177-1.801.88-1.93 1.212zm-5.926-7.773s.676 1.214 2.359 1.137c1.674-.08 2.691-.73 3.458-1.742 0 0-2.454-1.343-3.735-1.318-1.286.017-2.005 1.49-2.082 1.923zm-4.016 3.085s.674 1.214 2.356 1.137c1.68-.08 2.697-.731 3.458-1.746 0 0-2.45-1.34-3.736-1.32-1.284.026-2.004 1.494-2.078 1.929zM35.082 22.097s.794-.492.692-1.622c-.105-1.13-.572-1.792-1.282-2.28 0 0-.828 1.698-.773 2.561.054.863 1.07 1.304 1.363 1.341zm9.798 12.299s.415-.836-.268-1.744c-.685-.906-1.434-1.227-2.287-1.264 0 0 .182 1.876.689 2.585.5.704 1.593.54 1.867.423zm-3.886-1.859s.614-.706.18-1.756c-.439-1.05-1.086-1.545-1.9-1.792.001 0-.29 1.861.016 2.667.313.812 1.413.931 1.704.881zM21.945 44.853s.057-.935-.925-1.503c-.993-.565-1.802-.564-2.603-.263 0 0 .908 1.654 1.647 2.105.736.455 1.682-.122 1.881-.339zm11.363-7.994s.896-1.194.09-2.814c-.809-1.617-1.89-2.329-3.215-2.637 0 0-.258 2.988.324 4.24.582 1.253 2.34 1.318 2.801 1.21zm13.075-6.964s-1.625.726-3.291-.642c-1.667-1.369-2.215-2.816-2.215-4.439 0 0 3.54.493 4.85 1.503 1.298 1.01.915 3.07.656 3.578zM30.465 40.623s-.285 1.757-2.347 2.402c-2.062.634-3.566.298-4.931-.593 0 0 2.366-2.69 3.923-3.222 1.563-.537 3.073.926 3.355 1.413zm-5.883-2.61s-.09 1.456-1.719 2.158c-1.63.691-2.893.542-4.076-.075 0 0 1.707-2.396 2.937-2.961 1.231-.567 2.58.503 2.858.878zm4.464 9.457s-.087 1.464-1.719 2.156c-1.627.693-2.89.542-4.081-.07 0 0 1.715-2.396 2.941-2.963 1.234-.57 2.583.505 2.859.878zm5.244-1.09s.4 1.407-.914 2.6c-1.307 1.188-2.548 1.462-3.87 1.272 0 0 .824-2.819 1.795-3.764.977-.938 2.607-.376 2.99-.107zM19.796 35.394s-.152.93-1.245 1.269c-1.09.338-1.89.159-2.61-.31 0 0 1.252-1.427 2.078-1.706.826-.283 1.625.485 1.777.747zm2.306 13.231s-.192 1.184-1.58 1.612c-1.39.433-2.404.205-3.32-.395 0 0 1.59-1.814 2.643-2.172 1.052-.359 2.067.627 2.257.955zM55.96 30.596s-.973-.694-.747-2.13c.231-1.432.886-2.244 1.829-2.796 0 0 .92 2.232.777 3.331-.147 1.103-1.48 1.575-1.86 1.595zm9.639 7.126s-.483-1.1.445-2.214c.936-1.115 1.916-1.473 3.005-1.473 0 0-.35 2.386-1.034 3.26-.69.87-2.075.599-2.416.427zm-4.106.906s-.483-1.102.446-2.212c.935-1.12 1.91-1.478 3.003-1.473 0 0-.351 2.381-1.038 3.255-.684.873-2.073.6-2.41.43zm7.557-1.993s.129-1.19 1.492-1.697c1.361-.505 2.386-.33 3.334.222 0 0-1.493 1.896-2.522 2.309-1.033.413-2.098-.513-2.305-.834zm1.418 11.855s.793-.437 1.694.188c.906.622 1.24 1.33 1.311 2.156 0 0-1.814-.104-2.518-.56-.703-.46-.592-1.517-.487-1.783zm-1.818-4.172s.979-.714 2.288-.042c1.311.677 1.883 1.562 2.123 2.65 0 0-2.439.179-3.457-.306-1.017-.49-1.052-1.924-.955-2.302zM47.496 18.992s-1.023.97-2.629.383c-1.596-.582-2.385-1.517-2.815-2.727 0 0 2.776-.56 4.013-.149 1.236.408 1.487 2.05 1.43 2.493zm.452 5.056s-1.063 1.01-2.734.403c-1.672-.61-2.493-1.588-2.941-2.852 0 0 2.893-.584 4.182-.154 1.292.428 1.553 2.14 1.493 2.603zm4.334 9.504s-1.269-.736-1.151-2.508c.111-1.779.816-2.838 1.903-3.622 0 0 1.376 2.607 1.328 3.966-.05 1.36-1.614 2.092-2.08 2.164zm-18.827-8.994s-.493 1.383-2.257 1.595c-1.767.216-2.94-.279-3.913-1.204 0 0 2.316-1.834 3.66-2.036 1.346-.204 2.35 1.204 2.51 1.645zm1.393 4.342s-.495 1.383-2.259 1.597c-1.769.216-2.94-.281-3.916-1.204 0 0 2.316-1.834 3.662-2.036 1.342-.204 2.349 1.205 2.513 1.643zm6.669 10.059s-.979 1.097-2.69.63c-1.72-.468-2.62-1.37-3.175-2.59 0 0 2.834-.83 4.163-.51 1.316.315 1.72 2 1.702 2.47zm1.055 5.971s-1.376.505-2.67-.711c-1.297-1.222-1.667-2.441-1.583-3.78 0 0 2.889.605 3.909 1.508 1.015.906.58 2.578.344 2.983z" fill="#fff"/><path fill-rule="evenodd" clip-rule="evenodd" d="M19.982 46.04c5.387 1.249 10.617-2.913 16.324-1.597-2.17-5.536-6.07-3.914-10.017-6.86-1.513-1.132-3.775-.719-5.2-1.88-1.264-1.038-2.319-2.394-3.334-3.668 2.282.9 3.861 2.612 6.213 3.304 2.71.81 5.01 1.801 7.875 2.394 6.04 1.253 6.695 8.718 10.29 12.838 2.192-4.026 2.23-10.997-1.26-13.993-3.057-2.62-5.067-2.847-5.582-7.32-.164-1.438-2.702-8.883-4.113-9.467 3.233 1.35 3.844 5.138 4.865 8.158 1.323 3.91 2.933 4.056 6.098 6.355 4.553 3.311 4.265-3.185 5.787-5.987 1.794-3.304-.413-7.785.508-11.664-.127 3.8 2.281 7.587 1.299 11.294-.147.555-4.427 10.527-1.277 8.598 3.083-1.888 6.248-3.356 8.992-5.794 1.21-1.075 1.518-2.675 2.747-3.648.485-.388 3-1.453 3.177-1.87-.69 1.656-3.1 2.199-3.794 4.065-.95 2.548-3.364 4.62-5.877 5.73-3.59 1.59-8.887 5.32-5.969 9.91.426.672 9.303-4.006 10.985-4.332 4.952-.958 9.495-4.424 14.715-1.47-3.844-2.175-11.349.893-14.559 3.197 2.665 1.535 5.355-.13 7.993 2.065 2.505 2.083 3.674 6.362 2.918 9.422-.552-3.548-1.02-7.758-4.732-9.44-2.103-.95-4.063.118-6.19-.694-1.747-.659-4.006.107-5.591 1.02-3.463 1.983-4.663 3.367-6.392 6.86-1.418 2.86-.65 8.121.154 11.876.095.43.187.838.276 1.222.759.28 1.508.72 2.267 1.348 2.871 2.398 8.084-.214 9.378 4.96-2.787-2.164-5.738-2.664-9.271-2.37-.821.064-5.019-2.712-3.678.86.874 2.336 4.564 1.047 5.298 3.883-2.456-.836-7.984-.477-7.984-4.314 0-3.601-8.844 1.567-10.028 2.262-.202-3.515 5.088-4.597 7.524-5.801.324-.162.645-.301.95-.436.296-2.836.832-5.518.2-8.3-.627-2.764-3.718-9.743-6.347-10.845-6.243-2.615-12.57 3.585-19.054-.523 1.14.192 2.286.39 3.416.652z" fill="#fff"/></svg>