<svg width="313" height="421" fill="none" xmlns="http://www.w3.org/2000/svg"><path d="M41.36 420.525c22.522 0 40.78-10.383 40.78-23.19 0-12.807-18.258-23.19-40.78-23.19-22.522 0-40.78 10.383-40.78 23.19 0 12.807 18.258 23.19 40.78 23.19z" fill="#EBFFE7"/><path d="M105.23 399.306h25.34l182.19-104.101-179.52-108.707-82.35 51.065 123.5 71.679-112.65 64.923 43.49 25.141z" fill="#EBFFE7"/><path d="M159.19 191.144v-38.217l-53.94-31.164V83.546L51.32 52.373v191.074l53.93 31.174 53.94 31.164 53.93 31.174V222.318l-53.93-31.174z" fill="#0A6A28"/><path opacity=".3" d="M159.19 191.144v38.217l53.93 31.174v-38.217l-53.93-31.174z" fill="#fff"/><path d="M213.12 222.318v38.217l-53.93 31.174v38.207l-53.94 31.173v38.217l53.94-31.174 53.93-31.173 53.94-31.174V191.144l-53.94 31.174z" fill="#0A6A28"/><path opacity=".1" d="M213.12 222.318v38.217l-53.93 31.174v38.207l-53.94 31.173v38.217l53.94-31.174 53.93-31.173 53.94-31.174V191.144l-53.94 31.174z" fill="#fff"/><path d="M105.25 83.546L51.32 52.372 105.25 21.2l53.94 31.174-53.94 31.173z" fill="#0A6A28"/><path opacity=".7" d="M105.25 83.546L51.32 52.372 105.25 21.2l53.94 31.174-53.94 31.173z" fill="#fff"/><path d="M105.25 121.763V83.546l53.94-31.173v38.216l-53.94 31.174z" fill="#0A6A28"/><path opacity=".1" d="M105.25 121.763V83.546l53.94-31.173v38.216l-53.94 31.174z" fill="#1B1B1B"/><path d="M159.19 152.927l-53.94-31.164 53.94-31.174 53.93 31.174-53.93 31.164zm0 38.217v-38.217l53.93-31.164v38.207l-53.93 31.174z" fill="#0A6A28"/><path opacity=".7" d="M159.19 152.927l-53.94-31.164 53.94-31.174 53.93 31.174-53.93 31.164z" fill="#fff"/><path opacity=".1" d="M159.19 191.144v-38.217l53.93-31.164v38.207l-53.93 31.174z" fill="#1B1B1B"/><path d="M213.12 222.318l-53.93-31.174 53.93-31.174 53.94 31.174-53.94 31.174z" fill="#0A6A28"/><path opacity=".7" d="M213.12 222.318l-53.93-31.174 53.93-31.174 53.94 31.174-53.94 31.174z" fill="#fff"/><path d="M159.19 291.708l53.93-31.173-53.93-31.174-53.94 31.174 53.94 31.173z" fill="#0A6A28"/><path opacity=".7" d="M159.19 291.708l53.93-31.173-53.93-31.174-53.94 31.174 53.94 31.173z" fill="#fff"/><path d="M159.19 329.915v-38.207l-53.94-31.173v38.217l53.94 31.163z" fill="#0A6A28"/><path opacity=".3" d="M159.19 329.915v-38.207l-53.94-31.173v38.217l53.94 31.163z" fill="#fff"/><path d="M105.25 361.089l53.94-31.174-53.94-31.164-53.93 31.164 53.93 31.174z" fill="#0A6A28"/><path d="M105.25 399.306v-38.217l-53.93-31.174v38.217l53.93 31.174z" fill="#0A6A28"/><path opacity=".7" d="M105.25 361.089l53.94-31.174-53.94-31.164-53.93 31.164 53.93 31.174z" fill="#fff"/><path opacity=".3" d="M105.25 399.306v-38.217l-53.93-31.173v38.216l53.93 31.174z" fill="#fff"/><path d="M148.76 323.893l-53.93 31.174-33.08-19.119 53.94-31.174 33.07 19.119z" fill="#0A6A28"/><path opacity=".4" d="M148.76 323.893l-53.93 31.174-33.08-19.119 53.94-31.174 33.07 19.119z" fill="#fff"/><path d="M94.83 355.067v38.207l-33.09-19.109v-38.217h.01l33.08 19.119zM202.7 254.502l-53.94 31.174-33.07-19.109 53.93-31.173 33.08 19.108z" fill="#0A6A28"/><path opacity=".4" d="M202.7 254.502l-53.94 31.174-33.07-19.109 53.93-31.173 33.08 19.108z" fill="#fff"/><path d="M148.76 285.676v38.217l-33.08-19.119v-38.207h.01l33.07 19.109zm53.94-69.381v38.207l-33.09-19.108v-38.217h.01l33.08 19.118z" fill="#0A6A28"/><path d="M202.7 216.295v38.207l-33.09-19.108v-38.217h.01l33.08 19.118zM115.68 115.73l53.93 31.174 33.08-19.108-53.94-31.184-33.07 19.118z" fill="#0A6A28"/><path opacity=".5" d="M115.68 115.73l53.93 31.174 33.08-19.108-53.94-31.184-33.07 19.118z" fill="#fff"/><path d="M169.61 146.904v38.217l33.09-19.118v-38.207h-.01l-33.08 19.108z" fill="#0A6A28"/><path opacity=".3" d="M169.61 146.904v38.217l33.09-19.118v-38.207h-.01l-33.08 19.108z" fill="#1B1B1B"/><path d="M61.74 46.34l53.94 31.184 33.07-19.119-53.93-31.174L61.74 46.34z" fill="#0A6A28"/><path opacity=".5" d="M61.74 46.34l53.94 31.184 33.07-19.119-53.93-31.174L61.74 46.34z" fill="#fff"/><path d="M115.68 77.524v38.207l33.08-19.119V58.405h-.01l-33.07 19.119z" fill="#0A6A28"/><path opacity=".3" d="M115.68 77.524v38.207l33.08-19.119V58.405h-.01l-33.07 19.119z" fill="#1B1B1B"/><path d="M213.12 172.036l-10.43-6.033-33.08 19.108 10.43 6.033-10.42 6.033 33.08 19.108 10.42-6.023 33.08-19.118-33.08-19.108z" fill="#0A6A28"/><path opacity=".4" d="M213.12 172.036l-10.43-6.033-33.08 19.108 10.43 6.033-10.42 6.033 33.08 19.108 10.42-6.023 33.08-19.118-33.08-19.108z" fill="#fff"/><path d="M83.77 40.436c-.08 0-.16-.02-.24-.06l-2.02-1.168a.469.469 0 01-.17-.654.48.48 0 01.65-.179l2.02 1.17c.23.128.31.425.17.653a.445.445 0 01-.41.238zm39.61 22.902c-.08 0-.16-.02-.24-.06l-3.96-2.288a.469.469 0 01-.17-.653.48.48 0 01.65-.179l3.96 2.289c.23.128.31.426.17.653a.476.476 0 01-.41.238zm-7.92-4.586c-.08 0-.16-.02-.24-.06l-3.96-2.288a.469.469 0 01-.17-.654.48.48 0 01.65-.178l3.96 2.288a.47.47 0 01.17.654.456.456 0 01-.41.238zm-7.92-4.577c-.08 0-.16-.02-.24-.06l-3.96-2.287a.469.469 0 01-.17-.654.478.478 0 01.65-.178l3.96 2.288a.47.47 0 01.17.654.488.488 0 01-.41.237zM99.62 49.6c-.08 0-.16-.02-.24-.06l-3.96-2.288a.469.469 0 01-.17-.654.48.48 0 01.65-.178l3.96 2.288a.47.47 0 01.17.654.489.489 0 01-.41.238zm-7.93-4.577c-.08 0-.16-.02-.24-.06l-3.96-2.288a.469.469 0 01-.17-.653.48.48 0 01.65-.179l3.96 2.289a.47.47 0 01.17.654.464.464 0 01-.41.237zm37.67 21.772c-.08 0-.16-.02-.24-.059l-2.02-1.169a.469.469 0 01-.17-.654.478.478 0 01.65-.178l2.02 1.169a.47.47 0 01.17.654.464.464 0 01-.41.237z" fill="#0A6A28"/><path opacity=".3" d="M83.77 40.436c-.08 0-.16-.02-.24-.06l-2.02-1.168a.469.469 0 01-.17-.654.48.48 0 01.65-.179l2.02 1.17c.23.128.31.425.17.653a.445.445 0 01-.41.238zm39.61 22.902c-.08 0-.16-.02-.24-.06l-3.96-2.288a.469.469 0 01-.17-.653.48.48 0 01.65-.179l3.96 2.289c.23.128.31.426.17.653a.476.476 0 01-.41.238zm-7.92-4.586c-.08 0-.16-.02-.24-.06l-3.96-2.288a.469.469 0 01-.17-.654.48.48 0 01.65-.178l3.96 2.288a.47.47 0 01.17.654.456.456 0 01-.41.238zm-7.92-4.577c-.08 0-.16-.02-.24-.06l-3.96-2.287a.469.469 0 01-.17-.654.478.478 0 01.65-.178l3.96 2.288a.47.47 0 01.17.654.488.488 0 01-.41.237zM99.62 49.6c-.08 0-.16-.02-.24-.06l-3.96-2.288a.469.469 0 01-.17-.654.48.48 0 01.65-.178l3.96 2.288a.47.47 0 01.17.654.489.489 0 01-.41.238zm-7.93-4.577c-.08 0-.16-.02-.24-.06l-3.96-2.288a.469.469 0 01-.17-.653.48.48 0 01.65-.179l3.96 2.289a.47.47 0 01.17.654.464.464 0 01-.41.237zm37.67 21.772c-.08 0-.16-.02-.24-.059l-2.02-1.169a.469.469 0 01-.17-.654.478.478 0 01.65-.178l2.02 1.169a.47.47 0 01.17.654.464.464 0 01-.41.237z" fill="#1B1B1B"/><path d="M137.42 109.658c-.08 0-.16-.02-.24-.059l-2.02-1.169a.47.47 0 01-.17-.654.48.48 0 01.65-.178l2.02 1.169c.23.128.31.426.17.654a.464.464 0 01-.41.237zm39.65 22.922a.531.531 0 01-.24-.059l-3.97-2.288a.47.47 0 01-.17-.654.478.478 0 01.65-.178l3.97 2.288a.47.47 0 01.17.654.464.464 0 01-.41.237zm-7.93-4.586c-.08 0-.16-.02-.24-.059l-3.97-2.289a.468.468 0 01-.17-.653.48.48 0 01.65-.179l3.97 2.288a.47.47 0 01.17.654.463.463 0 01-.41.238zm-7.93-4.586c-.08 0-.16-.02-.24-.06L157 121.06a.47.47 0 01-.17-.654.478.478 0 01.65-.178l3.97 2.288a.47.47 0 01.17.654.446.446 0 01-.41.238zm-7.93-4.587c-.08 0-.16-.02-.24-.059l-3.97-2.289a.468.468 0 01-.17-.653.482.482 0 01.65-.179l3.97 2.289c.23.128.31.426.17.653a.444.444 0 01-.41.238zm-7.93-4.576c-.08 0-.16-.02-.24-.06l-3.97-2.288a.47.47 0 01-.17-.654.48.48 0 01.65-.178l3.97 2.288a.47.47 0 01.17.654.465.465 0 01-.41.238zm37.71 21.793c-.08 0-.16-.02-.24-.06l-2.02-1.169a.468.468 0 01-.17-.653.478.478 0 01.65-.179l2.02 1.169a.47.47 0 01.17.654.49.49 0 01-.41.238z" fill="#0A6A28"/><path opacity=".3" d="M137.42 109.658c-.08 0-.16-.02-.24-.059l-2.02-1.169a.47.47 0 01-.17-.654.48.48 0 01.65-.178l2.02 1.169c.23.128.31.426.17.654a.464.464 0 01-.41.237zm39.65 22.922a.531.531 0 01-.24-.059l-3.97-2.288a.47.47 0 01-.17-.654.478.478 0 01.65-.178l3.97 2.288a.47.47 0 01.17.654.464.464 0 01-.41.237zm-7.93-4.586c-.08 0-.16-.02-.24-.059l-3.97-2.289a.468.468 0 01-.17-.653.48.48 0 01.65-.179l3.97 2.288a.47.47 0 01.17.654.463.463 0 01-.41.238zm-7.93-4.586c-.08 0-.16-.02-.24-.06L157 121.06a.47.47 0 01-.17-.654.478.478 0 01.65-.178l3.97 2.288a.47.47 0 01.17.654.446.446 0 01-.41.238zm-7.93-4.587c-.08 0-.16-.02-.24-.059l-3.97-2.289a.468.468 0 01-.17-.653.482.482 0 01.65-.179l3.97 2.289c.23.128.31.426.17.653a.444.444 0 01-.41.238zm-7.93-4.576c-.08 0-.16-.02-.24-.06l-3.97-2.288a.47.47 0 01-.17-.654.48.48 0 01.65-.178l3.97 2.288a.47.47 0 01.17.654.465.465 0 01-.41.238zm37.71 21.793c-.08 0-.16-.02-.24-.06l-2.02-1.169a.468.468 0 01-.17-.653.478.478 0 01.65-.179l2.02 1.169a.47.47 0 01.17.654.49.49 0 01-.41.238z" fill="#1B1B1B"/><path d="M186.16 207.201a.475.475 0 01-.41-.238.486.486 0 01.17-.653l2.02-1.169c.23-.129.52-.05.65.178.13.228.05.525-.17.654l-2.02 1.169a.485.485 0 01-.24.059zm6.61-3.813a.475.475 0 01-.41-.238.487.487 0 01.17-.654l4.58-2.655a.47.47 0 01.65.179c.13.228.05.525-.17.653l-4.58 2.655c-.08.04-.16.06-.24.06zm9.17-5.3a.475.475 0 01-.41-.238.485.485 0 01.17-.653l4.58-2.645a.47.47 0 01.65.178c.13.228.05.525-.17.654l-4.58 2.645a.544.544 0 01-.24.059zm9.17-5.3a.476.476 0 01-.41-.237.487.487 0 01.17-.654l1.3-.753-1.3-.753a.47.47 0 01-.17-.654.478.478 0 01.65-.178l2.02 1.169c.19.109.28.327.22.535a.475.475 0 01-.3.327l-1.95 1.129a.388.388 0 01-.23.069zm-3.98-4.636a.531.531 0 01-.24-.059l-3.98-2.298a.47.47 0 01-.17-.654.478.478 0 01.65-.178l3.98 2.298a.47.47 0 01.17.654.467.467 0 01-.41.237zm-7.97-4.596c-.08 0-.16-.02-.24-.059l-3.98-2.299a.468.468 0 01-.17-.653.482.482 0 01.65-.179l3.98 2.299c.23.128.31.425.17.653a.463.463 0 01-.41.238zm-7.96-4.606c-.08 0-.16-.02-.24-.06l-2.02-1.169a.468.468 0 01-.17-.653.48.48 0 01.65-.179l2.02 1.169a.47.47 0 01.17.654.463.463 0 01-.41.238zm-7.07 67.627a.476.476 0 01-.41-.237.487.487 0 01.17-.654l2.02-1.169a.47.47 0 01.65.178c.13.228.05.525-.17.654l-2.02 1.169a.475.475 0 01-.24.059zm-46.04 26.618c-.16 0-.33-.09-.41-.238a.487.487 0 01.17-.654l3.84-2.219a.47.47 0 01.65.178c.13.228.05.525-.17.654l-3.84 2.219c-.07.04-.16.06-.24.06zm7.68-4.438a.475.475 0 01-.41-.238.487.487 0 01.17-.654l3.84-2.219a.47.47 0 01.65.179c.13.227.05.525-.17.653l-3.84 2.219c-.08.04-.16.06-.24.06zm7.67-4.428a.475.475 0 01-.41-.238.487.487 0 01.17-.654l3.84-2.219a.47.47 0 01.65.179c.13.228.05.525-.17.653l-3.84 2.219c-.08.04-.16.06-.24.06zm7.67-4.438a.475.475 0 01-.41-.238.487.487 0 01.17-.654l3.84-2.218a.47.47 0 01.65.178c.13.228.05.525-.17.654l-3.84 2.219a.513.513 0 01-.24.059zm7.68-4.438a.475.475 0 01-.41-.238.486.486 0 01.17-.653l3.84-2.219a.47.47 0 01.65.178c.13.228.05.525-.17.654l-3.84 2.219a.544.544 0 01-.24.059zm7.67-4.438a.476.476 0 01-.41-.237.487.487 0 01.17-.654l3.84-2.219a.47.47 0 01.65.178c.13.228.05.525-.17.654l-3.84 2.219a.531.531 0 01-.24.059zm-44.23 25.567a.476.476 0 01-.41-.237.487.487 0 01.17-.654l2.02-1.169a.47.47 0 01.65.178c.13.228.05.525-.17.654l-2.02 1.169a.485.485 0 01-.24.059zm-2.03 39.376a.475.475 0 01-.41-.238.485.485 0 01.17-.653l2.02-1.169c.23-.129.52-.05.65.178.13.228.05.525-.17.654l-2.02 1.169a.485.485 0 01-.24.059zm-46.04 26.617a.476.476 0 01-.41-.237.487.487 0 01.17-.654l3.84-2.219c.23-.129.52-.05.65.178.13.228.05.525-.17.654l-3.84 2.219a.544.544 0 01-.24.059zm7.67-4.438a.476.476 0 01-.41-.237.487.487 0 01.17-.654l3.84-2.219a.47.47 0 01.65.178c.13.228.05.525-.17.654l-3.84 2.219a.475.475 0 01-.24.059zm7.68-4.428a.476.476 0 01-.41-.237.487.487 0 01.17-.654l3.84-2.219a.47.47 0 01.65.178c.13.228.05.525-.17.654l-3.84 2.219a.531.531 0 01-.24.059zm7.67-4.437a.475.475 0 01-.41-.238.487.487 0 01.17-.654l3.84-2.219a.47.47 0 01.65.179c.13.227.05.525-.17.653l-3.84 2.219c-.07.04-.16.06-.24.06zm7.68-4.438a.475.475 0 01-.41-.238.487.487 0 01.17-.654l3.84-2.219a.47.47 0 01.65.179c.13.227.05.525-.17.653l-3.84 2.219c-.08.04-.16.06-.24.06zm7.67-4.438a.475.475 0 01-.41-.238.487.487 0 01.17-.654l3.84-2.218a.47.47 0 01.65.178c.13.228.05.525-.17.654l-3.84 2.219a.544.544 0 01-.24.059zM78.3 345.963a.475.475 0 01-.41-.238.487.487 0 01.17-.654l2.02-1.169a.47.47 0 01.65.179c.13.228.05.525-.17.654l-2.02 1.168c-.07.04-.16.06-.24.06z" fill="#0A6A28"/><path d="M109.86 55.037c-2.55 1.476-6.68 1.476-9.23 0-2.55-1.476-2.55-3.863 0-5.33 2.55-1.465 6.68-1.475 9.23 0 2.55 1.477 2.55 3.864 0 5.33z" fill="#1B1B1B"/><path d="M105.25 26.706V5.25l27.99 10.728-27.99 10.728z" fill="#0A6A28"/><path d="M105.25 53.334a.958.958 0 01-.96-.96V1.04c0-.525.43-.96.96-.96s.96.425.96.96v51.332c0 .535-.43.961-.96.961z" fill="#1B1B1B"/><path d="M122.237 91.69a.383.383 0 01-.049.178.33.33 0 01-.122.127l-.512.296v3.795a.37.37 0 01-.057.183.338.338 0 01-.122.127l-1.464.846c-.049.028-.092.035-.13.02-.033-.026-.049-.067-.049-.123v-3.795l-.39.14a.24.24 0 01-.131.01c-.032-.019-.048-.056-.048-.112v-1.053a.34.34 0 01.048-.169.389.389 0 01.131-.131l.39-.226v-.131c0-.37.038-.696.114-.977a2.537 2.537 0 01.821-1.32c.196-.17.413-.323.651-.461a3.871 3.871 0 01.748-.33.184.184 0 01.122-.004c.033.012.049.047.049.103v1.024a.332.332 0 01-.049.17.33.33 0 01-.122.126l-.276.16a.476.476 0 00-.195.178.667.667 0 00-.041.278v.131l.512-.296c.049-.028.09-.033.122-.014.033.019.049.056.049.112v1.137zm5.099 1.073c0 .05-.016.104-.049.16a.328.328 0 01-.114.122l-1.342.776c-.043.025-.081.028-.114.01-.032-.02-.049-.054-.049-.104v-.263a8.772 8.772 0 01-.26.376 3.035 3.035 0 01-.276.338c-.103.103-.22.205-.35.306a3.912 3.912 0 01-.448.296c-.298.172-.544.258-.74.258a.608.608 0 01-.455-.215 1.257 1.257 0 01-.228-.564 4.508 4.508 0 01-.065-.799v-3.25c0-.056.016-.113.049-.17a.319.319 0 01.122-.135l1.464-.847c.049-.028.089-.03.122-.004.038.015.057.051.057.108v3.25c0 .163.04.259.122.287.081.022.179 0 .293-.066a1.69 1.69 0 00.447-.4v-3.57a.36.36 0 01.041-.164.319.319 0 01.122-.136l1.464-.846c.049-.028.092-.032.13-.01.038.016.057.052.057.108v5.148zm3.744-6.184a.383.383 0 01-.049.178.33.33 0 01-.122.127l-.585.338v2.302c0 .094.008.158.024.193.022.03.071.025.146-.02l.391-.225c.049-.028.089-.033.122-.014.032.019.049.056.049.113v1.024a.341.341 0 01-.049.169.616.616 0 01-.122.136c-.081.066-.155.12-.22.165-.065.05-.13.097-.195.14-.065.05-.133.096-.203.137a4.828 4.828 0 01-.244.15c-.212.123-.41.209-.594.259a.767.767 0 01-.488.01c-.136-.06-.244-.185-.325-.376-.076-.194-.114-.476-.114-.846v-2.264l-.464.174a.237.237 0 01-.13.01c-.033-.019-.049-.056-.049-.113v-1.043c0-.056.016-.112.049-.169a.387.387 0 01.13-.131l.464-.268v-.77a.29.29 0 01.048-.16.748.748 0 01.131-.141l1.464-1.138c.065-.05.111-.06.138-.033.027.029.041.07.041.127v1.062l.585-.339c.049-.028.09-.033.122-.014.033.019.049.056.049.113v1.137zm5.049 1.103a.33.33 0 01-.049.16.329.329 0 01-.114.121l-1.342.776c-.043.025-.081.028-.114.01-.032-.02-.049-.054-.049-.104v-.263a8.84 8.84 0 01-.26.376 2.937 2.937 0 01-.277.338 3.565 3.565 0 01-.349.306 3.939 3.939 0 01-.448.296c-.298.172-.545.259-.74.259a.607.607 0 01-.455-.216 1.258 1.258 0 01-.228-.564 4.507 4.507 0 01-.065-.798v-3.25c0-.057.016-.113.049-.17a.318.318 0 01.122-.136l1.464-.846c.049-.028.089-.03.122-.005.038.016.057.052.057.108v3.25c0 .163.04.259.122.287.081.022.179 0 .293-.066.151-.088.3-.22.447-.4v-3.57a.35.35 0 01.041-.164.319.319 0 01.122-.136l1.464-.846c.048-.028.092-.031.13-.01.038.016.057.052.057.109v5.148zm3.768-6.143c0 .05-.008.105-.024.165-.016.053-.062.101-.138.145l-.065.038a9.19 9.19 0 00-.472.291c-.152.1-.298.232-.439.395v3.57a.395.395 0 01-.049.178.287.287 0 01-.114.123l-1.464.846c-.049.028-.092.034-.13.018-.038-.021-.057-.06-.057-.117v-5.148a.32.32 0 01.049-.16.313.313 0 01.114-.122l1.342-.775c.043-.026.081-.029.113-.01.033.019.049.053.049.103v.273c.087-.163.179-.307.277-.433.103-.128.2-.24.293-.338.097-.1.189-.181.276-.244a1.97 1.97 0 01.228-.16l.049-.028c.076-.044.122-.052.138-.024a.24.24 0 01.024.118v1.296zm4.845-1.072a.33.33 0 01-.056.174.345.345 0 01-.122.127l-2.457 1.42c0 .119.011.21.033.272a.201.201 0 00.105.127.39.39 0 00.212-.028c.092-.035.209-.093.35-.174l.341-.198.448-.277.431-.268.309-.207c.059-.04.103-.056.13-.047.032 0 .049.038.049.113v.986a.497.497 0 01-.033.198.754.754 0 01-.122.164c-.26.276-.553.536-.878.78a10 10 0 01-.984.654 3.09 3.09 0 01-.854.352 1.18 1.18 0 01-.692-.051c-.195-.094-.35-.265-.463-.512-.114-.254-.171-.603-.171-1.047v-.573c0-.451.051-.873.154-1.264a4.343 4.343 0 011.163-1.978 4.93 4.93 0 01.944-.705c.374-.216.697-.34.968-.371.276-.035.501.013.675.145.179.128.309.332.39.61.087.27.13.605.13 1.005v.573zm-1.716.138c0-.226-.032-.392-.097-.498-.06-.116-.182-.12-.366-.014a.8.8 0 00-.358.432 1.803 1.803 0 00-.098.61l.919-.53zm36.895 77.008c0 .256-.038.51-.114.761a4.41 4.41 0 01-.309.751 6.017 6.017 0 01-.439.733 13.9 13.9 0 01-.529.71c-.293.369-.55.706-.773 1.01-.217.301-.363.573-.439.818l2.334-1.35c.044-.025.082-.028.114-.009.038.016.057.049.057.099v1.493c0 .05-.019.105-.057.165a.315.315 0 01-.114.122l-3.953 2.284c-.043.026-.084.03-.122.015-.032-.019-.048-.054-.048-.104v-1.033c0-.363.04-.709.122-1.038.081-.335.189-.652.325-.949.141-.307.301-.6.48-.879.179-.285.366-.559.561-.822.228-.307.407-.545.537-.714.13-.176.228-.31.293-.404.07-.104.114-.182.13-.235a.624.624 0 00.032-.207.216.216 0 00-.024-.108c-.011-.031-.038-.044-.081-.037a.578.578 0 00-.204.061c-.092.04-.214.105-.366.192-.265.154-.531.317-.797.489-.26.17-.518.34-.772.513l-.009.004c-.043.025-.081.029-.113.01-.028-.022-.041-.058-.041-.108v-1.081a.23.23 0 01.049-.141.794.794 0 01.114-.14c.26-.264.553-.527.878-.79a8.123 8.123 0 011.049-.719c.412-.238.759-.398 1.041-.48.282-.081.51-.091.684-.028a.606.606 0 01.382.38c.081.191.122.446.122.766zm5.587-1.059c0 1.046-.201 1.935-.602 2.668a4.494 4.494 0 01-1.732 1.753c-.759.439-1.34.523-1.741.254-.396-.272-.594-.931-.594-1.977v-1.024c0-1.04.198-1.924.594-2.654a4.492 4.492 0 011.741-1.767c.753-.436 1.331-.516 1.732-.24.401.269.602.923.602 1.963v1.024zm-1.928.09c0-.263-.01-.464-.032-.601a.76.76 0 00-.082-.31c-.032-.069-.075-.101-.13-.094a.383.383 0 00-.162.056.792.792 0 00-.171.136.71.71 0 00-.13.245c-.033.1-.06.235-.082.404a6.638 6.638 0 00-.024.634v1.024c0 .263.008.468.024.615.022.138.049.241.082.31.038.06.081.088.13.085a.472.472 0 00.171-.061.7.7 0 00.162-.132.585.585 0 00.13-.235c.038-.11.066-.244.082-.404.022-.169.032-.385.032-.648v-1.024zm7.239-5.33c0 .257-.038.511-.114.761a4.386 4.386 0 01-.309.752 5.902 5.902 0 01-.44.733c-.168.241-.344.478-.528.71-.293.369-.551.706-.773 1.01-.217.3-.363.573-.439.817l2.334-1.349c.044-.025.082-.028.114-.009.038.015.057.048.057.098v1.494c0 .05-.019.105-.057.164a.311.311 0 01-.114.123l-3.953 2.284c-.043.025-.084.03-.122.014-.032-.018-.049-.053-.049-.103v-1.033c0-.364.041-.71.123-1.038.081-.336.189-.652.325-.949.141-.307.301-.6.48-.879.179-.285.366-.559.561-.822.228-.307.407-.545.537-.714.13-.176.228-.311.293-.405.07-.103.113-.181.13-.234a.651.651 0 00.032-.207.216.216 0 00-.024-.108c-.011-.032-.038-.044-.081-.038a.595.595 0 00-.204.061 4.125 4.125 0 00-.366.193c-.266.154-.531.317-.797.489-.26.169-.518.34-.773.512l-.008.005c-.043.025-.081.028-.114.009-.027-.021-.04-.057-.04-.108v-1.08a.23.23 0 01.049-.141.884.884 0 01.113-.141c.261-.263.553-.526.879-.789a8.123 8.123 0 011.049-.719c.412-.239.759-.398 1.041-.48.282-.082.51-.091.683-.028a.607.607 0 01.383.38c.081.191.122.446.122.765zm5.587-1.059c0 1.046-.201 1.936-.602 2.669a4.49 4.49 0 01-1.733 1.753c-.759.438-1.339.523-1.74.254-.396-.272-.594-.931-.594-1.977v-1.024c0-1.04.198-1.925.594-2.654a4.477 4.477 0 011.74-1.767c.754-.436 1.332-.516 1.733-.241.401.269.602.924.602 1.963v1.024zm-1.928.091a4.29 4.29 0 00-.032-.602.787.787 0 00-.082-.31c-.032-.069-.076-.1-.13-.094a.39.39 0 00-.163.057.781.781 0 00-.17.136.684.684 0 00-.13.245c-.033.1-.06.234-.082.404a6.638 6.638 0 00-.024.634v1.024c0 .263.008.468.024.615.022.138.049.241.082.31.037.059.081.088.13.084a.428.428 0 00.17-.061.604.604 0 00.293-.366c.038-.11.065-.245.082-.404a5.42 5.42 0 00.032-.648v-1.024zm-14.557 70.307c0 .257-.038.467-.114.63a1.042 1.042 0 01-.309.394 1.166 1.166 0 01-.439.225c-.168.047-.344.08-.529.099-.293.031-.55.07-.772.117-.217.05-.364.153-.44.31l2.335 1.349a.33.33 0 01.114.122.31.31 0 01.056.164v1.494c0 .05-.018.083-.056.099-.033.019-.071.015-.114-.01l-3.953-2.284a.373.373 0 01-.171-.287v-1.033c0-.363.041-.662.122-.897.081-.241.19-.432.325-.573.141-.144.301-.252.48-.324.179-.078.366-.136.561-.174.228-.043.407-.075.537-.093.13-.025.228-.047.293-.066.071-.022.114-.05.13-.084a.345.345 0 00.033-.17.4.4 0 00-.025-.136.294.294 0 00-.081-.131 1.19 1.19 0 00-.203-.174 5.001 5.001 0 00-.366-.231 17.85 17.85 0 00-.797-.432 39.188 39.188 0 00-.773-.381l-.008-.005a.342.342 0 01-.155-.277v-1.08c0-.05.016-.078.049-.085a.233.233 0 01.114-.009c.26.038.553.113.878.226a6.08 6.08 0 011.049.494c.413.238.76.479 1.042.723.282.245.509.498.683.762.179.266.306.54.382.822a3.3 3.3 0 01.122.906zm5.587 5.4c0 1.045-.2 1.703-.602 1.972-.401.269-.978.186-1.732-.25a4.507 4.507 0 01-1.741-1.757c-.396-.73-.593-1.618-.593-2.664v-1.024c0-1.039.197-1.695.593-1.968.402-.275.982-.193 1.741.245a4.467 4.467 0 011.732 1.763c.402.733.602 1.619.602 2.659v1.024zm-1.927-2.139a4.94 4.94 0 00-.033-.638 1.655 1.655 0 00-.081-.404.613.613 0 00-.293-.376.437.437 0 00-.171-.061c-.049-.004-.092.028-.13.093a1.04 1.04 0 00-.081.31 5.45 5.45 0 00-.025.606v1.024c0 .263.008.478.025.644.021.163.048.297.081.404a.709.709 0 00.13.235.763.763 0 00.171.136.39.39 0 00.163.057c.054.006.097-.022.13-.085a.837.837 0 00.081-.31 4.31 4.31 0 00.033-.611v-1.024zm4.163 4.539v-2.921l-.976-.198a.283.283 0 01-.097-.028c-.054-.032-.082-.085-.082-.16v-1.588c0-.087.038-.128.114-.122l1.472.203c.033.006.06.013.082.019a.277.277 0 01.097.037l1.139.659a.315.315 0 01.114.122.314.314 0 01.049.159v4.923l.984.569a.33.33 0 01.114.122c.038.06.057.114.057.164v1.494c0 .05-.019.083-.057.099-.033.019-.071.015-.114-.01l-3.88-2.242a.373.373 0 01-.171-.287v-1.493c0-.05.017-.085.049-.104.038-.015.079-.01.122.015l.984.568zm8.743 5.401c0 .05-.016.084-.048.103-.033.019-.071.016-.114-.009l-.407-.235v1.146c0 .05-.016.084-.049.103-.032.019-.07.016-.114-.009l-1.586-.917a.33.33 0 01-.114-.122.326.326 0 01-.048-.16v-1.146l-2.18-1.26a.322.322 0 01-.114-.122.317.317 0 01-.049-.16v-1.221c0-.094.027-.166.082-.216l2.7-2.366c.027-.016.062-.011.106.014l.073.042 1.13.654a.315.315 0 01.114.122c.033.056.049.11.049.16v3.795l.407.235a.33.33 0 01.114.122c.032.057.048.11.048.16v1.287zm-2.391-4.379l-1.041.92 1.041.602v-1.522zm-68.175 60.52c0 .256-.038.466-.114.629a1.042 1.042 0 01-.309.394 1.168 1.168 0 01-.439.226 3.174 3.174 0 01-.529.098c-.293.031-.55.07-.773.117-.217.05-.363.154-.439.31l2.334 1.349a.315.315 0 01.114.122c.038.06.057.115.057.165v1.493c0 .051-.019.083-.057.099-.032.019-.07.016-.114-.009l-3.953-2.285a.373.373 0 01-.17-.287v-1.033c0-.363.04-.662.122-.897a1.5 1.5 0 01.325-.573c.141-.144.301-.252.48-.324.179-.078.366-.136.561-.173.228-.044.407-.075.537-.094.13-.025.228-.047.293-.066.07-.022.114-.05.13-.084a.345.345 0 00.032-.169.415.415 0 00-.024-.136.296.296 0 00-.081-.132 1.203 1.203 0 00-.204-.174 4.632 4.632 0 00-.366-.23 15.972 15.972 0 00-.797-.433c-.26-.131-.518-.258-.772-.381l-.009-.004a.32.32 0 01-.113-.122.333.333 0 01-.041-.155v-1.081c0-.05.016-.078.049-.084a.221.221 0 01.114-.01c.26.038.553.113.878.226.325.113.675.278 1.049.494.412.238.759.479 1.041.724.282.244.51.498.684.761.179.266.306.54.382.822.081.285.122.587.122.907zm5.587 5.399c0 1.046-.201 1.703-.602 1.972-.401.269-.979.186-1.732-.249a4.51 4.51 0 01-1.741-1.758c-.396-.73-.594-1.618-.594-2.663v-1.024c0-1.04.198-1.696.594-1.968.401-.276.982-.194 1.741.245a4.47 4.47 0 011.732 1.762c.401.733.602 1.619.602 2.659v1.024zm-1.928-2.138c0-.263-.01-.476-.032-.639a1.65 1.65 0 00-.082-.404.579.579 0 00-.13-.244.675.675 0 00-.162-.132.454.454 0 00-.171-.061c-.049-.003-.092.028-.13.094-.033.062-.06.166-.082.31a5.762 5.762 0 00-.024.606v1.024c0 .263.008.477.024.643.022.163.049.298.082.404a.699.699 0 00.13.235.763.763 0 00.171.136.372.372 0 00.162.057c.055.006.098-.022.13-.085a.829.829 0 00.082-.31c.022-.144.032-.347.032-.61v-1.024zm4.164 4.539v-2.922l-.976-.198a.262.262 0 01-.097-.028c-.055-.031-.082-.084-.082-.16V292.9c0-.088.038-.129.114-.122l1.472.202.082.019a.263.263 0 01.097.038l1.139.658a.33.33 0 01.114.122c.032.056.049.11.049.16v4.922l.984.569a.33.33 0 01.114.122c.038.06.057.115.057.165v1.493c0 .051-.019.083-.057.099-.033.019-.071.016-.114-.009l-3.88-2.243a.373.373 0 01-.171-.286v-1.494c0-.05.016-.084.049-.103.038-.016.079-.011.122.014l.984.569zm8.662 3.897c0 1.046-.201 1.704-.602 1.973-.401.269-.979.186-1.733-.25a4.507 4.507 0 01-1.74-1.758c-.396-.729-.594-1.617-.594-2.663v-1.024c0-1.04.198-1.696.594-1.968.401-.275.981-.194 1.74.245a4.473 4.473 0 011.733 1.762c.401.733.602 1.619.602 2.659v1.024zm-1.928-2.138c0-.263-.011-.476-.032-.639a1.71 1.71 0 00-.082-.404.597.597 0 00-.293-.376.444.444 0 00-.17-.061c-.049-.003-.092.028-.13.094-.033.063-.06.166-.082.31a5.762 5.762 0 00-.024.606v1.024c0 .263.008.477.024.643.022.163.049.298.082.404a.699.699 0 00.13.235.787.787 0 00.17.137c.06.034.114.053.163.056.054.006.098-.022.13-.084a.855.855 0 00.082-.31c.021-.144.032-.348.032-.611v-1.024zm-65.464 61.97c0 .257-.038.467-.114.63a1.048 1.048 0 01-.309.394 1.18 1.18 0 01-.439.225c-.168.047-.344.08-.529.099-.293.031-.55.07-.772.117-.217.05-.364.153-.44.31l2.335 1.349a.324.324 0 01.114.122.31.31 0 01.056.164v1.494c0 .05-.019.083-.056.099-.033.018-.07.015-.114-.01l-3.953-2.284a.378.378 0 01-.171-.287v-1.033c0-.364.04-.663.122-.897.081-.242.19-.433.325-.573.141-.144.301-.252.48-.324.18-.078.366-.136.561-.174.228-.044.407-.075.537-.094.13-.024.228-.046.293-.065.07-.022.114-.05.13-.085a.345.345 0 00.033-.169.413.413 0 00-.025-.136.284.284 0 00-.081-.131 1.118 1.118 0 00-.203-.174 4.657 4.657 0 00-.366-.231 17.316 17.316 0 00-.797-.432c-.26-.132-.518-.259-.773-.381l-.008-.005a.34.34 0 01-.154-.277v-1.08c0-.05.015-.079.048-.085a.234.234 0 01.114-.009c.26.038.553.113.878.226.326.113.675.277 1.05.493.412.239.759.48 1.04.724.283.245.51.498.684.761.179.267.306.541.382.823a3.3 3.3 0 01.122.906zm5.587 5.399c0 1.046-.2 1.704-.602 1.973-.4.269-.978.186-1.732-.25a4.508 4.508 0 01-1.74-1.757c-.397-.73-.594-1.618-.594-2.664v-1.024c0-1.039.197-1.695.593-1.968.402-.275.982-.193 1.74.245A4.471 4.471 0 0180 363.241c.402.732.602 1.619.602 2.658v1.024zm-1.927-2.138c0-.263-.011-.476-.033-.639a1.694 1.694 0 00-.081-.404.608.608 0 00-.464-.437c-.049-.003-.092.029-.13.094-.032.063-.06.166-.081.31a5.659 5.659 0 00-.025.606v1.024c0 .263.008.478.025.644.021.163.048.297.081.404a.723.723 0 00.13.235.808.808 0 00.17.136.39.39 0 00.164.056c.054.007.097-.022.13-.084a.844.844 0 00.081-.31 4.31 4.31 0 00.033-.611v-1.024zm7.376 5.288c0 1.045-.2 1.703-.602 1.972-.4.269-.978.186-1.732-.25a4.501 4.501 0 01-1.74-1.757c-.397-.73-.594-1.618-.594-2.664v-1.024c0-1.039.197-1.695.593-1.968.401-.275.982-.193 1.74.245a4.47 4.47 0 011.733 1.763c.402.733.602 1.619.602 2.659v1.024zm-1.927-2.139a4.94 4.94 0 00-.033-.638 1.673 1.673 0 00-.081-.404.606.606 0 00-.464-.437c-.049-.004-.092.028-.13.093a1.04 1.04 0 00-.081.31 5.659 5.659 0 00-.025.606v1.024c0 .263.008.478.025.644.021.163.048.297.08.404a.713.713 0 00.131.235.778.778 0 00.17.136c.06.035.115.053.163.057.055.006.098-.022.13-.085a.844.844 0 00.082-.31 4.34 4.34 0 00.032-.611v-1.024zm7.197 2.413a.6.6 0 01-.032.216 1.061 1.061 0 01-.065.141l-2.188 3.883a.587.587 0 01-.066.094c-.021.025-.054.025-.097 0l-1.733-1.001c-.086-.05-.13-.106-.13-.169 0-.025.008-.052.025-.08l2.196-3.766-2.034-1.175a.379.379 0 01-.122-.127.325.325 0 01-.048-.16v-1.381c0-.05.016-.084.048-.103.038-.016.079-.011.122.014l3.962 2.289a.324.324 0 01.113.122c.033.057.05.11.05.16v1.043z" fill="#EBFFE7"/><path d="M57.61 217.85h-11.7v18.683h11.7V217.85z" fill="#FCCEC3"/><path d="M64.6 213.571l2.78 3.982c.25.346.2.832-.11 1.119-.58.555-1.6 1.347-2.68 1.347v-6.448h.01z" fill="#FFA792"/><path d="M52.88 198.92s9.11-6.409 11.97 15.869c2.37 18.494-9.21 14.255-13.52 11.709-4.31-2.546-12.55-10.273-7.13-21.1 2.48-4.953 8.68-6.478 8.68-6.478z" fill="#FCCEC3"/><path d="M61.28 206.072s.07 4.051-3.67 4.25c0 0 1.31 1.218 1.31 3.843 0 2.635-.91 2.13-1.31 1.615-.4-.506-4.55 0-4.55 0l2.12 3.952s1.11 4.458-2.93 8.202c0 0-5.56 1.516-8.09 0 0 0-6.98-7.697-8.29-13.155-1.31-5.468-1.31-10.223 1.92-12.452 0 0 1.01-6.884 8.39-6.884 7.38 0 9.56 1.882 13.55 1.01 1.62-.356 4.04-1.515 4.04.099 0 1.625-1.97 2.932-1.97 2.932s1.97-.099 3.08-.198 3.49-.455 3.08 2.635c-.39 3.091-3.22 4.656-6.68 4.151z" fill="#1B1B1B"/><path d="M38.77 202.565s-1.94-3.873-4.36-1.644a.167.167 0 00.03.267l4.33 2.586v-1.209z" fill="#1B1B1B"/><path d="M57.61 215.79v6.013s-6.28-.119-6.28-4.726c0-4.239 5.05-3.288 6.28-1.287z" fill="#FCCEC3"/><path d="M11.72 371.837s-.29 7.994 10.92 11.273c-.01 0 1.66-11.273-10.92-11.273z" fill="#2E2E2E"/><path d="M20.45 389.826v-4.814c0-2.071.96-4.022 2.6-5.28 0 0-1.66-7.013-8.38-6.607 0 0-2.92.891-5.37 4.18-.97 1.308-1.33 2.991-.97 4.586a1.004 1.004 0 011.36-1.149l1.62.664a6.624 6.624 0 013.98 4.775l1.99 9.351c.38 1.773 1.79 3.219 3.58 3.457.03 0 .07.01.1.01.18.02.37.03.56.03h.15c.18-.01.36-.02.54-.05.05-.01.1-.01.15-.02.19-.03.37-.069.56-.129.04-.01.08-.019.11-.029.22-.07.44-.149.66-.248.22-.099.44-.218.65-.357l1.7-1.099c.5-.327.79-.882.76-1.476-.1-1.872-.95-5.795-6.35-5.795z" fill="#444"/><path d="M26.03 397.107l-1.7 1.099c-.21.139-.43.248-.65.357a5.41 5.41 0 01-.66.248c-.04.01-.08.019-.11.029-.19.05-.37.099-.56.129-.05.01-.1.01-.15.02-.07.01-.14.01-.21.02l-.33.029h-.15c-.07 0-.13-.009-.2-.009-.12 0-.24-.01-.36-.02-.03 0-.07-.01-.1-.01-1.77-.228-3.15-1.635-3.56-3.368l-.03-.089-1.99-9.351a6.606 6.606 0 00-3.98-4.775l-1.62-.664c-.7-.327-1.17.228-1.46.505-.3.278-.78.813-.53 1.922l1.96 8.707a8.046 8.046 0 003.33 4.894l4.27 2.902a5.685 5.685 0 004.74.615h.05l.1-.04c.3-.099.6-.228.88-.377l.03-.019 1.83-.981a2.985 2.985 0 001.52-2.08c-.09.099-.21.218-.36.307z" fill="#1B1B1B"/><path d="M13.28 373.769s7.68.742 7.65 8.776l4.77-7.37-7.82-8.113-4.6 6.707z" fill="#FCCEC3"/><path d="M30.36 280.653v12.828c0 5.102.23 10.194.7 15.265l1.57 17.177c.39 4.24-1.1 8.45-4.12 11.461-1.84 1.833-3.95 4.478-5.87 8.222-4.76 9.262-10.92 26.241-10.92 26.241s10.92.02 10.92 11.273l24.84-41.09a23.344 23.344 0 003.24-9.549l5.24-46.974-25.6-4.854z" fill="#585959"/><path d="M85.06 354.561a4.418 4.418 0 002.05 1.853l.1.049c1.81.793 3.85.862 5.71.188l15.81-5.695c1.13-.476 1.14-2.14 1.07-2.824H85.05v6.429h.01z" fill="#1B1B1B"/><path d="M85.99 345.279s-2.23 2.298-1.41 6.637c.26 1.397 1.23 2.566 2.53 3.131l.1.049c1.81.792 3.85.862 5.71.188l15.81-5.696a1.645 1.645 0 001.01-1.991c-.72-2.546-3.31-5.101-9.29-3.556-1.98.515-3.84 1.001-4.65.951l-.8-1.218-9.01 1.505z" fill="#444"/><path d="M95.81 344.992c-.83 2.199-3.97 2.982-7.66 1.753a7.663 7.663 0 01-2.3-1.268v-8.707h9.96v8.222z" fill="#FCCEC3"/><path d="M41.68 283.932v1.466c0 9.143 6.16 17.127 15 19.445l25.48 6.677a1.68 1.68 0 011.25 1.625v30.133s12.3 6.122 15.87-3.368v-32.56c0-5.459-3.35-10.352-8.43-12.323L64.4 284.744l-22.72-.812z" fill="#585959"/><path d="M52.82 313.63l.97-9.965s-8.21-2.724-9.47-6.459c-.42 3.873 5.07 7.42 6.45 8.212.55 3.002 2.05 8.212 2.05 8.212zm-9.08-77.504s.24-4.784 1.89-4.784c1.33 0 8.07 1.892 10.68 2.635.7.198 1.31.644 1.71 1.258.73 1.129 1.77 3.09 1.77 5.052l-16.05-4.161z" fill="#444"/><path d="M73.52 252.54s7.52-7.597 8.59-6.924c1.3.813-.28 3.735-1.46 4.973l5.91-3.824a1.6 1.6 0 012.27.575c1.65 2.962 3.43 9.916-12.36 14.502l-2.95-9.302z" fill="#FCCEC3"/><path d="M78.7 262.704s-3.93 1.783-9.03 3.992c-8.52 3.685-20.31 8.549-22.47 8.202a122.447 122.447 0 01-16.74-3.883l1.09-15.018 16.32 4.755 24.46-9.499 1.04-.407c6.89 2.497 5.33 11.858 5.33 11.858z" fill="#1B1B1B"/><path d="M41.7 233.64l-6.1-1.654c-4.21-1.149-8.36 2.03-8.36 6.399v2.159c0 5.667 2.69 11.006 7.24 14.374l7.09 5.25.13-26.528z" fill="#444"/><path d="M67.78 275.037l4.77 21.248s-13.21 6.567-27.52 2.427c-14.3-4.141-16.03-7.687-16.03-7.687l1.45-20.02 1.09-15.017 1.27-17.504c.26-3.655 3.75-6.181 7.3-5.31l20.06 4.933a16.324 16.324 0 0112.14 13.136c.15.891.22 1.793.22 2.714l-2.88 12.729-1.87 8.351z" fill="#1B1B1B"/><path d="M77.33 300.247s7.87 7.083 7.37 8.222c-.51 1.149-3.74-.079-5.04-1.198l4.13 5.705c.55.753.34 1.803-.45 2.298-2.86 1.813-9.71 3.953-15.12-11.579l9.11-3.448z" fill="#FCCEC3"/><path d="M63.26 239.217s-7.29 13.868-9.63 35.909c-.37 3.477 13.83 30.837 13.83 30.837s9.42 1.06 11.55-5.973l-11.24-24.953 4.71-20.149c.41-1.763.39-3.606-.11-5.349-.95-3.427-3.35-8.678-9.11-10.322z" fill="#444"/><path d="M211.67 64.557l10.09 5.745v-3.576a9.721 9.721 0 01-.03-.763c0-.247.02-.485.03-.723v-.08c.36-4.734 3.95-6.557 8.32-4.03 1.86 1.079 3.58 2.783 4.97 4.774.99-6.439 6.23-8.757 12.57-5.092 7.04 4.072 12.76 13.977 12.76 22.12l.01 7.657c0 1.239.65 2.378 1.72 3.002l5.94 3.487a8.563 8.563 0 014.23 7.389c0 2.715-2.94 4.418-5.29 3.061l-55.17-31.907a9.663 9.663 0 01-4.82-8.36c0-2.387 2.58-3.893 4.67-2.704zm-7.2-46.597l6.52 3.714v-2.308c-.01-.168-.02-.327-.02-.495 0-.159.01-.317.02-.466v-.05c.23-3.06 2.55-4.23 5.38-2.604 1.2.693 2.31 1.792 3.21 3.09.64-4.16 4.03-5.656 8.12-3.289 4.55 2.625 8.24 9.025 8.24 14.285v4.953c0 .792.42 1.535 1.11 1.941l3.83 2.249a5.539 5.539 0 012.73 4.774c0 1.754-1.9 2.853-3.42 1.972L204.56 25.12a6.218 6.218 0 01-3.11-5.398c.01-1.555 1.68-2.526 3.02-1.764z" fill="#EBFFE7"/></svg>