<svg width="200" height="200" fill="none" xmlns="http://www.w3.org/2000/svg"><g clip-path="url(#clip0_1853_10502)" fill="#509741"><path d="M121.876 34.792c0-12.062-9.814-21.876-21.876-21.876-12.062 0-21.875 9.814-21.875 21.876 0 12.062 9.813 21.875 21.875 21.875s21.876-9.813 21.876-21.875zM100 48.853c-7.753 0-14.061-6.308-14.061-14.061 0-7.754 6.308-14.062 14.061-14.062 7.754 0 14.062 6.308 14.062 14.062 0 7.753-6.308 14.061-14.062 14.061zm15.445 23.277c0 12.062 9.813 21.876 21.876 21.876 12.061 0 21.874-9.814 21.874-21.875 0-12.063-9.813-21.876-21.874-21.876-12.063 0-21.876 9.813-21.876 21.876zm21.876-14.06c7.753 0 14.061 6.307 14.061 14.06 0 7.754-6.308 14.062-14.061 14.062-7.754 0-14.062-6.308-14.062-14.061 0-7.754 6.308-14.062 14.062-14.062zM62.68 94.005c12.062 0 21.875-9.813 21.875-21.874 0-12.063-9.813-21.876-21.875-21.876s-21.875 9.813-21.875 21.876c0 12.061 9.813 21.874 21.875 21.874zm0-35.936c7.753 0 14.061 6.308 14.061 14.062 0 7.753-6.308 14.06-14.061 14.06-7.754 0-14.062-6.307-14.062-14.06 0-7.754 6.308-14.062 14.062-14.062z"/><path d="M198.78 96.705c-2.414-10.073-4.577-17.678-7.316-27.305l-.726-2.554a13.758 13.758 0 00-6.61-8.327 13.764 13.764 0 00-10.572-1.187c-6.984 2.023-11.211 9.262-9.619 16.495l4.126 18.381a11.54 11.54 0 00-7.337.888 11.893 11.893 0 00-4.859 4.32l-10.812 16.912c-7.019 3.078-11.755 7.699-14.075 13.737-2.883 7.5-1.107 15.063.07 18.615l-2.217 3.468-1.337-.856a3.907 3.907 0 00-5.576 1.491l-15.865 30.596a3.909 3.909 0 003.469 5.706h37.671a3.906 3.906 0 003.671-2.572l4.903-13.486a3.907 3.907 0 00-1.564-4.624l-.657-.42c1.402-1.238 2.354-1.551 2.791-1.47 6.697 1.159 13.631-1.547 18.098-7.063 5.57-6.878 11.52-15.207 13.673-18.575l4.846-7.578c6.523-10.205 8.646-22.814 5.824-34.592zm-54.322 82.565H115.95l10.936-21.09 20.471 13.115-2.899 7.975zm41.914-52.182l-4.845 7.577c-2.003 3.133-7.843 11.297-13.162 17.866-2.687 3.318-6.786 4.96-10.693 4.282-3.573-.619-7.216 1.012-10.867 4.848l-11.393-7.298 3.274-5.119a3.908 3.908 0 00.265-3.722c-.034-.075-3.345-7.714-.677-14.654 1.553-4.04 4.918-7.209 9.967-9.406.078-.028.157-.05.236-.073.113-.034.225-.067.337-.103a3.914 3.914 0 002.101-1.617l11.536-18.044a4.016 4.016 0 011.663-1.488c.956-.46 2.042-.484 3.056-.067a4.128 4.128 0 012.315 2.43l1.286 3.616-10.25 16.031a3.907 3.907 0 006.583 4.209l11.277-17.637.002-.004.153-.239a3.91 3.91 0 00.522-2.964l-7.493-33.38c-.706-3.21 1.124-6.414 4.166-7.295a6.001 6.001 0 014.612.516 5.997 5.997 0 012.88 3.628l.727 2.557c2.82 9.912 4.857 17.074 7.233 26.987 2.329 9.726.576 20.136-4.811 28.563z"/><path d="M158.164 137.232c-.639-1.533-2.227-2.522-3.887-2.402a3.94 3.94 0 00-3.475 2.822c-.449 1.563.149 3.306 1.478 4.25a3.945 3.945 0 004.442.072c1.535-1.013 2.149-3.047 1.442-4.742zm-80.082 13.55a3.908 3.908 0 00-5.576-1.492l-1.337.857-2.218-3.468c1.177-3.553 2.953-11.115.07-18.615-2.32-6.038-7.054-10.658-14.074-13.737L44.134 97.414a11.89 11.89 0 00-4.858-4.32 11.542 11.542 0 00-7.338-.887l4.13-18.398c1.587-7.217-2.64-14.455-9.623-16.478a13.766 13.766 0 00-10.572 1.186 13.757 13.757 0 00-6.61 8.328l-.726 2.554c-2.74 9.627-4.903 17.232-7.316 27.305-2.822 11.779-.7 24.387 5.825 34.592l4.845 7.578c2.153 3.368 8.103 11.696 13.673 18.574 4.469 5.517 11.404 8.223 18.099 7.063.442-.073 1.391.238 2.79 1.471l-.656.419a3.908 3.908 0 00-1.564 4.625l4.902 13.485a3.907 3.907 0 003.672 2.572h37.67a3.907 3.907 0 003.469-5.706l-15.864-30.595zm-24.885 10.879c-3.15-3.309-6.293-4.975-9.389-4.975a8.67 8.67 0 00-1.478.127c-3.909.678-8.007-.964-10.693-4.283-5.32-6.568-11.16-14.732-13.163-17.865l-4.844-7.578c-5.387-8.426-7.14-18.836-4.81-28.561 2.375-9.914 4.412-17.075 7.232-26.987l.727-2.557a5.994 5.994 0 012.88-3.629 6.001 6.001 0 014.612-.515c3.043.88 4.872 4.085 4.17 7.278l-7.497 33.397a3.907 3.907 0 00.523 2.963l.153.239.002.004 20.135 31.492a3.901 3.901 0 005.396 1.187 3.905 3.905 0 001.187-5.395l-19.108-29.886 1.285-3.616a4.13 4.13 0 012.316-2.43c1.014-.417 2.1-.394 3.056.067.68.327 1.24.828 1.662 1.488l11.537 18.044a3.912 3.912 0 002.1 1.617c.113.036.224.069.337.103.079.024.158.045.2.058 5.063 2.202 8.422 5.354 9.983 9.368 2.715 6.983-.628 14.644-.657 14.707a3.905 3.905 0 00.266 3.721l3.273 5.119-11.393 7.298zm2.347 17.609l-2.9-7.975 20.472-13.115 10.935 21.09H55.544z"/></g><defs><clipPath id="clip0_1853_10502"><path fill="#fff" d="M0 0h200v200H0z"/></clipPath></defs></svg>