<svg width="150" height="150" fill="none" xmlns="http://www.w3.org/2000/svg"><circle cx="75" cy="75" r="75" fill="#EBFFE7"/><path d="M75 112.774a1.347 1.347 0 01-1.027-.474c-1.176-1.377-28.797-33.947-28.797-54.774a29.824 29.824 0 1159.648 0c0 20.827-27.62 53.397-28.797 54.774a1.349 1.349 0 01-1.027.474zm0-82.368a27.153 27.153 0 00-27.122 27.121c0 17.649 22.054 45.593 27.122 51.781 5.067-6.189 27.121-34.139 27.121-51.78A27.151 27.151 0 0075 30.405z" fill="#509741"/><path d="M75 122.297c-14.666 0-30.253-4.17-30.253-11.9 0-5.45 8.435-9.925 21.487-11.401a1.368 1.368 0 011.51 1.343 1.353 1.353 0 01-1.259 1.352c-12.365 1.408-19.036 5.54-19.036 8.709.001 4.347 11.315 9.195 27.551 9.195 16.237 0 27.55-4.848 27.55-9.198 0-3.178-6.684-7.309-19.072-8.713a1.352 1.352 0 01.12-2.703h.016c.05 0 .1.003.15.008 13.055 1.476 21.487 5.946 21.487 11.402.002 7.736-15.585 11.906-30.251 11.906zm0-42.962a21.758 21.758 0 1121.757-21.767A21.788 21.788 0 0175 79.335zm0-40.821a19.054 19.054 0 1019.054 19.054A19.081 19.081 0 0075 38.514z" fill="#509741"/><path d="M75.34 67.622a8.215 8.215 0 01-5.827-2.41c-2.884-2.882-5.624-14.635-5.927-15.965a1.352 1.352 0 012.17-1.351 19.07 19.07 0 006.009 3.007c.971.283 2.264.52 3.513.747 3.02.55 4.92.936 5.888 1.903a8.243 8.243 0 01-5.826 14.069zm-8.313-15.738C68.243 56.44 70.025 61.9 71.425 63.3a5.542 5.542 0 107.838-7.837 17.016 17.016 0 00-4.46-1.156c-1.318-.24-2.682-.49-3.783-.81a21.851 21.851 0 01-3.993-1.614z" fill="#509741"/><path d="M85.023 67.62c-.109 0-.217-.013-.323-.039-6.537-1.605-13.243-9.428-13.522-9.76a1.354 1.354 0 012.065-1.75c.064.074 6.422 7.489 12.106 8.885a1.351 1.351 0 01-.32 2.663l-.006.001z" fill="#509741"/></svg>