<svg width="200" height="200" fill="none" xmlns="http://www.w3.org/2000/svg"><path d="M122.01 142.198c-.168-2.795-1.394-5.467-3.45-7.523l-14.837-14.84a15.535 15.535 0 006.321-3.825l.378-.377c6.538-6.539 6.014-17.702-1.169-24.886-3.418-3.417-7.839-5.452-12.45-5.73-4.79-.29-9.204 1.33-12.435 4.562l-.377.377a15.546 15.546 0 00-3.826 6.323L65.325 81.44c-4.372-4.373-11.223-4.637-15.272-.589l-13.449 13.45c-1.646 1.645-2.33 4.037-1.83 6.398a7.713 7.713 0 004.788 5.614c1.55.6 2.957 1.523 4.178 2.744l.426.426c2.067 2.067 3.295 4.693 3.458 7.396.152 2.525-.66 4.813-2.289 6.441-1.628 1.628-3.916 2.443-6.44 2.288-2.704-.163-5.33-1.391-7.396-3.457l-.427-.427a12.012 12.012 0 01-2.743-4.177 7.715 7.715 0 00-5.615-4.789c-2.36-.5-4.753.185-6.399 1.83L2.881 128.023c-4.048 4.048-3.784 10.899.59 15.272l14.838 14.839a15.56 15.56 0 00-6.323 3.826l-.378.378c-6.538 6.539-6.014 17.701 1.17 24.885 3.813 3.813 8.747 5.75 13.516 5.75 4.215 0 8.301-1.514 11.368-4.581l.378-.378a15.549 15.549 0 003.826-6.323l14.839 14.839c2.056 2.056 4.728 3.281 7.523 3.45.214.013.428.02.64.02 2.698 0 5.26-1.032 7.11-2.881l12.791-12.792a19.815 19.815 0 004.35 6.494l.427.426c7.183 7.183 18.347 7.708 24.885 1.169 6.539-6.538 6.014-17.702-1.169-24.885l-.426-.426a19.793 19.793 0 00-6.494-4.35l12.807-12.807c1.995-1.996 3.038-4.821 2.861-7.75zm-8.385 2.226l-13.449 13.448c-1.645 1.646-2.33 4.038-1.83 6.398a7.716 7.716 0 004.788 5.616 11.996 11.996 0 014.178 2.744l.426.426c4.137 4.137 4.662 10.344 1.169 13.836-3.492 3.493-9.7 2.968-13.836-1.169l-.426-.426a12.02 12.02 0 01-2.744-4.177 7.715 7.715 0 00-5.615-4.79c-2.361-.499-4.753.186-6.398 1.831l-13.434 13.434c-.54.541-1.252.62-1.755.588-.874-.053-1.774-.482-2.47-1.176l-5.952-5.953 12.963-12.963a3.907 3.907 0 00-5.524-5.525l-12.964 12.963-4.044-4.045c-1.48-1.479-3.428-2.279-5.392-2.279-.679 0-1.36.096-2.024.292-2.402.712-4.147 2.602-4.67 5.057-.328 1.542-1.037 2.866-2.107 3.936l-.378.378c-3.492 3.492-9.7 2.968-13.836-1.17-4.137-4.137-4.662-10.343-1.17-13.836l.378-.378c1.07-1.07 2.395-1.779 3.936-2.107 2.456-.522 4.346-2.268 5.058-4.67.764-2.584.003-5.425-1.988-7.415L8.995 137.77c-.696-.695-1.124-1.595-1.177-2.47-.03-.501.047-1.213.587-1.754l12.792-12.792a19.815 19.815 0 004.35 6.494l.427.426c7.183 7.184 18.346 7.708 24.885 1.169 6.538-6.538 6.014-17.701-1.17-24.885l-.426-.426a19.81 19.81 0 00-6.494-4.35l12.807-12.807c.986-.985 2.92-.716 4.224.588l15.522 15.522c1.99 1.991 4.831 2.752 7.415 1.987 2.402-.711 4.147-2.602 4.67-5.057.328-1.541 1.037-2.866 2.108-3.936l.377-.378c1.628-1.627 3.915-2.44 6.44-2.287 2.704.162 5.331 1.39 7.397 3.457 4.137 4.137 4.662 10.344 1.169 13.836l-.377.378c-1.071 1.07-2.395 1.779-3.936 2.107-2.456.523-4.346 2.268-5.058 4.67-.764 2.583-.003 5.425 1.987 7.415l15.522 15.522c.695.695 1.124 1.595 1.176 2.469.031.503-.046 1.215-.587 1.756z" fill="#509741"/><path d="M79.262 156.547a3.934 3.934 0 00-2.762-1.145 3.934 3.934 0 00-2.762 1.145 3.934 3.934 0 00-1.144 2.761c0 1.028.418 2.035 1.144 2.762a3.927 3.927 0 002.762 1.145 3.934 3.934 0 002.762-1.145 3.936 3.936 0 001.144-2.762 3.934 3.934 0 00-1.144-2.761zm82.951-106.94a3.936 3.936 0 00-2.762-1.144 3.938 3.938 0 00-2.762 1.144 3.937 3.937 0 00-1.144 2.762 3.94 3.94 0 001.144 2.762 3.938 3.938 0 002.762 1.144 3.936 3.936 0 002.762-1.144 3.938 3.938 0 001.144-2.762 3.937 3.937 0 00-1.144-2.762z" fill="#509741"/><path d="M191.464 89.778c-2.122-2.123-4.689-3.746-7.45-4.715l13.096-13.095c1.995-1.995 3.038-4.82 2.861-7.75-.168-2.795-1.394-5.467-3.45-7.523l-14.546-14.548a15.565 15.565 0 005.454-3.524l.378-.378c6.538-6.538 6.014-17.701-1.17-24.885-7.183-7.183-18.346-7.707-24.885-1.169l-.378.378a15.599 15.599 0 00-3.524 5.456L143.286 3.46c-4.373-4.373-11.224-4.637-15.273-.59l-13.095 13.096c-.969-2.76-2.592-5.328-4.714-7.45l-.427-.426C102.594.908 91.431.384 84.892 6.921c-6.538 6.54-6.014 17.703 1.17 24.885l.426.427c2.122 2.122 4.69 3.745 7.45 4.715L80.842 50.043c-4.048 4.048-3.784 10.9.59 15.273L96.968 80.84c1.99 1.99 4.833 2.752 7.415 1.987 2.402-.711 4.147-2.602 4.67-5.057.328-1.541 1.037-2.865 2.107-3.936l.378-.377c1.628-1.629 3.92-2.442 6.441-2.289 2.703.164 5.329 1.392 7.396 3.458 2.066 2.066 3.294 4.693 3.457 7.396.153 2.526-.66 4.813-2.288 6.441l-.377.378c-1.071 1.07-2.395 1.779-3.936 2.107-2.456.522-4.346 2.268-5.057 4.67-.765 2.582-.004 5.423 1.986 7.414l15.507 15.519c2.297 2.297 5.278 3.461 8.178 3.461 2.62 0 5.173-.95 7.095-2.872l13.095-13.096c.969 2.76 2.592 5.328 4.714 7.45l.427.427c7.183 7.183 18.346 7.707 24.885 1.169 6.538-6.539 6.014-17.702-1.169-24.885l-.428-.427zm-3.929 19.786c-3.492 3.493-9.699 2.968-13.836-1.169l-.426-.426c-1.361-1.361-2.381-3.005-2.95-4.757a7.792 7.792 0 00-5.558-5.137c-2.429-.583-4.895.084-6.597 1.786l-13.753 13.753c-.541.541-1.254.619-1.755.588-.875-.053-1.775-.482-2.469-1.176l-14.825-14.837a15.564 15.564 0 006.324-3.825l.377-.378c3.231-3.231 4.851-7.648 4.562-12.436-.278-4.61-2.313-9.032-5.731-12.449-3.417-3.417-7.839-5.453-12.449-5.731-4.79-.288-9.205 1.33-12.436 4.562l-.377.377a15.553 15.553 0 00-3.826 6.324L86.956 59.791c-.695-.695-1.123-1.595-1.177-2.47-.03-.502.048-1.214.588-1.755l13.754-13.753c1.701-1.702 2.369-4.168 1.785-6.598a7.792 7.792 0 00-5.137-5.558c-1.75-.568-3.395-1.588-4.756-2.948l-.427-.427c-4.137-4.137-4.661-10.344-1.169-13.837 3.492-3.492 9.7-2.968 13.837 1.17l.426.426c1.361 1.36 2.381 3.005 2.949 4.756a7.793 7.793 0 005.559 5.137c2.429.583 4.895-.084 6.597-1.786l13.753-13.753c.986-.985 2.92-.716 4.224.589L152.94 24.16c1.923 1.924 4.685 2.709 7.206 2.046a6.66 6.66 0 004.772-4.694 7.695 7.695 0 011.981-3.42l.378-.378c3.491-3.493 9.699-2.969 13.836 1.169 4.137 4.137 4.662 10.344 1.169 13.836l-.378.378a7.686 7.686 0 01-3.42 1.98 6.66 6.66 0 00-4.694 4.773c-.662 2.521.122 5.283 2.046 7.207l15.16 15.16c.695.695 1.124 1.595 1.177 2.47.03.502-.047 1.214-.588 1.754l-6.269 6.27-12.945-12.946a3.906 3.906 0 10-5.524 5.524l12.945 12.945-1.961 1.961c-1.701 1.702-2.368 4.168-1.785 6.598a7.793 7.793 0 005.136 5.558c1.752.569 3.396 1.588 4.757 2.95l.426.426c4.139 4.137 4.663 10.345 1.17 13.836z" fill="#509741"/></svg>