<svg width="1920" height="434" fill="none" xmlns="http://www.w3.org/2000/svg"><g opacity=".2"><mask id="a" maskUnits="userSpaceOnUse" x="0" y="0" width="1920" height="434"><path fill="#509741" d="M0 0h1920v434H0z"/></mask><g mask="url(#a)"><g style="mix-blend-mode:overlay" opacity=".5"><path d="M1739.38 368.2c0 9.145-1.13 18.041-3.24 26.517-11.86 47.498-54.78 82.683-105.94 82.683s-94.1-35.185-105.95-82.683a109.07 109.07 0 01-3.04-19.682c-.13-2.272-.21-4.544-.21-6.835 0-27.3 10.02-52.252 26.57-71.4 20.03-23.157 49.62-37.8 82.63-37.8 12.83 0 25.14 2.215 36.56 6.281 34.76 12.352 61.4 41.79 69.83 78.234 1.82 7.923 2.79 16.19 2.79 24.685z" fill="#FFAD55"/><path opacity=".2" d="M1628.67 335.917c0 7.827-7.81 7.827-7.81 7.827h-39.11s-7.83 0-7.83 7.809c0 7.827 7.83 7.827 7.83 7.827H1600s7.83 0 7.83 7.827-7.83 7.827-7.83 7.827h-78.79c-.13-2.271-.21-4.543-.21-6.834 0-27.3 10.02-52.252 26.57-71.4h34.18s7.82 0 7.82 7.827-7.82 7.827-7.82 7.827h-10.45s-7.8 0-7.8 7.809c0 7.827 7.8 7.827 7.8 7.827h49.56s7.81 0 7.81 7.827zm107.92 7.599h-78.38s-7.83 0-7.83-7.827c0-7.828 7.83-7.828 7.83-7.828h10.44s7.81 0 7.81-7.827c0-7.808-7.81-7.808-7.81-7.808h-49.56s-7.81 0-7.81-7.827c0-7.828 7.81-7.828 7.81-7.828h39.12s7.82 0 7.82-7.827-7.82-7.827-7.82-7.827h-18.25s-7.83 0-7.83-7.808c0-7.828 7.83-7.828 7.83-7.828h26.8c34.76 12.352 61.4 41.79 69.83 78.235z" fill="#fff"/><path d="M1670 360.429s5.77-14.051 15.43-19.072c9.66-5.02 17.53-21.21 17.53-21.21s0 21.191-15.87 27.51c-15.86 6.339-17.09 12.772-17.09 12.772zm-5.36 33.276s-8.19-8.533-3.63-22.298c4.55-13.765-3.22-32.187-3.22-32.187s.89 11.206-3.55 18.308c-4.43 7.121-5.48 28.636 10.4 36.177zm1.7-.515s3.49-10.424 12.77-14.681 10.92-18.919 10.92-18.919-6.43 8.381-14.3 11.588c-7.86 3.207-9.39 22.012-9.39 22.012zm-6.38-88.793s-1.62 12.543 4.7 19.206 9.68 20.007 9.68 20.007.51-16.838-5.23-23.463c-5.75-6.605-9.15-15.75-9.15-15.75zm16.04 22.967s.44-29.19 14.41-36.616c0 0 3.13 19.301-14.41 36.616z" fill="#509741"/><path d="M1668.21 410.276c-18.29-22.069-.15-46.563 4.47-69.93 2-10.844 2.17-21.592-.92-32.226-1.13-3.837-2.84-7.331-4.81-10.786-1.74-3.055-.4-4.143 1.6-.993 13.61 21.42 9.47 46.83 2.75 69.949-3.21 11.054-6.62 21.344.17 31.939 1.09 1.7 3.19 3.227 4.13 4.926 5.32 4.734-2.81 12.581-7.39 7.121z" fill="#2C6E55"/><path d="M1736.14 394.717c-4.78 19.129-14.59 36.253-27.93 49.884-19.82 20.237-47.45 32.799-78.01 32.799-20.75 0-40.17-5.804-56.68-15.865-24.21-14.719-42.23-38.602-49.27-66.818h49.77s0 21.611 21.61 21.611 21.61-21.611 21.61-21.611h30.22s0 21.611 21.61 21.611 21.61-21.611 21.61-21.611h45.46z" fill="#A86C1C"/><path d="M1608.59 394.717c0 9.545-5.8 17.277-12.96 17.277-1.23 0-2.41-.229-3.54-.649-5.44-2.043-9.43-8.706-9.43-16.628 0-7.121 3.25-13.249 7.87-15.884 1.56-.916 3.28-1.413 5.1-1.413 7.16 0 12.96 7.751 12.96 17.297z" fill="#509741"/><path d="M1608.59 394.717c0 9.545-5.8 17.277-12.96 17.277-1.23 0-2.41-.229-3.54-.649-.47-3.093-.64-9.507 4.66-14.471 6.19-5.804-3.22-15.311-6.22-18.041 1.56-.916 3.28-1.413 5.1-1.413 7.16 0 12.96 7.751 12.96 17.297z" fill="#2C6E55"/><path d="M1708.21 444.602c-19.82 20.236-47.45 32.798-78.01 32.798-20.75 0-40.17-5.804-56.68-15.864 3.53-2.635 7.54-4.487 12.26-4.85 7.52-.763 14.28 1.127 21.8 1.127 17.64 0 26.67-22.546 45.43-17.659 6.4 1.508 6.4 5.25 12.41 2.634 4.87-2.252 8.27-6.013 13.52-7.14 11.07-2.921 22.14.63 29.27 8.954zm-143.97-22.356c-3.7 2.711.97 12.161 6.82 11.034 5.84-1.126 10.71-10.538 6.49-11.683-4.22-1.127-5.35 5.67-6.82 3.894-1.47-1.775-2.27-6.319-6.49-3.245zm130.51.917c1.83 2.616 18.21-2.52 13.46-8.476-4.76-5.956-16.67 3.895-13.46 8.476zm-69.15 5.498c3.05 2.596 9.62-8.037 6.41-10.309-3.2-2.291-12.37 5.269-6.41 10.309zm-1.97-11.683c4.95-.249 1.74-7.789-1.24-7.102-2.98.687-3.24 7.331 1.24 7.102z" fill="#685338"/></g><g style="mix-blend-mode:overlay" opacity=".5"><path d="M593.583 67.634c.048 22.95-5.772 46.228-18.071 67.528a134.16 134.16 0 01-10.957 16.163C523.77 203.09 450.14 218.429 391.401 184.5c-15.244-8.812-28.133-20.145-38.406-33.175-28.556-36.167-37.086-85.387-20.804-129.754A136.42 136.42 0 01342.086.413c8.341-14.467 18.968-26.79 31.149-36.78C415.363-70.98 476.176-77.79 526.174-48.926a134.705 134.705 0 0126.506 20.004c26.413 25.612 40.833 60.695 40.903 96.556z" fill="#509741"/><path opacity=".2" d="M442.317-26.707c0 9.66-9.66 9.66-9.66 9.66h-57.915s-9.66 0-9.66 9.637c0 9.66 9.66 9.66 9.66 9.66h12.865s9.66 0 9.66 9.66-9.66 9.66-9.66 9.66H332.19A136.427 136.427 0 01342.086.412c8.341-14.467 18.967-26.79 31.148-36.78h59.423s9.66 0 9.66 9.66zm151.266 94.341h-48.561s-9.636 0-9.636-9.66c0-9.637 9.636-9.637 9.636-9.637h12.889s9.636 0 9.636-9.66-9.636-9.66-9.636-9.66h-61.166s-9.637 0-9.637-9.661c0-9.637 9.637-9.637 9.637-9.637h48.277s9.661 0 9.661-9.66-9.661-9.66-9.661-9.66h-22.525s-9.66 0-9.66-9.66 9.66-9.66 9.66-9.66h30.183c26.413 25.61 40.832 60.694 40.903 96.555z" fill="#fff"/><path d="M522.498 48.336h-16.093v19.32h16.093v-19.32z" fill="#D0482D"/><path d="M545.023 83.726v38.618h-154.47V70.861c0-16.399 4.194-34.494 9.99-48.277C406.127 9.342 413.195.059 419.51.059h28.981s19.297 0 25.729 16.092c.801 1.98 1.673 4.147 2.639 6.433 6.786 16.328 16.682 38.617 16.682 38.617h12.864c38.618 0 38.618 22.525 38.618 22.525z" fill="#FFAD55"/><path opacity=".2" d="M390.553 96.59v25.753h154.47V96.59h-154.47zm109.42 16.092h-54.71v-9.636h54.71v9.636z" fill="#000"/><path d="M545.022 99.111v23.232h-54.121c3.016-16.446 17.436-28.957 34.824-28.957 7.14 0 13.737 2.097 19.297 5.725z" fill="#D0482D"/><path opacity=".2" d="M476.858 22.584h-76.316C406.126 9.342 413.195.059 419.509.059h28.981s19.297 0 25.729 16.092c.801 1.98 1.673 4.147 2.639 6.433z" fill="#000"/><path d="M422.738 32.667V96.59h-19.321V67.633c0-14.726 8.082-32.115 19.321-34.965zm61.141 41.399v22.525h-48.277V32.244h22.525c19.32 0 25.752 32.185 25.752 41.822z" fill="#685338"/><path d="M509.892 38.134c5.843 4.43 9.118-4.029 9.118-4.029s4.288 5.467 11.522 2.592c7.233-2.875 4.971-7.163 4.971-7.163s4.972 4.83 10.462 1.744c5.49-3.087 3.628-8.718 3.628-8.718.189.801 8.977 4.147 13.689-3.487 4.689-7.634-4.146-11.003-4.146-11.003s4.688-9.26-2.828-14.49c-7.516-5.231-10.202 4.97-10.202 4.97s-2.285-9.283-9.919-6.455c-7.634 2.827-4.289 11.003-4.289 11.003s-4.971-4.971-10.32.142c-5.372 5.089-1.484 10.06-1.484 10.06s-6.291-4.971-10.202 1.084c-3.888 6.032 1.602 12.464 1.602 12.464s-7.775 6.598-1.602 11.286z" fill="#fff"/><path d="M451.059 122.343h-41.186l-43.33-43.33c19.462-19.462 51.082-19.462 70.544 0 11.781 11.805 16.446 28.039 13.972 43.33z" fill="#D0482D"/><path d="M401.815 151.324c20.443 0 37.015-16.573 37.015-37.016 0-20.443-16.572-37.015-37.015-37.015s-37.016 16.572-37.016 37.015 16.573 37.016 37.016 37.016z" fill="#685338"/><path d="M414.328 126.818c6.91-6.91 6.91-18.114 0-25.024s-18.114-6.91-25.024 0-6.91 18.114 0 25.024 18.114 6.91 25.024 0z" fill="#fff"/><path d="M531.118 150.646c12.074-2.993 19.436-15.208 16.443-27.282-2.993-12.075-15.208-19.437-27.282-16.444-12.075 2.993-19.437 15.208-16.443 27.283 2.993 12.074 15.207 19.436 27.282 16.443z" fill="#685338"/><path d="M533.76 128.775a8.028 8.028 0 00-8.034-8.034 8.03 8.03 0 00-8.035 8.034 8.03 8.03 0 008.035 8.035c4.43.023 8.034-3.582 8.034-8.035z" fill="#fff"/><path d="M483.88 85.964h-45.05v10.627h45.05V85.964z" fill="#D0482D"/><path d="M564.555 151.325c-40.785 51.765-114.415 67.103-173.154 33.174-15.245-8.812-28.133-20.145-38.406-33.174h211.56z" fill="#A86C1C"/></g><g style="mix-blend-mode:overlay" opacity=".5"><path d="M1729.8 161.738c-15.28 8.82-32.93 9.79-48.29 4.16a56.906 56.906 0 01-29.84-25.1c-2.45-4.25-4.3-8.68-5.56-13.2-6.89-24.56 3.38-51.59 26.49-64.93 13.89-8.02 29.75-9.55 44.06-5.52 13.87 3.88 26.3 12.99 34.08 26.46 2.66 4.61 4.61 9.43 5.86 14.35 6.26 24.24-4.05 50.64-26.8 63.78z" fill="#FFAD55"/><path d="M1708.63 107.959s-2.74 3.15-6.66 7.65c-8.65 9.94-23.09 26.41-26.8 30.12-5.4 5.4-9.71 1.07-9.71 1.07s-4.32-4.31 1.07-9.71c3.71-3.71 20.19-18.15 30.12-26.8l7.65-6.65 2.16 2.16 2.17 2.16z" fill="#D0482D"/><path d="M1708.63 107.959s-2.74 3.15-6.66 7.65c-.86-.38-1.87-1.07-3.06-2.26-1.19-1.19-1.88-2.2-2.26-3.06l7.65-6.65 2.16 2.16 2.17 2.16z" fill="#509741"/><path opacity=".15" d="M1708.63 107.958s-2.74 3.15-6.67 7.65c-8.64 9.94-23.09 26.41-26.79 30.12-5.4 5.4-9.71 1.07-9.71 1.07s-.42-.42-.84-1.16c1.63.91 4.83 1.8 8.55-1.91 3.7-3.71 18.15-20.18 26.79-30.12 3.8-4.36 6.48-7.44 6.67-7.64l2 1.99z" fill="#000"/><path d="M1705.17 107.088c13.87 13.87 25.3 1.31 29.23-6.65 3.93-7.96 4.85-15.17 3.75-15.64-2.81-1.18-3.97 5.84-6.23 10.35-2.26 4.51-10.84 16.24-20.06 9.96 0 0 24.03-24.82 22.07-26.78-1.96-1.96-26.78 22.07-26.78 22.07-6.28-9.22 5.44-17.81 9.96-20.06 4.51-2.26 11.52-3.42 10.35-6.23-.46-1.1-7.67-.18-15.64 3.75-7.96 3.93-20.52 15.37-6.65 29.23zm24.63 54.651c-15.28 8.82-32.93 9.789-48.29 4.159 3.68-4.64 3.71-12.329 8.18-16.53 6.1-5.38 13.98-.359 21.15-2.149 9.33-2.51 10.04-11.12 12.91-18.65 4.66-10.75 10.04-6.09 18.64-8.24 9.68-2.51 7.17-14.7 12.55-20.79.33-.41.91-.97 1.66-1.58 6.26 24.239-4.05 50.64-26.8 63.78zm-13.14-104.591c-2.09.68-4.19 1.29-5.46 2.24-3.94 2.86-4.3 6.09-6.09 10.39-4.66 10.4-10.4 7.89-18.64 12.55-8.25 5.02-8.61 15.41-12.19 23.3-4.66 9.32-10.4 11.11-19.36 15.06-3.99 1.68-6.79 4.03-8.81 6.91-6.89-24.56 3.38-51.59 26.49-64.93 13.89-8.02 29.75-9.55 44.06-5.52z" fill="#A86C1C"/><path d="M1686.68 76.899c1.6 1.36 5.04-4.21 3.36-5.4-1.68-1.2-6.48 2.76-3.36 5.4zm52.93 53.399c1.6 1.36 5.04-4.21 3.36-5.4-1.68-1.19-6.48 2.77-3.36 5.4zm-10.7 20.6c1.61-1.35-3.29-5.68-4.75-4.23-1.47 1.46 1.62 6.86 4.75 4.23zm-65.46-53.3c2.43 2.06 7.64-6.38 5.1-8.2-2.55-1.81-9.83 4.19-5.1 8.2zm33.01 58.28c.13 3.18 9.87 1.32 9.48-1.78-.38-3.11-9.73-4.41-9.48 1.78zm34-21.31c2.43 2.06 7.64-6.38 5.1-8.2-2.54-1.82-9.83 4.2-5.1 8.2zm-66.82-45.68c1.35 1.15 4.26-3.56 2.84-4.57-1.42-1.01-5.47 2.34-2.84 4.57z" fill="#685338"/></g><g style="mix-blend-mode:overlay" opacity=".5"><path d="M685.748 315.803a57.237 57.237 0 01-12.22 14.77c-13.46 11.58-31.71 16.29-49.13 12.61a57.057 57.057 0 01-16.79-6.44c-5.41-3.12-10.12-7-14.05-11.42-11.15-12.46-16.25-29.24-14.06-45.68a56.85 56.85 0 017.17-21.03 57.038 57.038 0 0127.25-24.08c15.94-6.74 34.74-6.18 50.89 3.14 16.45 9.49 26.4 25.93 28.27 43.48 1.26 11.63-1.04 23.75-7.33 34.65z" fill="#FFAD55"/><path d="M636.208 256.403h-19.53c0 9.01-9.01 15.02-9.01 22.54v36.06c0 7.51 4.51 9.01 10.52 9.01h36.06c6.01 0 10.52-1.5 10.52-9.01v-36.06c0-7.51-9.01-13.52-9.01-22.54h-19.55z" fill="#EC6A52"/><path opacity=".1" d="M636.208 256.403h-11.49c0 9.01-5.3 15.02-5.3 22.54v36.06c0 7.51 2.65 9.01 6.18 9.01h21.2c3.53 0 6.18-1.5 6.18-9.01v-36.06c0-7.51-5.3-13.52-5.3-22.54h-11.47z" fill="#fff"/><path d="M616.678 256.403s-3 0-3-3.01c0-3 3-3 3-3h39.06s3 0 3 3c0 3.01-3 3.01-3 3.01h-39.06z" fill="#685338"/><path d="M664.758 307.493s-7.51 3.01-28.55 3.01-28.55-3.01-28.55-3.01v-27.04s7.51 3.01 28.55 3.01 28.55-3.01 28.55-3.01v27.04z" fill="#fff"/><path d="M636.208 305.993c-10.52 0-15.02-9.02-10.52-13.53 2.49-2.48 4.51-2.68 6.34-2.36 1.49.25 2.84.86 4.18.86 1.34 0 2.69-.61 4.18-.86 1.83-.32 3.85-.12 6.34 2.36 4.5 4.51 0 13.53-10.52 13.53z" fill="#EC6A52"/><path d="M642.218 295.473c-1.58 1.42-3.38-1.13-3.38-1.13 0 3.01-2.63 2.63-2.63 2.63s-2.63.38-2.63-2.63c0 0-1.8 2.55-3.38 1.13-2.63-2.38 1.83-5.35 1.83-5.35v-.02c1.49.25 2.84.86 4.18.86 1.34 0 2.69-.61 4.18-.86v.02s4.46 2.97 1.83 5.35z" fill="#509741"/><path d="M635.748 292.663c.16-2.25-.57-3.24.99-5.39.37-.46 1.24-1.7 1.8-1.83 1.27-1.19 2.95 1.01 1.5 1.93-.38.77-2.2 1.45-2.81 2.29-.85 1.18-.08 3.21-1.48 3z" fill="#685338"/><path opacity=".2" d="M623.848 277.273a3.01 3.01 0 10-.001-6.021 3.01 3.01 0 00.001 6.021zm25.3 1.6a3.01 3.01 0 10-.001-6.021 3.01 3.01 0 00.001 6.021zm-31.32 37.89a3.01 3.01 0 10-.001-6.021 3.01 3.01 0 00.001 6.021zm36.02 3.01a3.01 3.01 0 10-.001-6.021 3.01 3.01 0 00.001 6.021z" fill="#fff"/><path opacity=".3" d="M629.098 271.253a1.33 1.33 0 10-.001-2.661 1.33 1.33 0 00.001 2.661zm-8.26-3.9a1.33 1.33 0 10-.001-2.661 1.33 1.33 0 00.001 2.661zm-1.56 6.91c0-.61-.49-1.1-1.1-1.1-.61 0-1.1.49-1.1 1.1 0 .61.49 1.1 1.1 1.1.61-.01 1.1-.5 1.1-1.1zm34.21-3.01a1.33 1.33 0 10-.001-2.661 1.33 1.33 0 00.001 2.661zm-1.33 45.16a1.33 1.33 0 10-.001-2.661 1.33 1.33 0 00.001 2.661z" fill="#fff"/><path d="M685.748 315.803a57.237 57.237 0 01-12.22 14.77c-4.99-6.21-9.99-12.91-10.88-21.08 4.51-.21 7.73.22 12.03.86-7.07-4.16-15.93-10.95-17.83-24.91 6.45-2.36 15.46 2.8 21.26 5.37-1.5-6.23-4.08-10.52-3.86-17.18 3.21-.14 12.56 3.78 18.83 7.52 1.26 11.63-1.04 23.75-7.33 34.65zm-58.9-61.49c-13.27 3.91-22.8-2.36-22.8-2.36 13.31 15.67 9.62 26.99 9.62 26.99-15.71-3.5-22.51-14.25-22.51-14.25 4.94 12.75 3.87 22.51 3.87 22.51-6.8-.28-11.97-3.86-15.53-7.56a56.85 56.85 0 017.17-21.03 57.038 57.038 0 0127.25-24.08c15.81 9.94 12.93 19.78 12.93 19.78zm-2.45 88.87a57.057 57.057 0 01-16.79-6.44c-5.41-3.12-10.12-7-14.05-11.42 2.44-3.01 6.23-6.64 11.51-8.92 0 0 2.82 4.3 1.14 14.14.22-.63 3.95-10.67 17.74-13.78 0 0 8.84 12.24.45 26.42z" fill="#509741"/></g><g style="mix-blend-mode:overlay" opacity=".5"><path d="M1461.29 139.876c-2.7 5.883-5.98 11.519-9.76 16.853a104.698 104.698 0 01-12.47 14.641 79.702 79.702 0 01-3.84 3.613 108.315 108.315 0 01-17.91 12.919c-12.92 7.452-26.73 11.954-40.67 13.676-41.86 5.239-84.7-14.452-107.13-53.285-29.87-51.733-12.15-117.899 39.61-147.785 51.75-29.867 117.91-12.143 147.8 39.609 18.31 31.72 18.73 68.889 4.37 99.759z" fill="#509741"/><path d="M1313.64 45.167s-35 .53-38.14 34.464c0 0 6.79-3.915 14.63-1.57 0 0-9.93 4.956-9.41 16.721 0 0 5.49-5.75 13.85-4.445 0 0-3.39 14.621 4.69 21.412 0 0 5.75-7.055 12.79-9.666 0 0-1.57 13.052 9.93 20.372 0 0 2.08-8.871 8.62-12.787 0 0 9.93 8.872 10.71 18.273 0 0 8.61-8.872 8.87-16.967 0 0 12.54 9.136 12.54 15.416 0 0 8.34-13.052 5.73-20.372 0 0 14.11.529 18.03 12.011 0 0 5.49-9.136 3.65-20.372 0 0 13.05 0 17.76 8.871 0 0 .27-18.026-7.05-24.816 0 0 9.4-1.04 12.78 4.823 0 0-6.26-27.03-18.02-32.515 0 0 9.66-1.57 14.09 2.345 0 0-10.74-21.336-39.17-15.416l-56.88 4.218z" fill="#FFAD55"/><path opacity=".15" d="M1318.35 51.694s-18.27 4.71-20.37 16.967c0 0 3.61-3.405 11.99-1.57 0 0-3.9 7.585 1.06 16.853 0 0 4.69-5.617 10.44-7.187 0 0-3.65 9.136 0 14.091 0 0 5.48-9.4 14.88-13.846 0 0 9.94 4.692 12.55 12.541 0 0 3.8-4.464 3.14-11.235 0 0 17.23 7.83 21.14 15.15 0 0 3.92-7.32 2.88-14.62 0 0 9.66 3.915 12.78 8.625 0 0-1.04-13.336-6.26-20.372 0 0 6.26-1.57 9.4 0 0 0-4.19-11.576-20.1-15.397h-53.53z" fill="#000"/><path d="M1355.14 37.034c0-10.1-8.19-29.262-18.27-29.262-10.11 0-18.28 19.161-18.28 29.262 0 10.1 8.19 18.272 18.28 18.272 10.1 0 18.27-8.19 18.27-18.272z" fill="#EFE6D6"/><path d="M1351.58 55.174c0-10.101-8.19-29.262-18.27-29.262s-18.27 19.16-18.27 29.262c0 10.1 8.19 18.272 18.27 18.272s18.27-8.172 18.27-18.272z" fill="#F7F1E6"/><path d="M1379.44 56.138c0-10.1-8.19-29.261-18.27-29.261-10.1 0-18.27 19.16-18.27 29.261 0 10.101 8.19 18.273 18.27 18.273s18.27-8.172 18.27-18.273z" fill="#fff"/><path d="M1385.63 92.57s-22.36-36.148 0-43.052c22.36-6.904 25.16 17.97 25.16 17.97s10.57-14.83 23.11-5.845c12.54 8.984 4.81 24.041 4.81 24.041s14.2-3.14 18.59 15.265c4.39 18.385-8.99 23.19-8.99 23.19s13.38 2.951 13.17 19.445c-.21 16.494-26.12 16.286-26.12 16.286s2.89-47.024-8.57-61.021c-18.99-23.209-41.16-6.28-41.16-6.28zm-19.41 44.734s-24.93 32.308-10.65 41.841c10.03 6.696 18.43 0 18.43 0l-7.78-41.841z" fill="#EC6A52"/><path d="M1375.24 109.347l-4.46 25.384-1.38 7.831c-20.22-2.364-28.22-24.874-29-27.181a1.963 1.963 0 01-.05-.189c10.44.832 34.89-5.845 34.89-5.845z" fill="#EC6A52"/><path opacity=".2" d="M1370.78 134.731l-1.38 7.831c-20.22-2.365-28.22-24.874-29-27.181l.1-.038s11.08 16.399 30.28 19.388z" fill="#000"/><path d="M1439.06 171.37a79.206 79.206 0 01-3.84 3.613 108.257 108.257 0 01-17.91 12.919c-12.92 7.453-26.73 11.955-40.67 13.676-1.66-3.613-4.55-10.687-6.96-20.258-2.64-10.555-4.67-24.117-3.67-39.382.08-1.324.17-2.648.33-4.01.11-1.324.26-2.686.45-4.048.57-4.331 1.38-8.758 2.52-13.278.96-3.878 2.06-7.377 3.27-10.555.38-1.059.79-2.1 1.23-3.083 2.42-5.694 5.22-10.158 8.24-13.62a31.25 31.25 0 012.5-2.629 30.283 30.283 0 014.11-3.272.561.561 0 00.09-.076h.02c.02-.019.04-.019.06-.037.3-.209.62-.398.92-.587 2.69-1.626 5.45-2.686 8.16-3.272.35-.076.73-.151 1.09-.208.29-.057.55-.095.83-.133.4-.075.8-.113 1.21-.15.31-.039.61-.058.91-.077.15-.019.31-.019.44-.019.45-.018.91-.037 1.34-.037 2.52 0 4.94.34 7.19.889.76.189 1.49.397 2.19.643 3.03.983 5.64 2.345 7.64 3.764 10.82 7.698 21.4 18.518 17.09 56.746-.61 5.296-.69 10.271-.38 14.886.26 4.143.81 8.02 1.6 11.595z" fill="#EFE6D6"/><path opacity=".15" d="M1439.06 171.37a83.892 83.892 0 01-3.83 3.613c-1.63-7.566-2.31-16.362-1.18-26.311.89-7.945 1.16-14.697.89-20.485v-.171c-.24-5.296-.93-9.76-1.93-13.6-3.14-12.124-9.55-17.875-16.04-22.49-3.02-2.156-7.47-4.161-12.56-4.956a24.42 24.42 0 00-2.68-.265c-5.36-.359-11.26.776-16.88 4.521a32.43 32.43 0 00-2.8 2.119c.82-.946 1.67-1.816 2.52-2.63.89-.85 1.82-1.626 2.72-2.307.46-.34.91-.662 1.37-.965a.561.561 0 00.09-.076h.02c.02-.019.04-.019.06-.037.3-.209.62-.398.92-.587 2.69-1.626 5.45-2.686 8.16-3.272.35-.076.73-.151 1.09-.208.29-.057.55-.095.83-.133.4-.075.8-.113 1.22-.15.3-.039.6-.058.9-.058.15-.037.31-.037.44-.037.45-.02.91-.038 1.34-.038 2.52 0 4.94.34 7.19.889.76.189 1.49.397 2.19.643 3.03.983 5.64 2.345 7.64 3.764 10.82 7.698 21.4 18.518 17.09 56.746-.61 5.296-.69 10.271-.38 14.886.26 4.143.81 8.02 1.6 11.595z" fill="#000"/><path d="M1403.92 118.691a8.03 8.03 0 00-8.04-8.039 8.036 8.036 0 00-8.04 8.039c0 4.445 3.6 8.039 8.04 8.039a8.03 8.03 0 008.04-8.039z" fill="#685338"/><path d="M1398.59 116.97c0-1.835-1.48-3.31-3.31-3.31a3.298 3.298 0 00-3.31 3.31c0 1.835 1.47 3.31 3.31 3.31 1.83 0 3.31-1.475 3.31-3.31z" fill="#fff"/></g><g style="mix-blend-mode:overlay" opacity=".5"><path d="M301.838 435.838c32.003-32.003 32.003-83.889 0-115.892-32.002-32.003-83.889-32.003-115.892 0s-32.003 83.889 0 115.892 83.89 32.003 115.892 0z" fill="#509741"/><path opacity=".1" d="M288.456 422.456c24.612-24.612 24.612-64.516 0-89.128-24.612-24.612-64.516-24.612-89.128 0-24.611 24.612-24.611 64.516 0 89.128 24.612 24.612 64.516 24.612 89.128 0z" fill="#fff"/><path d="M258.098 302.512c-3.023-2.479-13.567 14.226-13.567 14.226s5.043-13.095-.488-13.281c-5.53-.186.874 5.631-6.518 19.04-7.393 13.41-12.823 17.637-8.782 20.215 4.04 2.579 7.478-8.71 16.79-12.45 9.313-3.739 16.362-6.26 16.362-10.014.014-3.754-13.711 1.161-13.711 1.161s14.384-15.23 9.914-18.897z" fill="#60BA8B"/><path d="M182.539 382.297c.63-1.447 1.275-2.923 1.962-4.413v-.014a202.57 202.57 0 013.797-7.779c.831-1.648 1.676-3.31 2.565-4.943.802-1.504 1.604-2.98 2.421-4.441a273.68 273.68 0 012.636-4.585 234.422 234.422 0 013.682-6.046 55.18 55.18 0 011.59-2.421 53.743 53.743 0 012.937-3.969v-.014c2.779-3.481 5.516-6.089 8.209-7.951a22.477 22.477 0 013.195-1.92c7.035-3.553 13.453-2.264 18.467 1.218 9.542 6.676 16.319 21.275-.329 37.894-16.662 16.605-50.473 34.929-55.43 30.86-2.565-2.078-.258-10.745 4.298-21.476z" fill="#FFAD55"/><path opacity=".15" d="M212.324 335.721a22.421 22.421 0 013.195-1.92c3.682 8.496 14.656 14.699 17.249 15.301 1.003.229 1.605 1.218 1.375 2.221a1.842 1.842 0 01-2.22 1.375c-3.439-.802-15.172-7.435-19.599-16.977zm-11.147 11.934a53.72 53.72 0 012.937-3.968c1.576 12.994 18.281 20.988 22.894 22.02.989.215 1.605 1.203 1.404 2.192a1.864 1.864 0 01-2.22 1.404c-4.943-1.089-21.032-8.654-25.015-21.648zm-7.907 13.052c.873-1.547 1.747-3.08 2.636-4.584.63 5.358 4.369 9.541 7.836 10.53.989.286 1.562 1.303 1.275 2.278-.286.974-1.289 1.561-2.277 1.275-3.74-1.06-7.622-4.628-9.47-9.499zm-4.987 9.384c.831-1.648 1.676-3.31 2.565-4.943 1.891 12.751 15.028 17.779 18.381 17.937a1.852 1.852 0 011.762 1.92 1.854 1.854 0 01-1.92 1.776c-3.725-.1-16.576-4.77-20.788-16.69zm-5.744 12.206c.63-1.447 1.275-2.922 1.962-4.412 2.608 6.375 6.949 9.241 11.304 11.318.917.444 1.318 1.562.874 2.464-.444.917-1.562 1.318-2.464.874-4.112-1.977-8.553-4.756-11.676-10.244z" fill="#000"/><path d="M212.754 394.575c-6.548 8.295-6.075 21.619 3.724 26.605 9.8 4.985 18.367 10.358 24.6 17.736 6.232 7.393 24.154 17.995 39.556 1.934 15.401-16.06 15.659-38.668-4.112-47.679-10.272-4.685-20.702 4.986-32.579.544-11.863-4.412-23.854-8.409-31.189.86z" fill="#A86C1C"/><path d="M255.963 426.051c3.452-.373 2.65 6.318 5.329 6.432 2.679.115 6.347.072 5.101 3.51-1.247 3.439-7.794 8.496-13.425 2.006-5.616-6.49-4.14-11.175 2.995-11.948zm-29.141-29.055c-1.518 1.82-6.705 3.481-3.409 5.817 3.295 2.335 10.157.301 10.157-4.37.015-4.685-4.283-4.398-6.748-1.447zm43.11 5.545c-2.321 2.837 6.06 12.965 10.687 7.722 4.613-5.229-6.089-13.367-10.687-7.722zm4.756 31.145a1.816 1.816 0 00-.258-2.55 1.817 1.817 0 00-2.55.258c-.63.774-.516 1.92.258 2.55.773.631 1.92.516 2.55-.258z" fill="#685338"/><path d="M312.883 365.177c-2.823 10.688-7.422 14.828-18.453 17.163-2.966.631-6.433 1.132-10.444 1.591 0 0-2.264.315-5.588.243-8.395-.143-23.481-2.607-25.272-18.224-2.507-21.791 22.206-18.682 19.14-35.186 0 0 3.854.788 6.261 5.659l.014-.057c.187-.43 1.748-4.012 5.602-6.977 0 0-.014 2.063 2.063 5.73 0 0 1.877-5.157 4.8-6.518 0 0 .444 9.212 7.994 12.249 7.55 3.052 17.479 10.759 13.883 24.327z" fill="#fff"/><path d="M294.43 382.34c-2.966.63-6.433 1.132-10.444 1.59 0 0-2.264.315-5.588.244 0 0-13.152-7.536-12.206-22.665.931-15.129 11.676-16.576 12.335-25.086l.014-.058c.187-.43 1.748-4.011 5.602-6.977 0 0-.014 2.063 2.063 5.731.717 5.115 7.808 8.983 13.095 22.765 5.286 13.825-4.871 24.456-4.871 24.456z" fill="#EFE6D6"/></g></g></g></svg>