<svg width="100" height="100" fill="none" xmlns="http://www.w3.org/2000/svg"><rect width="100" height="100" rx="10.8" fill="#ECF3E5"/><path d="M67.676 37.598h-1.367v-5.274c0-4.038-3.286-7.324-7.325-7.324H41.016c-4.039 0-7.325 3.286-7.325 7.324v5.274h-1.367c-4.038 0-7.324 3.285-7.324 7.324V56.64c0 4.038 3.286 7.324 7.324 7.324h1.367v6.64A4.4 4.4 0 0038.086 75h23.828a4.4 4.4 0 004.395-4.394v-6.641h1.367c4.038 0 7.324-3.286 7.324-7.324V44.92c0-4.038-3.286-7.323-7.324-7.323zM36.62 32.324a4.4 4.4 0 014.395-4.394h17.968a4.4 4.4 0 014.395 4.394v5.274H36.62v-5.274zm26.76 38.282c0 .807-.657 1.464-1.465 1.464H38.086a1.466 1.466 0 01-1.465-1.464V56.152H63.38v14.454zm8.69-13.966a4.4 4.4 0 01-4.394 4.394h-1.367v-4.883h.879a1.465 1.465 0 100-2.93H32.812a1.465 1.465 0 100 2.93h.88v4.883h-1.368a4.4 4.4 0 01-4.394-4.394V44.92a4.4 4.4 0 014.394-4.394h35.352a4.4 4.4 0 014.394 4.395V56.64z" fill="url(#paint0_linear)"/><path d="M53.906 59.473h-7.812a1.465 1.465 0 100 2.93h7.812a1.465 1.465 0 100-2.93z" fill="url(#paint1_linear)"/><path d="M53.906 65.723h-7.812a1.465 1.465 0 100 2.93h7.812a1.465 1.465 0 100-2.93z" fill="url(#paint2_linear)"/><path d="M37.5 43.848h-4.688a1.465 1.465 0 100 2.93H37.5a1.465 1.465 0 100-2.93z" fill="url(#paint3_linear)"/><defs><linearGradient id="paint0_linear" x1="50" y1="75" x2="50" y2="25" gradientUnits="userSpaceOnUse"><stop stop-color="#47AA44"/><stop offset="1" stop-color="#7DD06C"/></linearGradient><linearGradient id="paint1_linear" x1="50" y1="62.402" x2="50" y2="59.473" gradientUnits="userSpaceOnUse"><stop stop-color="#47AA44"/><stop offset="1" stop-color="#7DD06C"/></linearGradient><linearGradient id="paint2_linear" x1="50" y1="68.652" x2="50" y2="65.723" gradientUnits="userSpaceOnUse"><stop stop-color="#47AA44"/><stop offset="1" stop-color="#7DD06C"/></linearGradient><linearGradient id="paint3_linear" x1="35.156" y1="46.777" x2="35.156" y2="43.848" gradientUnits="userSpaceOnUse"><stop stop-color="#47AA44"/><stop offset="1" stop-color="#7DD06C"/></linearGradient></defs></svg>