<svg width="200" height="200" fill="none" xmlns="http://www.w3.org/2000/svg"><g clip-path="url(#clip0_1853_10679)" fill="#509741"><path d="M15.805 122.398a3.894 3.894 0 002.762 1.145c1 0 1.999-.382 2.762-1.145l59.124-59.123 35.794 35.796a3.911 3.911 0 005.526 0l20.761-20.763a3.906 3.906 0 00-5.524-5.524l-18.001 18-35.794-35.796a3.911 3.911 0 00-2.762-1.144c-1.036 0-2.03.412-2.763 1.144l-59.123 59.125-9.137-9.137 71.023-71.022 35.796 35.795a3.906 3.906 0 005.524 0l47.173-47.175a3.905 3.905 0 000-5.524l-1.438-1.44 23.06-6.178-6.178 23.06-.783-.781a3.906 3.906 0 00-5.524 0l-18.975 18.976a3.906 3.906 0 105.525 5.525l16.214-16.214 2.803 2.803a3.907 3.907 0 006.535-1.75l9.682-36.133a3.907 3.907 0 00-4.784-4.785L158.95 9.815a3.907 3.907 0 00-1.751 6.535l3.462 3.462-41.65 41.65-35.796-35.795a3.906 3.906 0 00-5.523 0L1.144 102.214a3.906 3.906 0 000 5.525l14.661 14.659z"/><path d="M196.093 192.187h-3.906V74.089a3.906 3.906 0 00-3.906-3.906h-21.875a3.905 3.905 0 00-3.906 3.906v118.098h-8.985v-71.484a3.906 3.906 0 00-3.906-3.906h-21.875a3.907 3.907 0 00-3.906 3.906v71.484h-8.984v-50.781a3.907 3.907 0 00-3.907-3.906H89.062a3.907 3.907 0 00-3.906 3.906v50.781h-8.984v-71.484a3.907 3.907 0 00-3.906-3.906H50.39a3.907 3.907 0 00-3.906 3.906v71.484H37.5V156.38a3.908 3.908 0 00-3.906-3.907H11.719a3.908 3.908 0 00-3.907 3.907v35.807H3.906a3.907 3.907 0 000 7.813h192.187a3.907 3.907 0 100-7.813zm-180.468 0v-31.901h14.062v31.901H15.625zm38.672 0v-67.578h14.062v67.578H54.297zm38.672 0v-46.875h14.062v46.875H92.969zm38.671 0v-67.578h14.063v67.578H131.64zm38.672 0V77.995h14.063v114.192h-14.063zM148.058 61.734a3.938 3.938 0 00-1.144 2.762 3.93 3.93 0 001.144 2.762 3.917 3.917 0 002.762 1.144 3.921 3.921 0 002.762-1.144 3.92 3.92 0 001.145-2.762 3.93 3.93 0 00-1.145-2.762 3.94 3.94 0 00-2.762-1.144 3.937 3.937 0 00-2.762 1.144z"/></g><defs><clipPath id="clip0_1853_10679"><path fill="#fff" d="M0 0h200v200H0z"/></clipPath></defs></svg>