<svg width="150" height="150" fill="none" xmlns="http://www.w3.org/2000/svg"><circle cx="75" cy="75" r="75" fill="#EBFFE7"/><path d="M72.703 122.297a1.349 1.349 0 01-1.337-1.152l-2.107-14.107a1.352 1.352 0 012.675-.399l1.708 11.456 15.703-15.703 2.277-18.09a1.351 1.351 0 012.68.337l-2.337 18.55a1.351 1.351 0 01-.385.787l-17.925 17.925a1.347 1.347 0 01-.952.396z" fill="#509741"/><path d="M70.596 108.191a1.357 1.357 0 01-.956-.396L42.208 80.362a1.352 1.352 0 010-1.91l35.472-35.48a51.795 51.795 0 0136.865-15.27h6.4a1.35 1.35 0 011.351 1.351v6.4a51.79 51.79 0 01-15.27 36.865L71.55 107.794a1.357 1.357 0 01-.955.396zM45.07 79.407l25.525 25.52 34.52-34.522a49.1 49.1 0 0014.478-34.951v-5.049h-5.048a49.112 49.112 0 00-34.952 14.479L45.071 79.407z" fill="#509741"/><path d="M43.164 80.755c-.068 0-.135-.005-.202-.014l-14.107-2.105a1.352 1.352 0 01-.756-2.297l17.927-17.922c.212-.212.489-.347.786-.385l18.55-2.337a1.351 1.351 0 11.338 2.68l-18.092 2.28-15.702 15.703 11.455 1.708a1.351 1.351 0 01-.197 2.688v.001zM61.4 110.996c-.358 0-.702-.143-.955-.396L39.4 89.555a1.35 1.35 0 01.27-2.12l7.561-4.443a1.352 1.352 0 011.37 2.331l-6.054 3.557 18.573 18.574 3.557-6.054a1.352 1.352 0 012.331 1.37l-4.44 7.56a1.353 1.353 0 01-1.168.666zm26.308-35.564a12.716 12.716 0 118.996-3.72 12.683 12.683 0 01-8.996 3.72zm0-22.73a10.015 10.015 0 10.014 20.03 10.015 10.015 0 00-.014-20.03zm31.131-1.412h-.023c-.171 0-17.243-.51-20.412-19.803a1.352 1.352 0 112.668-.438c2.796 17.027 17.182 17.527 17.793 17.539a1.353 1.353 0 01.934 2.316c-.256.25-.601.39-.96.387z" fill="#509741"/><path d="M87.114 68a4.102 4.102 0 002.91-1.203c1.44-1.44 2.808-7.307 2.959-7.97a.675.675 0 00-1.084-.675 9.523 9.523 0 01-3 1.5c-.484.142-1.13.26-1.754.374-1.508.274-2.456.467-2.94.95A4.116 4.116 0 0087.116 68zm4.151-7.857c-.607 2.275-1.497 5.001-2.196 5.7a2.767 2.767 0 11-3.913-3.913 8.494 8.494 0 012.226-.577c.659-.12 1.34-.244 1.89-.405a10.924 10.924 0 001.993-.805z" fill="#509741"/><path d="M82.28 68a.68.68 0 00.161-.02c3.264-.802 6.612-4.708 6.751-4.873a.675.675 0 10-1.03-.874c-.032.037-3.207 3.739-6.044 4.436a.675.675 0 00.16 1.33h.002zm-37.894 51.543a1.347 1.347 0 01-1.248-.834 1.352 1.352 0 01.293-1.473l9.19-9.189a1.352 1.352 0 011.91 1.911l-9.19 9.189a1.349 1.349 0 01-.955.396zm-12.578-12.578a1.347 1.347 0 01-1.248-.834 1.352 1.352 0 01.293-1.473l9.189-9.19a1.351 1.351 0 011.91 1.912l-9.188 9.189a1.353 1.353 0 01-.956.396zm2.306 10.062a1.347 1.347 0 01-1.249-.834 1.352 1.352 0 01.293-1.473l9.19-9.189a1.355 1.355 0 012.248.964c.011.344-.108.679-.335.937l-9.19 9.19a1.348 1.348 0 01-.957.405z" fill="#509741"/></svg>