<svg width="318" height="298" fill="none" xmlns="http://www.w3.org/2000/svg"><g clip-path="url(#clip0_1857_12957)"><path d="M295.135 258.159l-3.632-2.98c-.221-5.732-.449-11.762.503-17.416.951-5.653 3.169-11.251 7.218-15.309 1.69-1.698 3.798-3.153 6.18-3.428 2.39-.275 5.048.928 5.874 3.185.857 2.358-.441 4.922-1.817 7.021-2.948 4.474-6.463 8.555-9.349 13.068-2.885 4.513-4.914 10.497-4.977 15.859z" fill="#509741"/><path d="M295.134 258.938l3.633 2.98c2.689-5.669 6.393-10.922 11.503-14.562 1.754-1.243 3.625-2.351 5.095-3.924 1.471-1.572 2.493-3.742 2.068-5.85-.55-2.704-3.412-4.489-6.172-4.505-2.76-.016-5.339 1.384-7.477 3.129-6.55 5.363-10.301 14.436-8.65 22.732z" fill="#509741"/><path opacity=".3" d="M295.134 258.938l3.633 2.98c2.689-5.669 6.393-10.922 11.503-14.562 1.754-1.243 3.625-2.351 5.095-3.924 1.471-1.572 2.493-3.742 2.068-5.85-.55-2.704-3.412-4.489-6.172-4.505-2.76-.016-5.339 1.384-7.477 3.129-6.55 5.363-10.301 14.436-8.65 22.732z" fill="#1B1B1B"/><path d="M293.084 256.791a.316.316 0 01-.314-.322c.149-8.492 2.052-24.186 13.162-33.834a.31.31 0 01.44.032c.11.133.102.33-.031.44-4.687 4.073-12.604 13.823-12.942 33.37a.315.315 0 01-.315.314zm3.814 3.908h-.032a.318.318 0 01-.283-.346c.747-7.635 4.073-18.155 15.734-24.894a.315.315 0 01.432.118c.087.15.04.346-.118.433-11.424 6.605-14.687 16.921-15.419 24.406a.32.32 0 01-.314.283z" fill="#fff"/><path d="M10.345 119.963c-1.424-1.361-3.051-2.847-3.153-4.82-.087-1.754 1.195-3.397 2.83-4.034 1.636-.637 3.523-.369 5.103.385 1.58.763 2.902 1.974 4.089 3.271 6.935 7.572 9.907 18.588 7.713 28.621-.141.66-.37 1.4-.967 1.714-.951.503-2.036-.385-2.689-1.242a19.66 19.66 0 01-3.16-6.259c-.567-1.903-.315-4.01-1.03-5.811-1.746-4.395-5.348-8.586-8.736-11.825z" fill="#509741"/><path d="M25.144 142.529a.377.377 0 01-.377-.377c.015-10.953-5.323-21.961-13.933-28.723a.378.378 0 01-.063-.535.384.384 0 01.534-.063c8.791 6.904 14.24 18.14 14.224 29.321a.384.384 0 01-.385.377z" fill="#fff"/><path d="M20.48 157.626c-2.397.77-5.4.267-6.793-1.833-1.627-2.468-.613-6.274-2.799-8.271-1.226-1.117-3.02-1.227-4.639-1.565-1.62-.338-3.42-1.234-3.664-2.87-.322-2.17 2.351-3.971 1.974-6.141-.37-2.13-3.318-2.799-4.183-4.78-.794-1.809.605-3.995 2.46-4.663 1.856-.676 3.924-.212 5.772.472 1.848.684 3.648 1.596 5.606 1.84 2.037.251 4.388-.15 5.89 1.25 1.997 1.871.857 5.441 2.405 7.698 1.038 1.509 2.988 2.036 4.482 3.098 1.864 1.328 3.012 3.609 2.965 5.897-.048 2.484-1.36 4.285-3.232 5.716-1.997 1.525-3.782 3.357-6.243 4.152z" fill="#509741"/><path opacity=".2" d="M20.48 157.626c-2.397.77-5.4.267-6.793-1.833-1.627-2.468-.613-6.274-2.799-8.271-1.226-1.117-3.02-1.227-4.639-1.565-1.62-.338-3.42-1.234-3.664-2.87-.322-2.17 2.351-3.971 1.974-6.141-.37-2.13-3.318-2.799-4.183-4.78-.794-1.809.605-3.995 2.46-4.663 1.856-.676 3.924-.212 5.772.472 1.848.684 3.648 1.596 5.606 1.84 2.037.251 4.388-.15 5.89 1.25 1.997 1.871.857 5.441 2.405 7.698 1.038 1.509 2.988 2.036 4.482 3.098 1.864 1.328 3.012 3.609 2.965 5.897-.048 2.484-1.36 4.285-3.232 5.716-1.997 1.525-3.782 3.357-6.243 4.152z" fill="#1B1B1B"/><path d="M19.394 140.634a.124.124 0 00-.032-.039 30.776 30.776 0 00-1.124-1.526c-3.499-4.371-8.397-7.619-13.776-9.16a.376.376 0 00-.471.26.382.382 0 00.26.471 26.79 26.79 0 0113.39 8.909c.11.134.204.275.306.417-4.293-1.581-8.673-.684-11.008 1.203a.376.376 0 00-.055.534.386.386 0 00.299.142.338.338 0 00.236-.087c2.312-1.863 7.084-2.697 11.417-.597 2.689 3.947 4.308 8.633 4.591 13.406a.379.379 0 00.378.354h.023a.373.373 0 00.354-.401c-.283-4.954-1.981-9.805-4.788-13.886z" fill="#fff"/><path d="M66.857 104.772l-49.654 28.856-.062 24.249 49.976 28.849 49.645-28.849.071-24.249-49.976-28.856z" fill="#509741"/><path opacity=".2" d="M116.833 133.628l-49.976-28.856-49.654 28.856 49.976 28.857 49.654-28.857z" fill="#fff"/><path opacity=".3" d="M67.18 162.485l-.063 24.241 49.646-28.849.071-24.249-49.654 28.857z" fill="#1B1B1B"/><path d="M126.181 108.043l-49.653 28.856-.063 55.228 49.976 28.857 49.653-28.857.063-55.228-49.976-28.856z" fill="#509741"/><path opacity=".2" d="M176.157 136.899l-49.976-28.856-49.654 28.856 49.976 28.857 49.654-28.857z" fill="#fff"/><path opacity=".3" d="M126.504 165.756l-.063 55.228 49.654-28.857.063-55.228-49.654 28.857z" fill="#1B1B1B"/><path d="M186.939 111.557l-49.653 28.849-.063 86.64 49.976 28.857 49.645-28.857.071-86.64-49.976-28.849z" fill="#509741"/><path opacity=".2" d="M236.915 140.406l-49.976-28.849-49.654 28.849 49.976 28.856 49.654-28.856z" fill="#fff"/><path opacity=".3" d="M187.262 169.262l-.063 86.641 49.646-28.857.071-86.64-49.654 28.856z" fill="#1B1B1B"/><path d="M186.97 111.329l-49.653 28.849-.063 86.75 49.976 28.849 49.653-28.849.063-86.75-49.976-28.849z" fill="#509741"/><path opacity=".2" d="M236.946 140.178l-49.976-28.849-49.654 28.849 49.976 28.856 49.654-28.856z" fill="#fff"/><path opacity=".3" d="M187.293 169.034l-.063 86.743 49.654-28.849.063-86.75-49.654 28.856z" fill="#1B1B1B"/><path d="M249.099 102.853l-49.645 28.857-.071 131.246 49.976 28.848 49.653-28.848.063-131.246-49.976-28.857z" fill="#509741"/><path opacity=".2" d="M299.075 131.71l-49.976-28.857-49.646 28.857 49.976 28.856 49.646-28.856z" fill="#fff"/><path opacity=".3" d="M249.43 160.566l-.071 131.238 49.654-28.848.063-131.246-49.646 28.856z" fill="#1B1B1B"/><path d="M158.323 137.45l-3.404-2.296-25.869 52.507 3.405 2.296 15.191-8.767c-.661 24.682-7.509 37.058-14.153 44.166-.354.094-.708.18-1.062.267l-.621.142c-.409.094-.826.18-1.242.267l-.558.118c-.315.063-.63.118-.944.173-.236.039-.464.086-.7.126-.33.055-.668.102-1.006.157-.22.031-.441.071-.669.102-.369.055-.747.094-1.124.142-.197.023-.393.055-.59.07-.519.063-1.045.11-1.572.158-.055.007-.11.015-.165.015a70.638 70.638 0 01-3.979.244l-.684.024c-.543.015-1.093.023-1.635.031h-.677c-.904 0-1.816-.016-2.728-.039a9.3 9.3 0 00-.472-.016 92.665 92.665 0 01-2.555-.134 62.761 62.761 0 01-.433-.023 104.63 104.63 0 01-2.626-.228 16.319 16.319 0 00-.621-.063c-.771-.087-1.541-.173-2.32-.275-.157-.024-.306-.04-.463-.063a99.117 99.117 0 01-2.572-.385c-.212-.032-.416-.071-.629-.111-.699-.118-1.407-.243-2.115-.377a108.001 108.001 0 01-3.208-.66 6.666 6.666 0 00-.385-.087 74.155 74.155 0 01-2.217-.527c-.26-.063-.511-.126-.77-.196a89.212 89.212 0 01-1.967-.519c-.204-.055-.408-.11-.605-.165-.841-.236-1.69-.48-2.54-.732-.196-.055-.393-.118-.59-.18-.652-.197-1.305-.409-1.965-.622-.267-.086-.543-.173-.818-.267a89.767 89.767 0 01-1.91-.653c-.22-.078-.449-.149-.669-.235-.841-.299-1.682-.606-2.524-.92-.15-.055-.306-.118-.456-.173-.7-.268-1.4-.535-2.1-.818-.274-.11-.55-.22-.817-.33-.605-.244-1.203-.496-1.808-.747-.268-.11-.527-.22-.794-.331-.779-.33-1.55-.668-2.328-1.014a2.849 2.849 0 01-.228-.102 122.95 122.95 0 01-2.547-1.172c-.252-.118-.504-.236-.755-.361a98.595 98.595 0 01-1.856-.897c-.283-.141-.566-.275-.841-.416a119.93 119.93 0 01-1.958-.991c-.22-.11-.433-.22-.653-.33-.857-.449-1.714-.897-2.57-1.361-.465-.251-.929-.511-1.4-.762-.244-.134-.48-.268-.724-.401a207.56 207.56 0 01-2.083-1.18c-.024-.015-.048-.023-.063-.039l-21.316 12.384-.008 3.452c24.146 13.885 47.79 20.498 68.383 19.138 9.804-.645 18.17-3.043 24.98-7.132-.165.102-.331.205-.504.307l21.309-12.384a40.219 40.219 0 005.378-3.735c.228-.189.456-.377.692-.582.07-.055.133-.118.204-.173l.543-.472.188-.165c.236-.212.472-.432.716-.652.039-.04.078-.079.126-.118.204-.189.401-.386.605-.582a5.58 5.58 0 01.22-.212c.197-.197.401-.394.598-.606a2.55 2.55 0 00.141-.149c.244-.252.488-.511.732-.779.063-.063.118-.133.18-.196.189-.213.378-.425.567-.645.07-.079.141-.165.212-.252.228-.267.464-.542.692-.825.016-.016.031-.039.047-.055.244-.299.487-.606.723-.92.071-.087.134-.181.205-.267.188-.244.369-.496.558-.755l.197-.268c.235-.338.479-.684.715-1.038.032-.047.071-.102.102-.157.15-.228.299-.448.449-.684.047-.071.086-.149.133-.22.118-.181.228-.37.338-.558.142-.228.275-.456.417-.692.11-.197.228-.393.338-.59.134-.236.267-.48.401-.723.11-.205.22-.417.33-.629.134-.252.26-.504.393-.763.111-.22.221-.432.323-.66.055-.118.118-.228.173-.354.102-.213.196-.425.299-.637l.141-.299c.205-.456.409-.928.613-1.407.048-.11.087-.221.134-.331.165-.393.323-.794.48-1.203.055-.133.102-.267.157-.401.031-.086.071-.181.102-.267l.165-.48c.158-.424.307-.857.456-1.305.087-.251.173-.511.252-.77.142-.441.283-.881.417-1.337.047-.165.102-.315.149-.48.032-.118.063-.243.102-.361.103-.37.205-.74.307-1.117.087-.314.173-.629.252-.959.102-.385.196-.786.291-1.18.055-.235.117-.464.173-.699.023-.103.039-.205.062-.307.079-.338.15-.684.221-1.038l.235-1.148c.071-.354.134-.723.205-1.085.047-.275.102-.535.149-.81.024-.134.04-.275.063-.409l.165-1.014c.071-.44.134-.873.197-1.321.047-.354.102-.708.149-1.069.032-.244.071-.488.102-.732l.071-.652c.04-.346.079-.7.118-1.062.055-.479.102-.975.15-1.47.031-.362.07-.723.102-1.085l.047-.503c.031-.354.055-.724.079-1.085.023-.346.055-.692.078-1.046.04-.59.071-1.195.102-1.801l.048-.935c0-.063.007-.126.007-.189.032-.802.063-1.628.079-2.453 0-.063.008-.126.008-.189.024-.904.031-1.832.039-2.768v-.275l12.384-7.147-26.089-22.503z" fill="#2E3437"/><path d="M158.323 137.45l-25.868 52.507-3.405-2.296 25.869-52.507 3.404 2.296zm-30.452 98.112c.456-.299.912-.606 1.36-.92.181-.126.354-.252.535-.378.589-.432 1.171-.88 1.737-1.344l.692-.574c.071-.055.134-.118.205-.173.149-.126.299-.26.448-.393.031-.024.063-.056.094-.079l.189-.165c.236-.213.472-.433.716-.653.039-.039.086-.078.125-.118a3.78 3.78 0 00.181-.173c.142-.133.275-.267.417-.401.071-.071.141-.141.22-.212l.142-.142c.149-.149.298-.298.448-.456.047-.047.094-.102.149-.149.165-.173.33-.346.488-.519.078-.086.157-.165.236-.252.062-.062.117-.133.18-.196.189-.212.378-.425.567-.645.07-.079.141-.165.212-.252.071-.086.149-.172.22-.267.157-.189.314-.369.472-.566.015-.016.031-.039.047-.055.063-.079.126-.165.189-.244.18-.22.353-.448.534-.676.071-.086.134-.181.205-.267.141-.189.275-.378.416-.566l.142-.189c.063-.087.126-.181.197-.267.133-.189.267-.394.401-.582.102-.15.204-.299.314-.448.032-.048.071-.103.102-.158.087-.133.173-.275.268-.409.102-.165.212-.322.314-.487.118-.181.228-.37.346-.558.142-.228.275-.456.417-.692.11-.197.228-.393.338-.598l.259-.472c.048-.086.095-.165.142-.251.11-.205.22-.417.33-.629.087-.157.165-.323.252-.488.047-.094.094-.181.141-.275.11-.22.22-.44.323-.66.015-.04.039-.079.055-.11.141-.291.275-.582.416-.873.048-.102.095-.197.142-.299.134-.291.259-.598.385-.896.071-.173.15-.339.22-.511.048-.111.087-.221.134-.331.165-.393.322-.794.48-1.203.055-.133.102-.267.157-.409.063-.157.118-.322.181-.487l.094-.26c.157-.424.307-.857.456-1.297.063-.197.126-.393.197-.59.023-.063.039-.125.063-.188.141-.433.275-.881.416-1.329.008-.024.016-.039.016-.063.079-.26.157-.519.228-.778.102-.37.205-.74.307-1.117.008-.031.016-.071.031-.102.079-.283.15-.566.228-.849.102-.386.197-.787.291-1.18.079-.33.157-.668.236-1.006.079-.338.149-.684.22-1.03.047-.213.087-.425.134-.645.031-.173.071-.338.102-.511.071-.354.134-.723.205-1.085.062-.338.125-.676.18-1.014.008-.063.024-.134.032-.197l.165-1.022c.071-.433.134-.873.197-1.313.047-.354.102-.716.149-1.077.063-.457.118-.913.173-1.384.039-.346.079-.7.118-1.062.055-.479.102-.975.149-1.47.032-.362.071-.724.102-1.085a84.15 84.15 0 00.126-1.596c.024-.346.055-.692.071-1.046.039-.59.071-1.195.102-1.801l.047-.928c.04-.872.071-1.753.087-2.657 0-.063.008-.118.008-.181.023-1.014.039-2.044.039-3.098l-.023-.016-3.043 1.754c-.661 24.681-7.509 37.057-14.153 44.165a46.185 46.185 0 01-4.309 4.034 38.925 38.925 0 01-5.52 3.782 47.524 47.524 0 01-1.738.935c-.377.197-.762.378-1.155.559-.213.102-.425.204-.645.306-.488.22-.975.425-1.471.629-.062.024-.125.055-.188.079-.692.283-1.4.55-2.115.802-.378.134-.755.252-1.14.377-.228.071-.441.15-.669.22-.479.15-.975.291-1.47.425-.244.071-.488.134-.739.197a59.257 59.257 0 01-2.123.511c-.472.102-.936.204-1.415.299l-.37.07a46.62 46.62 0 01-1.525.268c-.221.031-.441.07-.661.102l-1.305.189-.723.094c-.449.055-.897.102-1.345.149l-.668.071c-.661.063-1.329.118-2.005.165-.763.047-1.526.087-2.296.118-.205.008-.417.016-.622.016-.542.016-1.085.023-1.635.031h-.676c-.904 0-1.816-.015-2.728-.039-.048 0-.095-.008-.142-.008a72.597 72.597 0 01-2.878-.149h-.016l-.432-.024h-.024a78.76 78.76 0 01-2.704-.236c-.048-.008-.095-.008-.142-.015-.896-.095-1.8-.197-2.713-.323-.157-.023-.306-.039-.463-.063a106.437 106.437 0 01-3.083-.472l-.126-.023c-.7-.118-1.407-.244-2.115-.378-.22-.039-.44-.078-.66-.125-.85-.165-1.69-.346-2.548-.535a6.652 6.652 0 00-.385-.086 80.895 80.895 0 01-2.217-.527c-.26-.063-.511-.126-.77-.197a89.065 89.065 0 01-1.966-.519c-.016-.008-.04-.008-.056-.016a193.094 193.094 0 01-3.09-.88 13.004 13.004 0 00-.597-.181c-.77-.236-1.541-.48-2.32-.739-.008 0-.023-.008-.031-.008-.779-.252-1.55-.519-2.328-.786-.22-.079-.448-.158-.668-.236a113.58 113.58 0 01-2.602-.952c-.126-.047-.252-.102-.386-.149-.692-.267-1.392-.535-2.091-.81-.276-.11-.543-.22-.818-.33-.802-.322-1.604-.653-2.406-.999-.031-.015-.055-.023-.087-.039-.81-.346-1.62-.692-2.43-1.054-.007 0-.015-.007-.023-.007l-.212-.095c-.85-.377-1.698-.77-2.547-1.171-.252-.118-.512-.244-.763-.362-.614-.291-1.227-.59-1.84-.888l-.85-.425c-.715-.354-1.43-.723-2.154-1.093-.15-.079-.298-.149-.448-.228-.857-.448-1.714-.896-2.571-1.36-.472-.252-.944-.519-1.415-.779-.236-.133-.472-.259-.708-.385a145.99 145.99 0 01-2.147-1.219l-.007 3.452c24.146 13.886 47.79 20.498 68.382 19.138 9.805-.645 18.171-3.043 24.98-7.131.205-.126.417-.252.622-.378.204-.149.416-.291.621-.424z" fill="#1F2325"/><path opacity=".2" d="M36.12 222.486l1.415.778c.857.464 1.714.92 2.571 1.36.15.079.299.15.448.228.716.37 1.44.732 2.155 1.093l.849.425c.613.299 1.227.597 1.84.888.252.118.511.244.763.362.849.401 1.698.794 2.547 1.172l.212.094c.008 0 .016.008.024.008.81.362 1.62.715 2.43 1.054.031.015.055.023.086.039a153.03 153.03 0 003.224 1.329c.7.275 1.392.55 2.091.809.126.048.252.103.386.15.872.33 1.737.645 2.602.951.228.079.448.158.669.236.778.268 1.556.535 2.327.786.008 0 .024.008.031.008.779.252 1.55.496 2.32.739.197.063.393.126.597.181 1.03.315 2.06.606 3.09.881.016.008.04.008.056.016.66.18 1.313.353 1.965.519.26.062.511.125.77.196a114.7 114.7 0 002.604.613c.849.189 1.698.362 2.547.535.22.047.44.087.66.126a97.68 97.68 0 002.116.377c.039.008.078.016.125.024 1.03.173 2.06.33 3.083.472.157.023.306.039.463.063.905.118 1.809.228 2.713.322.047.008.094.008.142.016a81.38 81.38 0 002.705.236h.023l.433.023h.015c.967.063 1.927.118 2.878.15.047 0 .094.007.142.007.912.032 1.824.04 2.728.04h.676c.55-.008 1.093-.016 1.636-.032.204-.008.416-.008.62-.015.771-.032 1.534-.063 2.297-.118a83.354 83.354 0 002.005-.166l.668-.07a69.96 69.96 0 001.345-.15l.723-.094c.44-.055.873-.118 1.305-.189.22-.031.441-.063.661-.102a86.285 86.285 0 001.525-.267c.126-.024.252-.047.37-.071.479-.094.943-.197 1.415-.299.291-.063.582-.126.865-.196.424-.103.841-.205 1.258-.315.252-.063.495-.134.739-.196.495-.134.983-.276 1.47-.425.228-.071.449-.149.669-.22.385-.126.762-.244 1.14-.378a44.798 44.798 0 002.115-.802c.063-.023.126-.055.189-.078.495-.205.99-.409 1.47-.629.22-.095.432-.205.645-.307.385-.181.778-.37 1.156-.558.235-.118.463-.244.691-.362.354-.189.7-.377 1.046-.574a38.968 38.968 0 005.52-3.782 44.2 44.2 0 004.309-4.034c-.354.095-.708.181-1.062.268-.204.047-.409.094-.621.141-.409.095-.826.181-1.242.268l-.559.118c-.314.063-.629.118-.943.173-.236.039-.464.086-.7.125-.33.055-.668.103-1.006.158-.22.031-.441.07-.669.102-.369.055-.747.094-1.124.141-.197.024-.393.055-.59.071-.519.063-1.045.11-1.572.157-.055.008-.11.016-.165.016a70.638 70.638 0 01-3.979.244l-.684.024c-.543.015-1.093.023-1.636.031h-.676c-.904 0-1.816-.016-2.728-.039a9.3 9.3 0 00-.472-.016 96.768 96.768 0 01-2.555-.134l-.433-.023a104.63 104.63 0 01-2.626-.228 14.506 14.506 0 00-.621-.063c-.771-.087-1.541-.173-2.32-.275-.157-.024-.306-.04-.463-.063a94.413 94.413 0 01-2.572-.386c-.212-.031-.416-.07-.629-.11-.699-.118-1.407-.243-2.115-.377a103.21 103.21 0 01-3.208-.661 74.155 74.155 0 01-2.603-.613c-.259-.063-.51-.126-.77-.196-.653-.166-1.313-.339-1.966-.519-.204-.055-.409-.11-.605-.166-.841-.235-1.69-.479-2.54-.731a16.522 16.522 0 01-.59-.181c-.652-.196-1.305-.408-1.965-.621-.267-.086-.543-.173-.818-.267a89.767 89.767 0 01-1.91-.653c-.22-.078-.449-.149-.669-.236a150.62 150.62 0 01-2.524-.92c-.15-.055-.306-.118-.456-.173a113.455 113.455 0 01-2.917-1.148c-.605-.243-1.203-.495-1.808-.746-.268-.111-.527-.221-.794-.331-.779-.33-1.55-.668-2.328-1.014a2.849 2.849 0 01-.228-.102 125.454 125.454 0 01-3.302-1.533 98 98 0 01-1.856-.897c-.283-.141-.566-.275-.841-.417a112.02 112.02 0 01-1.958-.99c-.22-.11-.433-.22-.653-.331a192.9 192.9 0 01-2.57-1.36c-.465-.251-.929-.511-1.4-.762-.244-.134-.48-.268-.724-.401a198.98 198.98 0 01-2.083-1.18c-.024-.016-.048-.023-.063-.039l-21.316 12.384c.715.409 1.43.817 2.146 1.218.244.134.472.26.708.386z" fill="#fff"/><path opacity=".1" d="M269.073 118.972c11.362 6.558 11.425 17.196.134 23.753-11.291 6.558-29.651 6.558-41.012 0-11.362-6.557-11.425-17.195-.134-23.753 11.283-6.558 29.651-6.558 41.012 0z" fill="#1B1B1B"/><path d="M283.535 44.653l-1.258-.598c2.831 2.068 7.698 13.155 9.522 17.676.047.126.189.18.307.133a.24.24 0 00.133-.306c-.613-1.541-5.197-12.895-8.704-16.905z" fill="#E0E0E0"/><path d="M263.972 122.817l1.125-1.926-1.463-.928v.008c-.409-.252-.983-.236-1.62.133-1.242.716-2.241 2.453-2.241 3.877 0 .731.276 1.234.7 1.462l1.439.912 1.187-2.028c.362-.449.669-.968.873-1.51z" fill="#1F2325"/><path d="M263.475 121.024c1.243-.715 2.249-.141 2.257 1.282.008 1.431-.999 3.161-2.241 3.876-1.242.716-2.249.142-2.257-1.281-.007-1.424.999-3.153 2.241-3.877z" fill="#2E3437"/><path d="M239.433 122.267l-1.124-1.927 1.462-.928v.008c.409-.251.983-.236 1.62.134 1.242.715 2.241 2.453 2.241 3.876 0 .731-.275 1.235-.7 1.463l-1.439.912-1.187-2.029a5.545 5.545 0 01-.873-1.509z" fill="#1F2325"/><path d="M239.936 120.482c-1.242-.716-2.248-.142-2.256 1.281-.008 1.431.998 3.161 2.241 3.877 1.242.715 2.248.141 2.256-1.282 0-1.431-1.006-3.161-2.241-3.876z" fill="#2E3437"/><path d="M247.484 117.494h4.168v7.186c0 .307-.205.622-.614.857-.817.472-2.138.472-2.948 0-.409-.235-.606-.542-.606-.857v-7.186z" fill="#EBEBEB"/><path d="M262.574 119.507v1.706l-10.922 2.76v-3.625l10.922-.841z" fill="#E0E0E0"/><path d="M262.574 119.507l-.763-.26-10.159.535v.566l10.922-.841z" fill="#F5F5F5"/><path d="M263.675 135.028l-1.124-1.927 1.462-.927v.008c.409-.252.983-.236 1.62.133 1.242.716 2.241 2.453 2.241 3.877 0 .731-.275 1.234-.7 1.462l-1.439.912-1.187-2.029a5.37 5.37 0 01-.873-1.509z" fill="#1F2325"/><path d="M264.171 133.235c-1.243-.715-2.249-.141-2.257 1.282-.008 1.431.999 3.161 2.241 3.876 1.242.716 2.249.142 2.257-1.282 0-1.423-.999-3.16-2.241-3.876z" fill="#2E3437"/><path d="M249.128 139.919l1.125-1.927-1.463-.928v.008c-.409-.251-.983-.236-1.619.134-1.243.715-2.241 2.453-2.241 3.876 0 .731.275 1.235.699 1.463l1.439.912 1.188-2.029c.361-.448.66-.967.872-1.509z" fill="#1F2325"/><path d="M248.624 138.134c1.242-.716 2.248-.142 2.256 1.281.008 1.431-.998 3.161-2.241 3.877-1.242.715-2.248.141-2.256-1.282 0-1.423.998-3.161 2.241-3.876z" fill="#2E3437"/><path d="M233.355 132.355l1.124-1.927-1.462-.928v.008c-.409-.251-.983-.236-1.62.134-1.242.715-2.241 2.453-2.241 3.876 0 .731.275 1.235.7 1.463l1.439.912 1.187-2.029c.362-.448.669-.967.873-1.509z" fill="#1F2325"/><path d="M232.858 130.57c1.242-.716 2.249-.142 2.257 1.281.008 1.431-.999 3.161-2.241 3.877-1.242.715-2.249.141-2.257-1.282-.008-1.423.999-3.161 2.241-3.876z" fill="#2E3437"/><path d="M265.199 130.853v2.775l-14.625-7.902v-3.829l14.625 8.956z" fill="#E0E0E0"/><path d="M266.048 130.381l-14.632-8.696-.842.212 14.625 8.956.849-.472z" fill="#F5F5F5"/><path d="M266.048 133.149l-.849.479v-2.775l.849-.472v2.768z" fill="#F0F0F0"/><path d="M249.593 121.897l-1.784 14.137v2.532l1.784-12.683v-3.986z" fill="#E0E0E0"/><path d="M247.807 136.034h-1.03v2.524h1.03v-2.524z" fill="#F0F0F0"/><path d="M246.777 136.034l1.62-14.137h1.195l-1.785 14.137h-1.03z" fill="#F5F5F5"/><path d="M232.277 128.203v2.65l15.207-6.18v-3.248l-15.207 6.778z" fill="#E0E0E0"/><path d="M231.688 130.46l.589.393v-2.65l-.589-.385v2.642z" fill="#F0F0F0"/><path d="M234.086 127.393l-1.809.81-.589-.385 15.796-7.116v.723l-13.398 5.968z" fill="#F5F5F5"/><path d="M239.785 118.06v1.738l4.435 2.374 3.263-1.47v-.716l-7.698-1.926z" fill="#E0E0E0"/><path d="M239.785 118.06l.354-.142 7.344 1.589v.479l-7.698-1.926z" fill="#F5F5F5"/><path d="M246.156 104.685h6.817v11.755c0 .503-.338 1.014-1.006 1.4-1.337.77-3.491.77-4.82 0-.661-.386-.991-.889-.991-1.4v-11.755z" fill="#E0E0E0"/><path d="M219.295 85.791a4.402 4.402 0 001.478 1.392l27.795 14.758a6.487 6.487 0 005.984.055l19.468-9.86a9.878 9.878 0 005.064-6.22l9.396-34.706c.157.048.314.103.471.142.401.11.81.204 1.227.189.016 0 .039-.008.055-.008L279.084 92.71a9.878 9.878 0 01-5.064 6.22l-19.468 9.86a6.49 6.49 0 01-5.984-.055l-27.795-14.759c-2.776-1.565-3.043-5.81-1.478-8.185z" fill="#1F2325"/><path d="M220.594 84.54l20.137-10.33 26.521 13.641c-.865.212-1.738.385-2.61.558-2.281.456-4.608.96-6.589 2.178-1.982 1.219-3.586 3.303-3.594 5.63l.708 5.473-.621.314a6.487 6.487 0 01-5.984-.055l-27.795-14.758a4.402 4.402 0 01-1.478-1.392c.354-.527.786-.967 1.305-1.258z" fill="#2E3437"/><path opacity=".1" d="M220.594 84.54l20.137-10.33 26.521 13.641c-.865.212-1.738.385-2.61.558-2.281.456-4.608.96-6.589 2.178-1.982 1.219-3.586 3.303-3.594 5.63l.708 5.473-.621.314a6.487 6.487 0 01-5.984-.055l-27.795-14.758a4.402 4.402 0 01-1.478-1.392c.354-.527.786-.967 1.305-1.258z" fill="#1B1B1B"/><path d="M223.516 67.266s16.166 4.757 20.443.558c5.315-5.22 3.09-18.383 2.453-23.533-.637-5.15 0-8.712 1.423-10.221 1.423-1.502 3.484-3.727 10.183-.952-6.77 3.483-7.643 20.058-5.504 26.71-5.308 5.465-4.946 13.925-5.048 17.856 0 0-13.807 3.374-21.018 7.336l-2.932-17.754z" fill="#2E3437"/><path opacity=".1" d="M223.516 67.266s16.166 4.757 20.443.558c5.315-5.22 3.09-18.383 2.453-23.533-.637-5.15 0-8.712 1.423-10.221 1.423-1.502 3.484-3.727 10.183-.952-6.77 3.483-7.643 20.058-5.504 26.71-5.308 5.465-4.946 13.925-5.048 17.856 0 0-13.807 3.374-21.018 7.336l-2.932-17.754z" fill="#fff"/><path d="M226.451 85.013l-3.31-1.785c0-9.09-1.345-8.201-3.853-11.763-2.508-3.562 1.337-5.787 4.23-4.199 2.894 1.588 4.065 6.353 2.933 17.747z" fill="#2E3437"/><path opacity=".2" d="M226.451 85.013l-3.31-1.785c0-9.09-1.345-8.201-3.853-11.763-2.508-3.562 1.337-5.787 4.23-4.199 2.894 1.588 4.065 6.353 2.933 17.747z" fill="#fff"/><path d="M258.028 33.118s18.108 7.847 26.923 12.203l-.645 3.216-28.88-13.115c.747-.999 1.612-1.793 2.602-2.304z" fill="#2E3437"/><path opacity=".1" d="M258.028 33.118s18.108 7.847 26.923 12.203l-.645 3.216-28.88-13.115c.747-.999 1.612-1.793 2.602-2.304z" fill="#fff"/><path d="M252.524 59.828c-1.824-5.677-1.454-18.58 2.91-24.406l28.88 13.115-6.597 33.087-10.458 6.235-19.775-10.175c.095-3.931-.267-12.4 5.04-17.856z" fill="#2E3437"/><path d="M270.396 66.456c-.487-.283-.888-.055-.888.504 0 .566.393 1.25.88 1.533.488.283.889.055.889-.511.008-.558-.393-1.243-.881-1.526zm-4.465-2.626c-.487-.283-.888-.055-.888.503 0 .567.393 1.25.881 1.534.487.283.888.055.888-.511 0-.559-.393-1.243-.881-1.526zm-4.476-2.626c-.488-.283-.889-.055-.889.503 0 .566.394 1.25.881 1.533.488.283.889.055.889-.51.007-.559-.394-1.243-.881-1.526zm-4.465-2.626c-.487-.283-.888-.055-.888.503 0 .566.393 1.25.88 1.533.488.283.889.055.889-.51 0-.559-.393-1.243-.881-1.526z" fill="#2E3437"/><path opacity=".2" d="M270.396 66.456c-.487-.283-.888-.055-.888.504 0 .566.393 1.25.88 1.533.488.283.889.055.889-.511.008-.558-.393-1.243-.881-1.526zm-4.465-2.626c-.487-.283-.888-.055-.888.503 0 .567.393 1.25.881 1.534.487.283.888.055.888-.511 0-.559-.393-1.243-.881-1.526zm-4.476-2.626c-.488-.283-.889-.055-.889.503 0 .566.394 1.25.881 1.533.488.283.889.055.889-.51.007-.559-.394-1.243-.881-1.526zm-4.465-2.626c-.487-.283-.888-.055-.888.503 0 .566.393 1.25.88 1.533.488.283.889.055.889-.51 0-.559-.393-1.243-.881-1.526z" fill="#fff"/><path d="M258.05 90.595c1.982-1.219 4.309-1.722 6.589-2.178.865-.173 1.746-.346 2.611-.558 1.399-.338 2.775-.778 4.033-1.47 3.193-1.762 5.339-5.064 6.369-8.563 1.03-3.499 1.054-7.218.834-10.859-.22-3.64-.669-7.28-.559-10.929.063-2.123.386-4.395 1.825-5.96 1.478-1.612 3.868-2.115 6.038-1.816.716.094 1.408.275 2.1.495l.959 1.125-.37 1.36-9.396 34.706a9.817 9.817 0 01-4.316 5.787c-.244.15-.488.299-.747.425l-18.848 9.545-.707-5.472c.008-2.336 1.604-4.42 3.585-5.638z" fill="#1F2325"/><path d="M258.027 86.86c6.896-1.965 13.666-2.225 16.166-7.17 2.493-4.954 2.674-11.787 1.423-23.675-.165-1.77-.11-3.287.111-4.6.731-4.45 3.412-6.345 6.486-6.393 3.028-.047 6.015 1.054 8.248 3.098.417.386.818.81 1.023 1.345.204.527.173 1.18-.205 1.604-.259.299-.66.448-1.061.48-.016 0-.04.007-.055.007-.417.024-.826-.07-1.227-.188l-.472-.142c-.841-.267-1.675-.582-2.532-.794-1.022-.252-2.115-.338-3.105 0-.991.338-1.683 1.219-1.99 2.225-2.909 9.498.779 19.697-2.492 27.544-2.674 7.131-11.92 10.088-18.438 12.203.629-.3 1.226-.63 1.627-1.188.7-.967.535-2.406-.251-3.302-.787-.889-2.076-1.25-3.256-1.054z" fill="#2E3437"/><path opacity=".1" d="M258.027 86.86c6.896-1.965 13.666-2.225 16.166-7.17 2.493-4.954 2.674-11.787 1.423-23.675-.165-1.77-.11-3.287.111-4.6.731-4.45 3.412-6.345 6.486-6.393 3.028-.047 6.015 1.054 8.248 3.098.417.386.818.81 1.023 1.345.204.527.173 1.18-.205 1.604-.259.299-.66.448-1.061.48-.016 0-.04.007-.055.007-.417.024-.826-.07-1.227-.188l-.472-.142c-.841-.267-1.675-.582-2.532-.794-1.022-.252-2.115-.338-3.105 0-.991.338-1.683 1.219-1.99 2.225-2.909 9.498.779 19.697-2.492 27.544-2.674 7.131-11.92 10.088-18.438 12.203.629-.3 1.226-.63 1.627-1.188.7-.967.535-2.406-.251-3.302-.787-.889-2.076-1.25-3.256-1.054z" fill="#fff"/><path d="M253.247 91.743c.432-1.108.975-2.194 1.761-3.09.786-.896 1.84-1.588 3.019-1.785 1.18-.196 2.469.165 3.263 1.062.787.896.952 2.335.252 3.302-.401.558-.999.889-1.628 1.187-.511.236-1.045.456-1.517.747-1.313.802-2.162 2.21-2.603 3.68-.44 1.47-.527 3.027-.605 4.561l-.024.298-3.231-1.792a19.797 19.797 0 011.313-8.17z" fill="#2E3437"/><path opacity=".2" d="M253.247 91.743c.432-1.108.975-2.194 1.761-3.09.786-.896 1.84-1.588 3.019-1.785 1.18-.196 2.469.165 3.263 1.062.787.896.952 2.335.252 3.302-.401.558-.999.889-1.628 1.187-.511.236-1.045.456-1.517.747-1.313.802-2.162 2.21-2.603 3.68-.44 1.47-.527 3.027-.605 4.561l-.024.298-3.231-1.792a19.797 19.797 0 011.313-8.17z" fill="#fff"/><path d="M296.939 60.103l-.519-.566-30.908 12.486 2.878 10.418.518.567 30.901-12.494-2.87-10.41z" fill="#509741"/><path opacity=".2" d="M265.512 72.023l2.878 10.419.518.566-2.877-10.419-.519-.566z" fill="#1B1B1B"/><path opacity=".2" d="M296.939 60.103l-.519-.566-30.908 12.486.519.566 30.908-12.486z" fill="#fff"/><path d="M282.141 74.327l-1.219-4.427a.436.436 0 00-.236-.275h-.023c-.024-.008-.056-.008-.079-.016-.032-.008-.055-.015-.087-.015h-.007c-.008 0-.016 0-.024.007a.538.538 0 00-.181.04.595.595 0 00-.307.267v.008c-.023.04-.031.086-.047.126l-.023.063a.542.542 0 00.008.196l.487 1.77-2.689 1.084-.488-1.769a.406.406 0 00-.322-.29.228.228 0 00-.079-.016h-.023c-.008 0-.016.008-.024.008a.476.476 0 00-.173.031.773.773 0 00-.188.118.576.576 0 00-.126.157v.008c-.024.04-.032.087-.047.126l-.024.063a.543.543 0 00.008.196l1.219 4.427a.41.41 0 00.086.165c.024.024.055.04.087.063.015.008.031.024.047.032.008 0 .008.007.015.007.04.016.079.016.118.024.016 0 .024.008.04.008.008 0 .023.008.031.008a.514.514 0 00.205-.047c.275-.11.432-.401.361-.653l-.495-1.8 2.689-1.086.495 1.8c.032.11.103.19.197.245.016.007.024.015.039.023.032.016.079.016.118.024.016 0 .024.008.04.008.007 0 .015.008.023.008.032 0 .071-.016.11-.024.032-.008.063-.008.095-.024.306-.126.463-.416.393-.668zm-5.929 1.808a.362.362 0 00-.221-.243h-.007a.855.855 0 00-.15-.032h-.023c-.048 0-.095.016-.15.032-.008 0-.023 0-.031.008a.567.567 0 00-.268.22c-.023.04-.055.078-.086.118-.047.063-.087.126-.134.188-.016.016-.023.032-.039.048 0 .007-.008.007-.008.015-.047.055-.102.11-.149.158-.032.031-.063.07-.095.102-.008.008-.015.016-.023.016-.008.007-.016.007-.016.015-.047.04-.094.071-.142.11a.956.956 0 01-.149.11l-.008.008c-.008 0-.008.008-.016.008-.055.032-.11.055-.165.087-.07.039-.141.078-.22.11-.008 0-.016.008-.023.008a3.25 3.25 0 01-.252.078c-.024.008-.039.016-.063.016l-.071.023c-.92.174-1.722-.338-1.965-1.242v-.008a2.126 2.126 0 01-.055-.802v-.008c.015-.125.047-.259.086-.377a.314.314 0 01.039-.087 2.213 2.213 0 01.299-.566c.016-.015.024-.031.039-.047.071-.094.15-.18.236-.26l.016-.015c.024-.023.055-.04.087-.063.18-.15.385-.283.613-.377a2.125 2.125 0 011.47-.071.566.566 0 00.33-.032c.276-.11.433-.393.362-.652a.385.385 0 00-.118-.189.441.441 0 00-.157-.086c-.008 0-.008-.008-.016-.008a1.973 1.973 0 00-.228-.04c-.047-.007-.102-.023-.149-.03-.039-.009-.079-.009-.118-.017a2.696 2.696 0 00-.44-.008 3.479 3.479 0 00-.598.095c-.181.047-.37.102-.566.18a4.163 4.163 0 00-.59.3l-.016.015c-.173.11-.338.228-.487.362a1.44 1.44 0 00-.039.04 2.954 2.954 0 00-.378.4c-.016.024-.031.047-.055.071a4.22 4.22 0 00-.299.456s0 .008-.007.008c-.056.094-.087.204-.126.299-.032.078-.079.157-.103.243-.031.095-.047.197-.062.291-.024.095-.048.181-.063.268-.016.126-.016.26-.016.385 0 .063-.008.126-.008.189.016.188.047.385.094.566l.008.016c.055.196.126.377.22.55.032.055.071.102.103.157.07.102.133.212.22.299.063.07.134.126.204.189.047.039.079.086.126.118a.53.53 0 00.087.055c.023.015.039.023.062.039.087.055.173.11.26.15.024.007.039.023.063.039.645.283 1.447.29 2.264-.04.912-.37 1.439-.88 1.848-1.54.032-.134.071-.276.032-.418zm8.428-2.815l-1.218-4.426a.41.41 0 00-.291-.283c-.032-.008-.071-.024-.11-.024h-.024c-.008 0-.016.008-.023.008-.055 0-.11.016-.173.031a.76.76 0 00-.189.118.595.595 0 00-.126.158v.007c-.024.04-.031.087-.047.126-.008.024-.016.04-.024.063a.543.543 0 00.008.197l1.219 4.427c.047.18.204.283.385.29.008 0 .024.008.032.008a.512.512 0 00.204-.047c.291-.11.448-.4.377-.652zm2.115-.385s.008 0 0 0c.008-.008.008-.008 0 0l1.077-.432 2.249-.904c.244-.095.393-.362.322-.598a.358.358 0 00-.377-.267h-.008a.45.45 0 00-.173.031l-2.823 1.14-.393-1.415 2.422-.975c.244-.094.393-.362.338-.59a.35.35 0 00-.212-.243c-.024-.008-.055-.008-.079-.016a.274.274 0 00-.078-.016h-.008a.476.476 0 00-.173.031l-2.422.975-.377-1.376 2.783-1.124a.446.446 0 00.165-.102.5.5 0 00.173-.48v-.008c-.008-.015-.016-.023-.024-.039a.303.303 0 00-.062-.11.42.42 0 00-.134-.094h-.008a.44.44 0 00-.141-.024h-.024a.67.67 0 00-.173.031l-3.271 1.322a.76.76 0 00-.189.117.572.572 0 00-.125.158v.007c-.024.04-.032.087-.048.126l-.023.063a.543.543 0 00.008.197l1.195 4.34c.015.07.055.126.094.173 0 .008.008.008.016.008.016.016.031.016.039.031a.26.26 0 00.079.055c.008.008.023.008.031.008.016.008.04.008.055.008.024.008.047.016.079.016.008 0 .016.008.024.008.031 0 .07-.016.11-.024h.015c.024 0 .047 0 .071-.008zm7.681-6.392a.428.428 0 00-.173.04h-.008l-2.43.982-.401-1.439 2.792-1.124c.243-.102.401-.37.338-.598a.346.346 0 00-.22-.244h-.008a.836.836 0 00-.15-.031h-.023c-.055 0-.11.016-.165.031h-.008l-3.287 1.33a.692.692 0 00-.181.11l-.008.007a.601.601 0 00-.125.157v.008c-.016.04-.024.079-.04.11-.008.024-.023.047-.023.079-.008.055 0 .11.008.165v.032l1.21 4.387a.355.355 0 00.095.165c.008.008.008.008.016.008.007.008.023.016.039.031.023.016.047.04.071.056.007 0 .007.007.015.007.04.016.095.024.142.024h.008c.008 0 .015.008.031.008s.04-.008.055-.008c.024 0 .047-.008.071-.016.024-.008.047-.008.071-.015h.008c.023-.008.047-.032.07-.048.008 0 .016-.008.016-.008a.145.145 0 00.039-.023.176.176 0 00.04-.024s.008 0 .008-.008c.157-.141.235-.353.18-.542l-.471-1.722 2.429-.983c.244-.102.401-.37.338-.605-.031-.197-.188-.3-.369-.3z" fill="#fff"/><path d="M281.451 43.245h-.047a2.846 2.846 0 00-.622.103c-4.08 1.038-7.949 10.473-11.173 27.22a.24.24 0 00.189.276c.016 0 .032.008.047.008.11 0 .213-.079.236-.19 1.911-9.906 5.944-26.693 11.346-26.937h.032c.055 0 .11.016.165.024.204.039.424.141.652.314l1.258.598c-.762-.889-1.47-1.416-2.083-1.416z" fill="#E6E6E6"/></g><defs><clipPath id="clip0_1857_12957"><path fill="#fff" d="M0 0h317.657v298H0z"/></clipPath></defs></svg>