<svg width="85" height="85" fill="none" xmlns="http://www.w3.org/2000/svg"><g clip-path="url(#clip0_2009_4)" fill="#509741"><path d="M69.136 44.346a1.665 1.665 0 00-1.722-1.343c-.175.01-.351.023-.526.035a28.187 28.187 0 00.334-15.604 1.661 1.661 0 00-1.055-1.14 28.227 28.227 0 00-.631-15.257V1.66a1.66 1.66 0 00-3.32 0v8.222a28.128 28.128 0 00-9.253 4.163A28.178 28.178 0 0044.356.41a1.66 1.66 0 00-2.182 0 28.02 28.02 0 00-8.852 14.58 28.124 28.124 0 00-10.504-5.1V1.66a1.66 1.66 0 00-3.32 0v9.268a28.224 28.224 0 00-.667 15.365 1.66 1.66 0 00-1.055 1.14 28.187 28.187 0 00.335 15.604 30.384 30.384 0 00-.527-.036 1.658 1.658 0 00-1.72 1.344 28.04 28.04 0 005.447 22.585 28.101 28.101 0 0019.528 10.66v5.749a1.66 1.66 0 003.32 0v-5.747A28.153 28.153 0 0051.6 75.86c.416-.158.743-.467.924-.872.182-.405.194-.856.036-1.27a1.657 1.657 0 00-2.143-.96 24.87 24.87 0 01-6.047 1.473A25.089 25.089 0 0144.16 71c0-3.178.594-6.258 1.744-9.134.06-.148.483-1.126.586-1.344a24.916 24.916 0 012.92-4.73c3.825-4.89 9.211-8.1 15.285-9.145l.011-.001c.465-.08.934-.149 1.407-.203a25.14 25.14 0 01.21 3.232 24.517 24.517 0 01-4.894 14.743 1.664 1.664 0 00.339 2.322c.29.216.633.329.991.329.531 0 1.016-.243 1.333-.668a27.923 27.923 0 005.552-16.726 28.32 28.32 0 00-.508-5.329zm-46.763-17.64a24.859 24.859 0 01-.09-13.527 24.777 24.777 0 0115.236 11.578 24.717 24.717 0 013.103 15.583 28.092 28.092 0 00-18.248-13.634zM44.377 40.34a24.719 24.719 0 013.102-15.583A24.777 24.777 0 0162.716 13.18a24.859 24.859 0 01-.091 13.527A28.091 28.091 0 0044.377 40.34zM43.264 3.922a24.81 24.81 0 016.84 12.383 28.046 28.046 0 00-5.5 6.79 27.99 27.99 0 00-2.105 4.54 27.998 27.998 0 00-2.105-4.54 28.042 28.042 0 00-4.203-5.543 24.66 24.66 0 017.073-13.63zM20.646 29.736a24.778 24.778 0 0116.008 10.489 24.718 24.718 0 014.182 12.272 28.017 28.017 0 000 3.119c-.038.61-.1 1.221-.184 1.83a28.062 28.062 0 00-2.449-3.701 28.093 28.093 0 00-16.396-10.189 24.816 24.816 0 01-1.16-13.82zm19.982 44.497a24.78 24.78 0 01-16.702-9.348 24.72 24.72 0 01-5.04-18.442 24.78 24.78 0 0116.702 9.347 24.72 24.72 0 015.04 18.443zm15.496-28.194a28.006 28.006 0 00-9.328 7.705 28.185 28.185 0 00-2.45 3.697 24.632 24.632 0 01-.184-1.825 28.066 28.066 0 000-3.119 24.72 24.72 0 014.182-12.272 24.778 24.778 0 0116.008-10.488c.934 4.617.53 9.444-1.16 13.817a28.108 28.108 0 00-7.068 2.485z"/><path d="M57.521 72.36a1.66 1.66 0 100-3.32 1.66 1.66 0 000 3.32z"/></g><defs><clipPath id="clip0_2009_4"><path fill="#fff" d="M0 0h85v85H0z"/></clipPath></defs></svg>