<svg xmlns="http://www.w3.org/2000/svg"><path d="M36.04 96.738a4.03 4.03 0 01-2.867-1.188L4.45 66.826a4.055 4.055 0 010-5.734l47.13-47.13a4.07 4.07 0 013.117-1.18l8.393.52A25.246 25.246 0 0186.698 36.91l.52 8.393a4.053 4.053 0 01-1.18 3.116L38.907 95.55a4.025 4.025 0 01-2.867 1.188zm18.409-81.26a1.35 1.35 0 00-.957.395L6.36 63.004a1.351 1.351 0 000 1.91L35.085 93.64a1.382 1.382 0 001.91 0l47.132-47.13a1.351 1.351 0 00.393-1.04l-.519-8.393a22.54 22.54 0 00-21.08-21.081l-8.394-.52-.078.002z"/><path d="M68.919 38.362a7.287 7.287 0 11.007-14.573 7.287 7.287 0 01-.007 14.573zm0-11.876a4.585 4.585 0 10.004 9.17 4.585 4.585 0 00-.004-9.17z"/><path d="M71.724 32.942a4.608 4.608 0 01-3.41-1.257c-1.017-1.017-1.938-3.057-.553-6.994a1.352 1.352 0 112.55.897c-.706 2.007-.737 3.534-.084 4.19.653.655 2.18.62 4.19-.085a26.788 26.788 0 007.041-4.086 43.73 43.73 0 004.218-3.729 35.966 35.966 0 007.269-9.913c1.189-2.61 1.43-4.73.627-5.533-.803-.802-2.922-.562-5.533.627a35.965 35.965 0 00-9.917 7.265 43.617 43.617 0 00-3.726 4.22 1.353 1.353 0 01-2.142-1.652 46.527 46.527 0 013.962-4.474 38.7 38.7 0 0110.699-7.823c3.828-1.746 6.87-1.772 8.563-.079 1.694 1.693 1.665 4.73-.078 8.564a38.702 38.702 0 01-7.818 10.704 46.527 46.527 0 01-4.474 3.962 29.494 29.494 0 01-7.792 4.495c-1.149.434-2.363.67-3.592.7zM39.301 72.703a11.201 11.201 0 01-11.189-11.188c0-5.66 9.017-20.157 10.045-21.79a1.352 1.352 0 012.488.582 27.766 27.766 0 003.098 9.324c.709 1.295 1.785 2.85 2.826 4.355 2.432 3.525 3.919 5.791 3.919 7.537a11.2 11.2 0 01-11.187 11.18zm-.641-28.6c-3.16 5.351-7.838 14.017-7.838 17.412a8.486 8.486 0 0016.971 0c0-1.029-1.987-3.901-3.439-5.999-1.08-1.562-2.197-3.177-2.973-4.594a30.92 30.92 0 01-2.721-6.818v-.001z"/><path d="M42.126 79.588a1.35 1.35 0 01-1.157-.652c-4.888-8.06-3.766-22.543-3.716-23.155a1.33 1.33 0 011.456-1.238A1.35 1.35 0 0139.947 56c-.01.135-1.094 14.226 3.334 21.535a1.35 1.35 0 01-1.154 2.051l-.001.002z"/></svg>