<svg xmlns="http://www.w3.org/2000/svg"><path d="M94.231 50.738H41.147a3.069 3.069 0 01-3.066-3.066v-10.71a1.35 1.35 0 112.703 0v10.711a.358.358 0 00.363.364h53.084a.36.36 0 00.364-.364V7.651a.352.352 0 00-.364-.363H41.147a.351.351 0 00-.363.363v20.467a1.352 1.352 0 01-2.703 0V7.65a3.069 3.069 0 013.066-3.066h53.084a3.069 3.069 0 013.066 3.066v40.022a3.069 3.069 0 01-3.066 3.065zM21.497 24.78a10.099 10.099 0 1110.1-10.099 10.11 10.11 0 01-10.1 10.099zm0-17.496a7.396 7.396 0 107.398 7.397 7.404 7.404 0 00-7.398-7.397zm-4.942 88.134a6.365 6.365 0 01-6.373-6.337V57.677a1.35 1.35 0 112.703 0v31.404a3.664 3.664 0 003.893 3.622 3.523 3.523 0 002.611-1.479c.383-.574.605-1.24.642-1.93.08-.866.12-1.743.12-2.603V62.973a1.352 1.352 0 012.703 0v23.723c0 .946-.043 1.904-.135 2.853a6.496 6.496 0 01-1.149 3.271 6.216 6.216 0 01-5.015 2.598z"/><path d="M26.45 95.418a6.217 6.217 0 01-5.023-2.6 6.487 6.487 0 01-1.149-3.27c-.085-.945-.135-1.9-.135-2.853V62.973a1.351 1.351 0 012.703 0v23.723c0 .872.04 1.749.119 2.605.037.689.259 1.355.642 1.929a3.525 3.525 0 002.621 1.473 3.66 3.66 0 003.888-3.627V39.73a4.118 4.118 0 014.114-4.112h14.217a3.109 3.109 0 002.179-.903 3.036 3.036 0 00.883-2.162 3.075 3.075 0 00-3.063-3.079H13.31a7.912 7.912 0 00-7.906 7.898V58.22a2.399 2.399 0 002.411 2.381 2.297 2.297 0 002.366-2.274V39.83a1.351 1.351 0 112.703 0v18.496a4.984 4.984 0 01-4.978 4.977 5.123 5.123 0 01-5.204-5.083V37.372a10.617 10.617 0 0110.606-10.606h35.135a5.774 5.774 0 110 11.547H34.23a1.413 1.413 0 00-1.411 1.417v49.35a6.365 6.365 0 01-6.37 6.337zm45.057-56.705a9.406 9.406 0 01-6.696-2.74c-3.42-3.42-6.448-17.729-6.783-19.35a1.352 1.352 0 012.17-1.325 22.407 22.407 0 007.385 3.57c1.2.326 2.79.58 4.325.826 3.663.588 5.967 1.022 7.062 2.116a9.385 9.385 0 012.742 6.92 10.29 10.29 0 01-10.21 9.983h.005zm-10.121-19.46c1.369 5.74 3.546 13.014 5.336 14.806a7.138 7.138 0 0010.07-.27 7.463 7.463 0 002.222-5.123 6.702 6.702 0 00-1.95-4.944c-.554-.554-3.698-1.056-5.578-1.35-1.608-.259-3.27-.525-4.608-.887a25.57 25.57 0 01-5.492-2.222v-.01z"/><path d="M83.604 38.437c-.1 0-.2-.01-.298-.032C75.39 36.63 67.41 27.252 67.074 26.853a1.351 1.351 0 012.066-1.741c.077.09 7.731 9.082 14.757 10.656a1.351 1.351 0 01-.295 2.67h.002z"/></svg>