<svg xmlns="http://www.w3.org/2000/svg"><path d="M81.08 77.45a4.477 4.477 0 11-.002-8.954 4.477 4.477 0 01.003 8.954zm0-6.25a1.775 1.775 0 10-.001 3.55 1.775 1.775 0 00.002-3.55z"/><path d="M95.946 74.324h-6.473a1.351 1.351 0 010-2.702h5.121V46.904L83.522 32.432H67.567v39.19h5.122a1.351 1.351 0 010 2.702h-6.473a1.352 1.352 0 01-1.351-1.351V31.081a1.352 1.352 0 011.351-1.351H84.19a1.351 1.351 0 011.073.53L97.02 45.624c.18.236.278.525.278.822v26.527a1.351 1.351 0 01-1.351 1.351z"/><path d="M66.216 74.324H33a1.35 1.35 0 110-2.702h31.865V22.959H5.405v48.663h10.811a1.352 1.352 0 010 2.702H4.054a1.351 1.351 0 01-1.351-1.351V21.608a1.351 1.351 0 011.351-1.351h62.162a1.351 1.351 0 011.352 1.351v51.365a1.351 1.351 0 01-1.352 1.351z"/><path d="M66.216 59.46H4.054a1.351 1.351 0 010-2.703h62.162a1.351 1.351 0 110 2.703zM24.605 82.713a9.742 9.742 0 119.742-9.74 9.751 9.751 0 01-9.742 9.74zm0-16.78a7.038 7.038 0 107.04 7.04 7.046 7.046 0 00-7.04-7.038v-.001z"/><path d="M24.605 77.308a4.335 4.335 0 11.003-8.669 4.335 4.335 0 01-.003 8.67zm0-5.969a1.631 1.631 0 10.003 3.26 1.631 1.631 0 00-.003-3.258v-.002zM81.08 82.713a9.74 9.74 0 119.741-9.74 9.751 9.751 0 01-9.74 9.74zm0-16.78a7.038 7.038 0 107.039 7.04 7.046 7.046 0 00-7.038-7.038v-.001zm6.987-10.528H72.974a1.35 1.35 0 01-1.351-1.35V38.958a1.351 1.351 0 011.35-1.35h9.339a1.35 1.35 0 011.074.532l5.757 7.547c.18.235.277.523.277.819v7.547a1.351 1.351 0 01-1.352 1.351zm-13.743-2.702h12.392v-5.74l-5.074-6.652h-7.318v12.392zm-39.918-.67a9.409 9.409 0 01-6.696-2.739c-3.42-3.421-6.449-17.73-6.784-19.35a1.351 1.351 0 012.17-1.326 22.406 22.406 0 007.386 3.57c1.2.326 2.789.58 4.324.826 3.663.588 5.968 1.022 7.062 2.117a9.385 9.385 0 012.742 6.92 10.29 10.29 0 01-10.21 9.982h.006zm-10.122-19.46c1.37 5.74 3.546 13.014 5.337 14.806a7.137 7.137 0 0010.07-.27 7.464 7.464 0 002.222-5.123 6.702 6.702 0 00-1.95-4.943c-.554-.554-3.699-1.057-5.579-1.352-1.608-.258-3.27-.524-4.608-.886a25.574 25.574 0 01-5.492-2.222v-.01z"/><path d="M46.502 51.758c-.1 0-.2-.011-.297-.033-7.918-1.774-15.898-11.153-16.233-11.551a1.351 1.351 0 012.066-1.742c.078.09 7.732 9.082 14.757 10.657a1.352 1.352 0 01-.294 2.67l.001-.001z"/></svg>